<svg xmlns="http://www.w3.org/2000/svg" xmlns:xlink="http://www.w3.org/1999/xlink" viewBox="0 0 168.71875 180.4398"><defs><style>.cls-1,.cls-11,.cls-15,.cls-16,.cls-17{fill:none;}.cls-1,.cls-11,.cls-2{stroke:#ed1e79;}.cls-1,.cls-11,.cls-15,.cls-16,.cls-17,.cls-2,.cls-3,.cls-4,.cls-5,.cls-6,.cls-7{stroke-miterlimit:10;}.cls-2{fill:#fff;}.cls-3,.cls-4,.cls-5,.cls-6,.cls-7{stroke:#000;}.cls-11,.cls-3,.cls-4,.cls-5,.cls-6,.cls-7{stroke-width:2px;}.cls-3{fill:url(#radial-gradient);}.cls-4{fill:url(#radial-gradient-2);}.cls-5{fill:url(#linear-gradient);}.cls-6{fill:url(#linear-gradient-2);}.cls-7{fill:url(#linear-gradient-3);}.cls-8{fill:#ff5652;}.cls-9{fill:#ffbf49;}.cls-10{fill:#00cb51;}.cls-12{fill:#ed1e79;}.cls-13{fill:#4d4d4d;}.cls-14{fill:#666;}.cls-15,.cls-16,.cls-17{stroke:#b3b3b3;}.cls-16{stroke-dasharray:3.39468 3.39468;}.cls-17{stroke-dasharray:3.72801 3.72801;}.cls-18{fill:gray;}.cls-19{fill:#1a1a1a;}.cls-20{fill:#ccc;}</style><radialGradient id="radial-gradient" cx="18.08822" cy="66.67254" r="42.82759" gradientTransform="matrix(0.93266, -0.36075, 0.25521, 0.6598, -15.79764, 29.20722)" gradientUnits="userSpaceOnUse"><stop offset="0.5" stop-color="#3e4042"/><stop offset="0.5" stop-color="#1e1e1e"/></radialGradient><radialGradient id="radial-gradient-2" cx="34.22922" cy="94.56361" r="27.04251" gradientUnits="userSpaceOnUse"><stop offset="0.31331" stop-color="#582930"/><stop offset="0.74839" stop-color="#1e1e1e"/></radialGradient><linearGradient id="linear-gradient" x1="25.26749" y1="104.3965" x2="30.14142" y2="71.43121" gradientUnits="userSpaceOnUse"><stop offset="0.31331" stop-color="#582930"/><stop offset="0.68378" stop-color="#1e1e1e"/><stop offset="0.69132" stop-color="#3b3b3b"/></linearGradient><linearGradient id="linear-gradient-2" x1="38.71463" y1="105.52963" x2="38.71463" y2="72.20598" xlink:href="#linear-gradient"/><linearGradient id="linear-gradient-3" x1="52.09543" y1="105.28365" x2="47.27603" y2="72.31034" gradientUnits="userSpaceOnUse"><stop offset="0.31331" stop-color="#582930"/><stop offset="0.51897" stop-color="#382326"/><stop offset="0.68378" stop-color="#1e1e1e"/><stop offset="0.69132" stop-color="#3b3b3b"/></linearGradient></defs><title>-1Asset 4</title><g id="Layer_2" data-name="Layer 2"><g id="Layer_1-2" data-name="Layer 1"><rect class="cls-1" x="16.7417" y="141.51121" width="55.06432" height="38.42859"/><rect class="cls-2" x="18.30038" y="139.66271" width="55.06432" height="38.42859"/><rect class="cls-2" x="20.45508" y="137.85431" width="55.06432" height="38.42859"/><path class="cls-3" d="M26.84826,62.63577H43.32738A13.67834,13.67834,0,0,1,57.00572,76.31411v35.22353a0,0,0,0,1,0,0H13.16992a0,0,0,0,1,0,0V76.31411A13.67834,13.67834,0,0,1,26.84826,62.63577Z"/><path class="cls-4" d="M46.67175,91.244H30.77417a6.38253,6.38253,0,0,1-6.38257-6.38251V65.63577c9.66126-1.32638,17.13721-.56616,20.29444.38248a42.69926,42.69926,0,0,1,4.90466,1.85614,37.16234,37.16234,0,0,1,3.46362,1.82526c.424.88574,0,7.19644,0,15.1618A6.38252,6.38252,0,0,1,46.67175,91.244Z"/><path class="cls-5" d="M26.9115,57.40773h5.67969a0,0,0,0,1,0,0V90.73138a0,0,0,0,1,0,0H28.67455a1.763,1.763,0,0,1-1.763-1.763V57.40773A0,0,0,0,1,26.9115,57.40773Z"/><rect class="cls-6" x="35.87479" y="57.40773" width="5.67967" height="33.32365"/><path class="cls-7" d="M44.68608,57.40773h5.67967a0,0,0,0,1,0,0V88.609a2.12236,2.12236,0,0,1-2.12236,2.12236H44.79316a.10709.10709,0,0,1-.10709-.10709V57.40773A0,0,0,0,1,44.68608,57.40773Z"/><circle class="cls-8" cx="33.28848" cy="104.43244" r="2.70393"/><circle class="cls-9" cx="42.08467" cy="104.43244" r="2.70393"/><circle class="cls-10" cx="50.88062" cy="104.43244" r="2.70393"/><path class="cls-11" d="M67.50854,96.24832a27.8262,27.8262,0,0,1,22.77479,48.844"/><polygon class="cls-12" points="90.307 141.436 82.713 149.7 93.422 146.341 90.307 141.436"/><path class="cls-12" d="M71.9502,81.50146a4.04458,4.04458,0,0,0-.49512-.13525,2.60716,2.60716,0,0,0-.52442-.05469,2.03869,2.03869,0,0,0-1.46.46094,1.9526,1.9526,0,0,0-.48047,1.46387,2.07382,2.07382,0,0,0,.14063.78711,1.608,1.608,0,0,0,.39941.58691,1.80681,1.80681,0,0,0,.625.37061,2.37946,2.37946,0,0,0,.80567.13037,2.65078,2.65078,0,0,0,.915-.1626,2.30954,2.30954,0,0,0,.74414-.42725l.35058.58008a2.84309,2.84309,0,0,1-.35058.25,3.49114,3.49114,0,0,1-.48438.24512,3.34475,3.34475,0,0,1-.61035.18457,3.52913,3.52913,0,0,1-.72461.07031,3.26942,3.26942,0,0,1-1.14551-.18506,2.18346,2.18346,0,0,1-.82519-.53027,2.27019,2.27019,0,0,1-.5-.82959,3.23362,3.23362,0,0,1-.16992-1.07519,3.30709,3.30709,0,0,1,.17578-1.12012,2.156,2.156,0,0,1,.50488-.81983,2.19265,2.19265,0,0,1,.7998-.50488,2.98913,2.98913,0,0,1,1.04981-.17529,4.60442,4.60442,0,0,1,1.20508.12988,4.51966,4.51966,0,0,1,.78515.29l-.00976.03027v1.39014h-.7207Z"/><path class="cls-12" d="M74.2207,85.73145v-.66993h1.34961V81.40137H74.2207v-.66992h1.87012l.16016.6499h.0498a3.58984,3.58984,0,0,1,.75977-.52979,2.13145,2.13145,0,0,1,1-.22021,1.009,1.009,0,0,1,.54492.12988.86845.86845,0,0,1,.32031.38037,1.98338,1.98338,0,0,1,.1543.605,7.09149,7.09149,0,0,1,.04.80469l-.69922.01025a2.5798,2.5798,0,0,0-.125-.93261.45512.45512,0,0,0-.45508-.29737,1.64646,1.64646,0,0,0-.56055.08985,1.82806,1.82806,0,0,0-.43457.21923,2.35766,2.35766,0,0,0-.31543.25928,1.53955,1.53955,0,0,0-.18945.21924v2.94238h1.91992v.66993Z"/><path class="cls-12" d="M83.18066,80.73145h1.42969V84.1416a7.10494,7.10494,0,0,0,.06055.93994h.66992v.64991H84.001l-.03028-.8501h-.04a2.09735,2.09735,0,0,1-.68847.70019,1.90672,1.90672,0,0,1-1.03711.27,2.559,2.559,0,0,1-.78223-.105,1.11134,1.11134,0,0,1-.5332-.36523,1.698,1.698,0,0,1-.30957-.69483,4.96636,4.96636,0,0,1-.09961-1.085V81.40137h-.66992v-.66992h1.46v2.71a6.88652,6.88652,0,0,0,.03515.73486,1.63775,1.63775,0,0,0,.14356.55029.74484.74484,0,0,0,.32226.33985,1.205,1.205,0,0,0,.57032.11523,1.30763,1.30763,0,0,0,.89843-.34033,2.16013,2.16013,0,0,0,.58008-.8501V81.40137h-.63965Z"/><path class="cls-12" d="M86.49023,82.48145c0-.06006-.001-.13819-.00488-.23487q-.00439-.145-.01465-.30029c-.00683-.103-.01562-.20508-.02539-.30469-.00976-.1001-.02148-.18652-.03515-.26025h-.66993v-.6499h1.33985l.09082.81005h.0498a1.69949,1.69949,0,0,1,.26465-.335,2.11586,2.11586,0,0,1,.38477-.30029,2.08239,2.08239,0,0,1,.49023-.21484,2.00452,2.00452,0,0,1,.57031-.08008,3.01767,3.01767,0,0,1,.81446.1001,1.24623,1.24623,0,0,1,.59082.355,1.65056,1.65056,0,0,1,.35449.68994,4.24416,4.24416,0,0,1,.12012,1.105v2.87012h-.79V83.01758a2.34022,2.34022,0,0,0-.26856-1.24707,1.07109,1.07109,0,0,0-.97656-.41895,1.26807,1.26807,0,0,0-.50391.10449,1.76858,1.76858,0,0,0-.44336.27442,1.89961,1.89961,0,0,0-.34863.394,1.64714,1.64714,0,0,0-.21875.47412v3.13282h-.77051Z"/><path class="cls-12" d="M95.9502,81.50146a4.04458,4.04458,0,0,0-.49512-.13525,2.60716,2.60716,0,0,0-.52442-.05469,2.03869,2.03869,0,0,0-1.46.46094,1.9526,1.9526,0,0,0-.48047,1.46387,2.07382,2.07382,0,0,0,.14063.78711,1.608,1.608,0,0,0,.39941.58691,1.80681,1.80681,0,0,0,.625.37061,2.37946,2.37946,0,0,0,.80567.13037,2.65078,2.65078,0,0,0,.915-.1626,2.30954,2.30954,0,0,0,.74414-.42725l.35058.58008a2.84309,2.84309,0,0,1-.35058.25,3.49114,3.49114,0,0,1-.48438.24512,3.34475,3.34475,0,0,1-.61035.18457,3.52913,3.52913,0,0,1-.72461.07031,3.26942,3.26942,0,0,1-1.14551-.18506,2.18346,2.18346,0,0,1-.82519-.53027,2.27019,2.27019,0,0,1-.5-.82959,3.23362,3.23362,0,0,1-.16992-1.07519,3.30709,3.30709,0,0,1,.17578-1.12012,2.156,2.156,0,0,1,.50488-.81983,2.19265,2.19265,0,0,1,.7998-.50488,2.98913,2.98913,0,0,1,1.04981-.17529,4.60442,4.60442,0,0,1,1.20508.12988,4.51966,4.51966,0,0,1,.78515.29l-.00976.03027v1.39014h-.7207Z"/><path class="cls-12" d="M97.60059,78.73145h1.55957v2.62011h.05078a2.2278,2.2278,0,0,1,.71972-.54492,2.36256,2.36256,0,0,1,1.01954-.19531,3.10464,3.10464,0,0,1,.835.1001,1.1945,1.1945,0,0,1,.58007.35009,1.58316,1.58316,0,0,1,.335.68506,4.61725,4.61725,0,0,1,.11035,1.105v2.87989h-.79v-2.73a4.93962,4.93962,0,0,0-.04981-.75,1.30545,1.30545,0,0,0-.19433-.53515.90376.90376,0,0,0-.39356-.32471,1.59018,1.59018,0,0,0-.63769-.11035,1.52047,1.52047,0,0,0-.52832.09521,1.78687,1.78687,0,0,0-.47364.25977,1.63151,1.63151,0,0,0-.36816.40039,1.493,1.493,0,0,0-.21484.51465v3.18018h-.76954V79.40137h-.79Z"/><path class="cls-12" d="M104.60938,85.73145v-.66993h1.74023V81.40137h-1.74023v-.66992h2.53027v4.33007h1.70019v.66993Zm1.46-6.41993a.66124.66124,0,0,1,.18066-.46484.59467.59467,0,0,1,.46-.19531.65559.65559,0,0,1,.48438.19531.63477.63477,0,0,1,.19531.46484.57673.57673,0,0,1-.19531.43994.68575.68575,0,0,1-.48438.18018.61985.61985,0,0,1-.46-.18018A.59867.59867,0,0,1,106.06934,79.31152Z"/><path class="cls-12" d="M110.48926,82.48145c0-.06006-.001-.13819-.00488-.23487q-.0044-.145-.01465-.30029c-.00684-.103-.01563-.20508-.02539-.30469-.00977-.1001-.02149-.18652-.03516-.26025h-.66992v-.6499h1.33984l.09082.81005h.04981a1.69875,1.69875,0,0,1,.26465-.335,2.11612,2.11612,0,0,1,.38476-.30029,2.08246,2.08246,0,0,1,.49024-.21484,2.00442,2.00442,0,0,1,.57031-.08008,3.01759,3.01759,0,0,1,.81445.1001,1.24618,1.24618,0,0,1,.59082.355,1.65045,1.65045,0,0,1,.35449.68994,4.24416,4.24416,0,0,1,.12012,1.105v2.87012h-.79V83.01758a2.34023,2.34023,0,0,0-.26855-1.24707,1.07112,1.07112,0,0,0-.97657-.41895,1.268,1.268,0,0,0-.5039.10449,1.76822,1.76822,0,0,0-.44336.27442,1.89932,1.89932,0,0,0-.34863.394,1.64688,1.64688,0,0,0-.21875.47412v3.13282h-.77051Z"/><path class="cls-12" d="M120.7998,85.98145a1.80038,1.80038,0,0,1-.18066.82519,1.61679,1.61679,0,0,1-.49414.585,2.23189,2.23189,0,0,1-.73535.34473,3.44144,3.44144,0,0,1-.91016.11523,3.93877,3.93877,0,0,1-1.03027-.12011,3.08777,3.08777,0,0,1-.75977-.31006l.37891-.71a1.126,1.126,0,0,0,.23437.15478,2.47676,2.47676,0,0,0,.334.14014,2.79809,2.79809,0,0,0,.40332.105,2.29608,2.29608,0,0,0,.42383.04,2.84963,2.84963,0,0,0,.7334-.08008,1.09732,1.09732,0,0,0,.47363-.25.96869.96869,0,0,0,.25879-.43994,2.36982,2.36982,0,0,0,.08008-.65967v-.56006h-.04a1.55444,1.55444,0,0,1-.58887.50977,2.50108,2.50108,0,0,1-2.59766-.45508,3.03327,3.03327,0,0,1-.5332-1.9751,2.56616,2.56616,0,0,1,.67969-1.93457,2.80427,2.80427,0,0,1,2.01953-.65527,5.60275,5.60275,0,0,1,1.05566.085,5.35321,5.35321,0,0,1,.79492.21533Zm-2.23046-.79981a1.36328,1.36328,0,0,0,.95312-.31543,1.75488,1.75488,0,0,0,.48731-.96484V81.53125a2.8894,2.8894,0,0,0-1.22168-.21,1.66448,1.66448,0,0,0-1.252.47021,1.99581,1.99581,0,0,0-.457,1.43995,3.61456,3.61456,0,0,0,.08008.78515,1.79461,1.79461,0,0,0,.25293.61475,1.20079,1.20079,0,0,0,.457.40527A1.52337,1.52337,0,0,0,118.56934,85.18164Z"/><path class="cls-12" d="M128.48926,82.48145c0-.06006-.001-.13819-.00488-.23487q-.00439-.145-.01465-.30029c-.00684-.103-.01563-.20508-.02539-.30469-.00977-.1001-.02149-.18652-.03516-.26025h-.66992v-.6499h1.33984l.09082.81005h.04981a1.69875,1.69875,0,0,1,.26465-.335,2.11612,2.11612,0,0,1,.38476-.30029,2.08246,2.08246,0,0,1,.49024-.21484,2.00442,2.00442,0,0,1,.57031-.08008,3.01759,3.01759,0,0,1,.81445.1001,1.24618,1.24618,0,0,1,.59082.355,1.65045,1.65045,0,0,1,.35449.68994,4.24416,4.24416,0,0,1,.12012,1.105v2.87012h-.79V83.01758a2.34023,2.34023,0,0,0-.26855-1.24707,1.07112,1.07112,0,0,0-.97657-.41895,1.268,1.268,0,0,0-.5039.10449,1.76822,1.76822,0,0,0-.44336.27442,1.89932,1.89932,0,0,0-.34863.394,1.64688,1.64688,0,0,0-.21875.47412v3.13282h-.77051Z"/><path class="cls-12" d="M137.17969,80.73145h1.42969V84.1416a7.105,7.105,0,0,0,.06054.93994h.66992v.64991H138l-.03027-.8501h-.04a2.09738,2.09738,0,0,1-.68848.70019,1.90672,1.90672,0,0,1-1.03711.27,2.559,2.559,0,0,1-.78222-.105,1.11132,1.11132,0,0,1-.53321-.36523,1.69808,1.69808,0,0,1-.30957-.69483,4.967,4.967,0,0,1-.09961-1.085V81.40137h-.66992v-.66992h1.46v2.71a6.8837,6.8837,0,0,0,.03516.73486,1.63775,1.63775,0,0,0,.14355.55029.74491.74491,0,0,0,.32227.33985,1.205,1.205,0,0,0,.57031.11523,1.30766,1.30766,0,0,0,.89844-.34033,2.16034,2.16034,0,0,0,.58008-.8501V81.40137h-.63965Z"/><path class="cls-12" d="M142.17969,85.73145V82.40137q0-.21021-.01465-.40479a1.41124,1.41124,0,0,0-.07031-.3501.56275.56275,0,0,0-.16016-.24511.40914.40914,0,0,0-.27539-.08985.72218.72218,0,0,0-.57422.27979,1.86854,1.86854,0,0,0-.35547.70019v3.43995h-.75976v-5h.51953l.15039.60986h.04c.0664-.1001.13183-.19483.19531-.28467a1.09589,1.09589,0,0,1,.21973-.23535.921.921,0,0,1,.29492-.15479,1.42046,1.42046,0,0,1,.42969-.05517,1.15589,1.15589,0,0,1,.31054.04492.97571.97571,0,0,1,.29492.14014.87.87,0,0,1,.23438.25488.96211.96211,0,0,1,.13086.39014,2.08989,2.08989,0,0,1,.51465-.60987,1.25492,1.25492,0,0,1,.78515-.22021,1.12623,1.12623,0,0,1,.53516.11035.78688.78688,0,0,1,.31934.31494,1.45624,1.45624,0,0,1,.16015.48975,4.06,4.06,0,0,1,.04492.63525v3.56983h-.75976V82.33154a3.59336,3.59336,0,0,0-.02051-.395,1.26,1.26,0,0,0-.07422-.32519.53953.53953,0,0,0-.15039-.21973.384.384,0,0,0-.25488-.08008.748.748,0,0,0-.58985.27979,1.86233,1.86233,0,0,0-.36035.80029v3.33985Z"/><path class="cls-12" d="M145.5791,78.73145h1.60059v2.56982h.0498a1.718,1.718,0,0,1,.66992-.50977,2.18994,2.18994,0,0,1,.89063-.18017q2.19873,0,2.19922,2.54a2.61727,2.61727,0,0,1-.71,1.97509,2.79241,2.79241,0,0,1-2.01953.68506,4.79882,4.79882,0,0,1-1.12012-.12011,2.24948,2.24948,0,0,1-.73047-.27979V79.40137h-.83008Zm3.11035,2.5498a1.37721,1.37721,0,0,0-.96972.34033,1.97226,1.97226,0,0,0-.54.96v2.29981a2.201,2.201,0,0,0,.5498.18994,3.11045,3.11045,0,0,0,.66992.07031,2.16672,2.16672,0,0,0,.72559-.11523,1.38279,1.38279,0,0,0,.55469-.35987,1.648,1.648,0,0,0,.35449-.625,2.87112,2.87112,0,0,0,.125-.8999,3.11545,3.11545,0,0,0-.08008-.72021,1.7247,1.7247,0,0,0-.25488-.59473,1.22212,1.22212,0,0,0-.45508-.40039A1.46852,1.46852,0,0,0,148.68945,81.28125Z"/><path class="cls-12" d="M156.84961,85.10156a2.53737,2.53737,0,0,1-.42481.29981,3.1477,3.1477,0,0,1-.53515.24023,3.95393,3.95393,0,0,1-.60547.15479,3.68213,3.68213,0,0,1-.63477.05517,2.83042,2.83042,0,0,1-1.05957-.18506,2.04929,2.04929,0,0,1-.7705-.53027,2.31494,2.31494,0,0,1-.46973-.82471,3.413,3.413,0,0,1-.16016-1.08007,3.33215,3.33215,0,0,1,.17481-1.12012,2.18024,2.18024,0,0,1,.50488-.81983,2.2048,2.2048,0,0,1,.80078-.50488,2.98525,2.98525,0,0,1,1.04981-.17529,3.17288,3.17288,0,0,1,.83007.11035,1.63728,1.63728,0,0,1,.72461.41455,1.982,1.982,0,0,1,.48536.84033,3.91215,3.91215,0,0,1,.12011,1.38477h-3.86035a1.74124,1.74124,0,0,0,.4834,1.34521,1.83562,1.83562,0,0,0,1.292.44483,2.21377,2.21377,0,0,0,.5332-.06494,4.50737,4.50737,0,0,0,.50391-.15479,2.6375,2.6375,0,0,0,.42383-.20019,1.8238,1.8238,0,0,0,.28418-.2002Zm-2.10547-3.83008a2.69761,2.69761,0,0,0-.623.06983,1.41438,1.41438,0,0,0-.51855.23535,1.28572,1.28572,0,0,0-.36816.42969,1.71981,1.71981,0,0,0-.18458.65527h3.09961a1.54047,1.54047,0,0,0-.42382-1.02539A1.34482,1.34482,0,0,0,154.74414,81.27148Z"/><path class="cls-12" d="M158.21973,85.73145v-.66993h1.34961V81.40137h-1.34961v-.66992h1.87011l.16016.6499h.0498a3.59035,3.59035,0,0,1,.75977-.52979,2.13145,2.13145,0,0,1,1-.22021,1.009,1.009,0,0,1,.54492.12988.86838.86838,0,0,1,.32031.38037,1.98309,1.98309,0,0,1,.1543.605,7.08916,7.08916,0,0,1,.04.80469l-.69922.01025a2.5798,2.5798,0,0,0-.125-.93261.45511.45511,0,0,0-.45508-.29737,1.64636,1.64636,0,0,0-.56054.08985,1.82768,1.82768,0,0,0-.43457.21923,2.35639,2.35639,0,0,0-.31543.25928,1.53908,1.53908,0,0,0-.18946.21924v2.94238h1.91993v.66993Z"/><path class="cls-12" d="M167.92871,84.38135a.56979.56979,0,0,0-.249-.49512,2.05661,2.05661,0,0,0-.61817-.27978q-.36913-.10474-.80273-.19483a4.62539,4.62539,0,0,1-.80274-.24023,1.79713,1.79713,0,0,1-.61816-.40479.98025.98025,0,0,1-.249-.71533,1.22087,1.22087,0,0,1,.165-.6499,1.38439,1.38439,0,0,1,.43457-.44483,1.98112,1.98112,0,0,1,.62988-.26025,3.25782,3.25782,0,0,1,.75-.085,3.69192,3.69192,0,0,1,1.20508.17529,3.92786,3.92786,0,0,1,.80468.36475l-.31835.62988q-.32959-.17945-.71289-.34473a2.4487,2.4487,0,0,0-.96192-.165,2.11461,2.11461,0,0,0-.43359.04493,1.52632,1.52632,0,0,0-.38867.13525.76828.76828,0,0,0-.2793.23486.58644.58644,0,0,0-.10449.355.43772.43772,0,0,0,.249.39991,2.56634,2.56634,0,0,0,.61816.23486q.36915.09522.80274.18018a3.91117,3.91117,0,0,1,.80273.24511,1.81319,1.81319,0,0,1,.61817.42969,1.03584,1.03584,0,0,1,.249.73,1.415,1.415,0,0,1-.54492,1.14014,2.52194,2.52194,0,0,1-1.63477.45019,3.5111,3.5111,0,0,1-.65039-.06006,3.89526,3.89526,0,0,1-.59961-.16015,3.531,3.531,0,0,1-.51074-.2251,2.1345,2.1345,0,0,1-.37988-.25488l.39941-.64991a1.78317,1.78317,0,0,0,.31836.24512,3.00247,3.00247,0,0,0,.95313.38477,2.57558,2.57558,0,0,0,.55273.06006,2.69017,2.69017,0,0,0,.50391-.04493,1.48589,1.48589,0,0,0,.41406-.14013.77337.77337,0,0,0,.28418-.25A.65629.65629,0,0,0,167.92871,84.38135Z"/><path d="M68.21875,63.40771h1.60059v2.56983h.0498a1.718,1.718,0,0,1,.66992-.50977,2.18994,2.18994,0,0,1,.89063-.18017q2.19873,0,2.19922,2.54a2.61727,2.61727,0,0,1-.71,1.97509,2.79242,2.79242,0,0,1-2.01954.68506,4.79873,4.79873,0,0,1-1.12011-.12011,2.24948,2.24948,0,0,1-.73047-.27979V64.07764h-.83008Zm3.11035,2.54981a1.37721,1.37721,0,0,0-.96972.34033,1.97219,1.97219,0,0,0-.54.96v2.29981a2.201,2.201,0,0,0,.5498.18994,3.11039,3.11039,0,0,0,.66992.07031,2.16676,2.16676,0,0,0,.72559-.11523,1.38279,1.38279,0,0,0,.55469-.35987,1.648,1.648,0,0,0,.35449-.625,2.87112,2.87112,0,0,0,.125-.8999,3.11545,3.11545,0,0,0-.08008-.72021,1.72489,1.72489,0,0,0-.25488-.59473,1.22212,1.22212,0,0,0-.45508-.40039A1.46852,1.46852,0,0,0,71.3291,65.95752Z"/><path d="M74.85938,70.40771v-.66992H76.209V66.07764h-1.3496v-.66993h1.87011l.16016.64991h.0498a3.59035,3.59035,0,0,1,.75977-.52979,2.13145,2.13145,0,0,1,1-.22021,1.009,1.009,0,0,1,.54492.12988.86845.86845,0,0,1,.32031.38037,1.98338,1.98338,0,0,1,.1543.605,7.09149,7.09149,0,0,1,.04.80469l-.69922.01025a2.5798,2.5798,0,0,0-.125-.93261.45511.45511,0,0,0-.45508-.29737,1.64636,1.64636,0,0,0-.56054.08985,1.82768,1.82768,0,0,0-.43457.21923,2.35639,2.35639,0,0,0-.31543.25928,1.53908,1.53908,0,0,0-.18946.21924v2.94238h1.91992v.66992Z"/><path d="M81.2793,65.79785a3.1907,3.1907,0,0,1,.96972-.36035,5.31656,5.31656,0,0,1,1.06055-.10986,1.896,1.896,0,0,1,.835.16015,1.35478,1.35478,0,0,1,.50977.415,1.47535,1.47535,0,0,1,.25.58008,3.35255,3.35255,0,0,1,.06445.65479c0,.25341-.00586.52343-.01953.81005s-.02344.57325-.03027.85987a7.18641,7.18641,0,0,0,.06054.95019h.66992v.6499H84.32812l-.08886-.75h-.04981a2.74811,2.74811,0,0,1-.18066.23,1.662,1.662,0,0,1-.31641.2749,2.026,2.026,0,0,1-.47656.23535,1.97651,1.97651,0,0,1-.66211.09961,1.71082,1.71082,0,0,1-1.17285-.37988,1.31342,1.31342,0,0,1-.43164-1.04,1.507,1.507,0,0,1,.22558-.8501,1.4234,1.4234,0,0,1,.64747-.52,2.97721,2.97721,0,0,1,1.01757-.21,6.8703,6.8703,0,0,1,1.33985.08008,3.54561,3.54561,0,0,0,.01465-.76514,1.05974,1.05974,0,0,0-.16016-.48486.67308.67308,0,0,0-.35156-.25489,1.78817,1.78817,0,0,0-.55664-.07519,2.96229,2.96229,0,0,0-.86328.125q-.41163.12524-.73243.25537Zm1.47949,4.02979a1.47193,1.47193,0,0,0,.52051-.08985,1.588,1.588,0,0,0,.41992-.23,1.52369,1.52369,0,0,0,.2998-.30517,1.472,1.472,0,0,0,.18067-.31494v-.7002a5.71506,5.71506,0,0,0-.96094-.08984,2.68471,2.68471,0,0,0-.75977.09521,1.06393,1.06393,0,0,0-.5.29492.74693.74693,0,0,0-.17968.52.82423.82423,0,0,0,.22461.57471A.98819.98819,0,0,0,82.75879,69.82764Z"/><path d="M87.249,70.40771v-.66992h1.74024V66.07764H87.249v-.66993H89.7793v4.33008h1.70019v.66992Zm1.46-6.41992a.66125.66125,0,0,1,.18067-.46484.59467.59467,0,0,1,.46-.19531.65555.65555,0,0,1,.48437.19531.63474.63474,0,0,1,.19532.46484.57671.57671,0,0,1-.19532.43994.68571.68571,0,0,1-.48437.18018.61985.61985,0,0,1-.46-.18018A.59868.59868,0,0,1,88.709,63.98779Z"/><path d="M93.12891,67.15771c0-.06-.001-.13818-.00489-.23486q-.0044-.145-.01464-.30029c-.00684-.103-.01563-.20508-.0254-.30469-.00976-.1001-.02148-.18652-.03515-.26025h-.66992v-.64991h1.33984l.09082.81006h.04981a1.699,1.699,0,0,1,.26464-.335,2.1162,2.1162,0,0,1,.38477-.30029,2.08257,2.08257,0,0,1,.49023-.21484,2.00454,2.00454,0,0,1,.57032-.08008,3.01759,3.01759,0,0,1,.81445.1001,1.24623,1.24623,0,0,1,.59082.355,1.65056,1.65056,0,0,1,.35449.68994,4.24416,4.24416,0,0,1,.12012,1.105v2.87011h-.79V67.69385a2.34013,2.34013,0,0,0-.26856-1.24707,1.07109,1.07109,0,0,0-.97656-.419,1.268,1.268,0,0,0-.5039.10449,1.76822,1.76822,0,0,0-.44336.27442,1.89936,1.89936,0,0,0-.34864.394,1.64714,1.64714,0,0,0-.21875.47412v3.13281h-.7705Z"/><path d="M102.58887,66.17773a4.04458,4.04458,0,0,0-.49512-.13525,2.60714,2.60714,0,0,0-.52441-.05469,2.03867,2.03867,0,0,0-1.46.46094,1.95256,1.95256,0,0,0-.48047,1.46387,2.07382,2.07382,0,0,0,.14062.78711,1.6079,1.6079,0,0,0,.39942.58691,1.80662,1.80662,0,0,0,.625.37061,2.37936,2.37936,0,0,0,.80566.13037,2.65078,2.65078,0,0,0,.915-.1626,2.30954,2.30954,0,0,0,.74414-.42725l.35059.58008a2.844,2.844,0,0,1-.35059.25,3.49114,3.49114,0,0,1-.48438.24512,3.34451,3.34451,0,0,1-.61035.18457,3.52913,3.52913,0,0,1-.72461.07031,3.26932,3.26932,0,0,1-1.1455-.18506,2.18342,2.18342,0,0,1-.8252-.53027,2.27019,2.27019,0,0,1-.5-.82959,3.23364,3.23364,0,0,1-.16992-1.0752,3.30707,3.30707,0,0,1,.17578-1.12011,2.156,2.156,0,0,1,.50488-.81983,2.19261,2.19261,0,0,1,.79981-.50488,2.989,2.989,0,0,1,1.0498-.17529,4.60394,4.60394,0,0,1,1.20508.12988,4.5201,4.5201,0,0,1,.78516.29l-.00977.03027v1.39014h-.7207Z"/><path d="M104.76855,67.90771a2.77,2.77,0,0,1,.62989-1.915,2.28821,2.28821,0,0,1,1.7998-.70508,2.62634,2.62634,0,0,1,1.085.20508,2.12758,2.12758,0,0,1,.75489.55517,2.25943,2.25943,0,0,1,.44531.83008,3.54213,3.54213,0,0,1,.14453,1.02978,3.42933,3.42933,0,0,1-.16016,1.085,2.24582,2.24582,0,0,1-.46972.82519,2.0788,2.0788,0,0,1-.76465.5249,2.73609,2.73609,0,0,1-1.03516.18506,2.63457,2.63457,0,0,1-1.08008-.20508,2.12048,2.12048,0,0,1-.75976-.55517,2.25538,2.25538,0,0,1-.44531-.83008A3.54215,3.54215,0,0,1,104.76855,67.90771Zm.83008,0a2.95825,2.95825,0,0,0,.084.7002,1.927,1.927,0,0,0,.27441.62988,1.42782,1.42782,0,0,0,.49317.44971,1.49871,1.49871,0,0,0,.74316.17041,1.45989,1.45989,0,0,0,1.20117-.49512,2.262,2.262,0,0,0,.40332-1.45508,2.986,2.986,0,0,0-.084-.70507,1.886,1.886,0,0,0-.2793-.625,1.47345,1.47345,0,0,0-.499-.44971,1.50015,1.50015,0,0,0-.74219-.17041,1.45062,1.45062,0,0,0-1.19629.49023A2.27659,2.27659,0,0,0,105.59863,67.90771Z"/><path d="M110.76855,67.90771a2.77,2.77,0,0,1,.62989-1.915,2.28821,2.28821,0,0,1,1.7998-.70508,2.62634,2.62634,0,0,1,1.085.20508,2.12758,2.12758,0,0,1,.75489.55517,2.25943,2.25943,0,0,1,.44531.83008,3.54213,3.54213,0,0,1,.14453,1.02978,3.42933,3.42933,0,0,1-.16016,1.085,2.24582,2.24582,0,0,1-.46972.82519,2.0788,2.0788,0,0,1-.76465.5249,2.73609,2.73609,0,0,1-1.03516.18506,2.63457,2.63457,0,0,1-1.08008-.20508,2.12048,2.12048,0,0,1-.75976-.55517,2.25538,2.25538,0,0,1-.44531-.83008A3.54215,3.54215,0,0,1,110.76855,67.90771Zm.83008,0a2.95825,2.95825,0,0,0,.084.7002,1.927,1.927,0,0,0,.27441.62988,1.42782,1.42782,0,0,0,.49317.44971,1.49871,1.49871,0,0,0,.74316.17041,1.45989,1.45989,0,0,0,1.20117-.49512,2.262,2.262,0,0,0,.40332-1.45508,2.986,2.986,0,0,0-.084-.70507,1.886,1.886,0,0,0-.2793-.625,1.47345,1.47345,0,0,0-.499-.44971,1.50015,1.50015,0,0,0-.74219-.17041,1.45062,1.45062,0,0,0-1.19629.49023A2.27659,2.27659,0,0,0,111.59863,67.90771Z"/><path d="M116.8584,70.40771v-.66992H118.208V66.07764H116.8584v-.66993h1.87012l.16015.64991h.04981a3.59,3.59,0,0,1,.75976-.52979,2.13148,2.13148,0,0,1,1-.22021,1.009,1.009,0,0,1,.54492.12988.86846.86846,0,0,1,.32032.38037,1.9831,1.9831,0,0,1,.15429.605,7.08916,7.08916,0,0,1,.04.80469l-.69922.01025a2.5798,2.5798,0,0,0-.125-.93261.4551.4551,0,0,0-.45507-.29737,1.64638,1.64638,0,0,0-.56055.08985,1.82787,1.82787,0,0,0-.43457.21923,2.357,2.357,0,0,0-.31543.25928,1.53825,1.53825,0,0,0-.18945.21924v2.94238h1.91992v.66992Z"/><path d="M125.67871,63.40771h1.62988v5.29c0,.06006.00293.13477.00977.2251.00684.08985.01465.18506.02441.28467q.01613.15015.03516.29541c.01367.09668.02734.18164.04.25488h.66992v.6499H126.749l-.10058-.77h-.04a1.76951,1.76951,0,0,1-.65332.63525,1.94125,1.94125,0,0,1-1.00293.25488,2.048,2.048,0,0,1-1.66016-.63525,3.033,3.033,0,0,1-.53418-1.9751,3.21206,3.21206,0,0,1,.17969-1.11475,2.16108,2.16108,0,0,1,.51367-.81005,2.23009,2.23009,0,0,1,.80274-.49512,3.05919,3.05919,0,0,1,1.04785-.16992c.13965,0,.26367.00341.374.01025.10938.00635.21094.0166.30371.02979a2.07325,2.07325,0,0,1,.26465.05517c.083.02344.17481.04834.27441.07471V64.07764h-.83984Zm-.5957,6.4502a1.37364,1.37364,0,0,0,.957-.31543,1.69453,1.69453,0,0,0,.47851-.94482V66.27783a1.54661,1.54661,0,0,0-.49316-.22021,3.03982,3.03982,0,0,0-.72266-.06983,1.6822,1.6822,0,0,0-1.25585.46485,2.02,2.02,0,0,0-.459,1.46484,3.7099,3.7099,0,0,0,.0752.76514,1.73353,1.73353,0,0,0,.249.61523,1.22475,1.22475,0,0,0,.46289.40967A1.52382,1.52382,0,0,0,125.083,69.85791Z"/><path d="M129.24805,70.40771v-.66992h1.74023V66.07764h-1.74023v-.66993h2.53027v4.33008h1.7002v.66992Zm1.46-6.41992a.66124.66124,0,0,1,.18066-.46484.59467.59467,0,0,1,.46-.19531.65559.65559,0,0,1,.48438.19531.63477.63477,0,0,1,.19531.46484.57673.57673,0,0,1-.19531.43994.68575.68575,0,0,1-.48438.18018.61985.61985,0,0,1-.46-.18018A.59867.59867,0,0,1,130.708,63.98779Z"/><path d="M135.12793,67.15771c0-.06-.001-.13818-.00488-.23486q-.0044-.145-.01465-.30029c-.00684-.103-.01563-.20508-.02539-.30469-.00977-.1001-.02149-.18652-.03516-.26025h-.66992v-.64991h1.33984l.09082.81006h.04981a1.69875,1.69875,0,0,1,.26465-.335,2.11612,2.11612,0,0,1,.38476-.30029,2.08246,2.08246,0,0,1,.49024-.21484,2.00442,2.00442,0,0,1,.57031-.08008,3.01759,3.01759,0,0,1,.81445.1001,1.24614,1.24614,0,0,1,.59082.355,1.65045,1.65045,0,0,1,.35449.68994,4.24416,4.24416,0,0,1,.12012,1.105v2.87011h-.79V67.69385a2.34023,2.34023,0,0,0-.26855-1.24707,1.0711,1.0711,0,0,0-.97656-.419,1.268,1.268,0,0,0-.50391.10449,1.76822,1.76822,0,0,0-.44336.27442,1.89961,1.89961,0,0,0-.34863.394,1.64714,1.64714,0,0,0-.21875.47412v3.13281h-.77051Z"/><path d="M141.27832,65.79785a3.19067,3.19067,0,0,1,.96973-.36035,5.31639,5.31639,0,0,1,1.06054-.10986,1.89591,1.89591,0,0,1,.835.16015,1.35471,1.35471,0,0,1,.50977.415,1.47506,1.47506,0,0,1,.25.58008,3.35255,3.35255,0,0,1,.06445.65479c0,.25341-.00586.52343-.01953.81005s-.02344.57325-.03027.85987a7.18637,7.18637,0,0,0,.06055.95019h.66992v.6499h-1.32129l-.08887-.75h-.0498a2.75072,2.75072,0,0,1-.18067.23,1.66161,1.66161,0,0,1-.3164.2749,2.02632,2.02632,0,0,1-.47657.23535,1.97647,1.97647,0,0,1-.66211.09961,1.71082,1.71082,0,0,1-1.17285-.37988,1.31345,1.31345,0,0,1-.43164-1.04,1.507,1.507,0,0,1,.22559-.8501,1.42332,1.42332,0,0,1,.64746-.52,2.97727,2.97727,0,0,1,1.01758-.21,6.87024,6.87024,0,0,1,1.33984.08008,3.545,3.545,0,0,0,.01465-.76514,1.05974,1.05974,0,0,0-.16016-.48486.67308.67308,0,0,0-.35156-.25489,1.78817,1.78817,0,0,0-.55664-.07519,2.96229,2.96229,0,0,0-.86328.125q-.41163.12524-.73242.25537Zm1.47949,4.02979a1.47189,1.47189,0,0,0,.52051-.08985,1.58789,1.58789,0,0,0,.41992-.23,1.524,1.524,0,0,0,.29981-.30517,1.47234,1.47234,0,0,0,.18066-.31494v-.7002a5.71506,5.71506,0,0,0-.96094-.08984,2.68463,2.68463,0,0,0-.75976.09521,1.06388,1.06388,0,0,0-.5.29492.74688.74688,0,0,0-.17969.52.82427.82427,0,0,0,.22461.57471A.98819.98819,0,0,0,142.75781,69.82764Z"/><path d="M146.50781,65.40771h1.19043v-.99023l.79-.21973v1.21h2.66992v.66993h-2.66992V68.4375a1.46306,1.46306,0,0,0,.35352,1.08008,1.3785,1.3785,0,0,0,1.01172.3501,1.70351,1.70351,0,0,0,.78222-.16993,4.23063,4.23063,0,0,0,.60352-.37011l.25879.58984a2.80633,2.80633,0,0,1-.835.4502,2.9895,2.9895,0,0,1-.99512.16992,2.43322,2.43322,0,0,1-.75488-.11475,1.73806,1.73806,0,0,1-.625-.355,1.70286,1.70286,0,0,1-.42969-.61523,2.27623,2.27623,0,0,1-.16016-.895v-2.48h-1.19043Z"/><path d="M152.76855,67.90771a2.77,2.77,0,0,1,.62989-1.915,2.28821,2.28821,0,0,1,1.7998-.70508,2.62634,2.62634,0,0,1,1.085.20508,2.12758,2.12758,0,0,1,.75489.55517,2.25943,2.25943,0,0,1,.44531.83008,3.54213,3.54213,0,0,1,.14453,1.02978,3.42933,3.42933,0,0,1-.16016,1.085,2.24582,2.24582,0,0,1-.46972.82519,2.0788,2.0788,0,0,1-.76465.5249,2.73609,2.73609,0,0,1-1.03516.18506,2.63457,2.63457,0,0,1-1.08008-.20508,2.12048,2.12048,0,0,1-.75976-.55517,2.25538,2.25538,0,0,1-.44531-.83008A3.54215,3.54215,0,0,1,152.76855,67.90771Zm.83008,0a2.95825,2.95825,0,0,0,.084.7002,1.927,1.927,0,0,0,.27441.62988,1.42782,1.42782,0,0,0,.49317.44971,1.49871,1.49871,0,0,0,.74316.17041,1.45989,1.45989,0,0,0,1.20117-.49512,2.262,2.262,0,0,0,.40332-1.45508,2.986,2.986,0,0,0-.084-.70507,1.886,1.886,0,0,0-.2793-.625,1.47345,1.47345,0,0,0-.499-.44971,1.50015,1.50015,0,0,0-.74219-.17041,1.45062,1.45062,0,0,0-1.19629.49023A2.27659,2.27659,0,0,0,153.59863,67.90771Z"/><path d="M158.8584,70.40771v-.66992H160.208V66.07764H158.8584v-.66993h1.87012l.16015.64991h.04981a3.59,3.59,0,0,1,.75976-.52979,2.13148,2.13148,0,0,1,1-.22021,1.009,1.009,0,0,1,.54492.12988.86846.86846,0,0,1,.32032.38037,1.9831,1.9831,0,0,1,.15429.605,7.08916,7.08916,0,0,1,.04.80469l-.69922.01025a2.5798,2.5798,0,0,0-.125-.93261.4551.4551,0,0,0-.45507-.29737,1.64638,1.64638,0,0,0-.56055.08985,1.82787,1.82787,0,0,0-.43457.21923,2.357,2.357,0,0,0-.31543.25928,1.53825,1.53825,0,0,0-.18945.21924v2.94238h1.91992v.66992Z"/><path d="M2.09277,46.67773,1.751,48.04932l.00683.0166,1.17774-.70215.24218.5625-1.3125.38769.00684.01661,1.2207.65088-.39355.522-.99414-.94483-.01563.00733-.03613,1.397-.59961-.09521.35156-1.34717-.00683-.0166L.24219,49.1875,0,48.625l1.28418-.36523-.00781-.01661-1.21094-.6748.37988-.50684,1.00684.92969.0166-.00683.00684-1.375Z"/><path d="M8.50977,50.12207a2.90147,2.90147,0,0,1-1.04883.72559,2.07054,2.07054,0,0,1-2.87207-1.18653,2.21369,2.21369,0,0,1,1.2373-3.04931,2.64485,2.64485,0,0,1,1.09766-.227L7,47.01855a1.82347,1.82347,0,0,0-.9248.17188,1.508,1.508,0,0,0-.76368,2.12207,1.49419,1.49419,0,0,0,2.03321.89941,2.25746,2.25746,0,0,0,.80761-.582Z"/><path d="M8.24121,47.15137c-.20215-.47168-.38476-.87354-.56933-1.23438l.63671-.27441.36329.77539.03222-.01416a1.30572,1.30572,0,0,1,.73145-1.353.83.83,0,0,1,.21777-.06348l.29492.68555a1.23773,1.23773,0,0,0-.25879.082,1.11152,1.11152,0,0,0-.57422,1.3545,2.09663,2.09663,0,0,0,.11231.353l.917,2.13428-.71973.30908Z"/><path d="M15.00977,46.2124c.17773.41358.34277.77393.502,1.07764l-.64453.27734-.32227-.63574-.0166.00684A1.64012,1.64012,0,0,1,13.52539,48.252c-.62891.27-1.53125.2461-2.13574-1.16015L10.38379,44.751l.72851-.3125.95215,2.21679c.32715.76075.7793,1.17383,1.44043.88965a1.14585,1.14585,0,0,0,.67578-1.07422,1.16686,1.16686,0,0,0-.09472-.40039l-1.05469-2.45654.72852-.313Z"/><path d="M15.43066,43.86621c-.17773-.41357-.331-.749-.499-1.06933l.64551-.27735.32519.644.01758-.00732a1.6015,1.6015,0,0,1,1-1.32129c.55371-.23828,1.55664-.27685,2.14649,1.09668l1.02734,2.39014-.72852.313L18.374,43.32715c-.27734-.64551-.748-1.08057-1.43554-.78516a1.16376,1.16376,0,0,0-.55957,1.52442l1.03418,2.40722-.72754.3125Z"/><path d="M24.06445,43.439a2.91689,2.91689,0,0,1-1.05078.7251,2.06933,2.06933,0,0,1-2.87109-1.186,2.2137,2.2137,0,0,1,1.2373-3.04932,2.64805,2.64805,0,0,1,1.09864-.22754l.07617.63379a1.82531,1.82531,0,0,0-.92578.17188,1.64307,1.64307,0,0,0,1.26953,3.022,2.25185,2.25185,0,0,0,.80761-.58252Z"/><path d="M22.45508,37.34961l.72754-.3125,1.07324,2.498.01758-.00684a1.47265,1.47265,0,0,1,.2998-.7373,1.63643,1.63643,0,0,1,.65528-.52686c.53808-.231,1.541-.26953,2.13378,1.11182l1.02442,2.38232-.72852.3125-.98828-2.2998c-.27637-.645-.752-1.08741-1.4375-.79248a1.13611,1.13611,0,0,0-.66308,1.147.94285.94285,0,0,0,.09863.36865l1.03808,2.416-.72753.3125Z"/><path d="M29.37109,34.95605l-.34179,1.37159.00781.0166,1.17773-.70215.24219.5625-1.31348.3877.00684.0166,1.2207.65088-.39257.522-.99414-.94434-.01563.00684-.03711,1.397-.59961-.09473.35254-1.34765-.00781-.0166-1.15528.68359-.24218-.5625,1.2832-.36523-.00781-.01661-1.21094-.6748.37988-.50586,1.00684.9292.0166-.00732.00781-1.375Z"/><path class="cls-13" d="M48.52637,21.70117l-1.24512.66992-.00684.01563,1.31153.39941-.25293.55762-1.1709-.71094-.00684.0166.33887,1.34082-.65137.06055.03125-1.37109-.01562-.00684-1.0586.91211-.334-.50684,1.23438-.64648L46.707,22.416l-1.2832-.39649.25293-.55664,1.13476.70313.00684-.01661-.31543-1.34961.63086-.05957-.01074,1.37012.0166.00781,1.02148-.91992Z"/><path class="cls-13" d="M50.29492,28.7666a2.92012,2.92012,0,0,1-1.24316-.28906,2.07092,2.07092,0,0,1-1.05469-2.92285A2.21512,2.21512,0,0,1,51.08691,24.419a2.66425,2.66425,0,0,1,.90625.65917l-.418.48243a1.83051,1.83051,0,0,0-.75-.56836,1.64257,1.64257,0,0,0-1.38086,2.97168,2.242,2.242,0,0,0,.97363.20605Z"/><path class="cls-13" d="M52.31152,26.56836c.21289-.4668.3877-.87207.53028-1.25195l.63183.28711-.33008.79.03223.01465a1.30569,1.30569,0,0,1,1.49317-.36914.85966.85966,0,0,1,.19335.11719l-.30859.68066a1.17881,1.17881,0,0,0-.23437-.13574,1.11111,1.11111,0,0,0-1.38868.48535,2.25385,2.25385,0,0,0-.18554.32129l-.96192,2.11426-.71289-.32519Z"/><path class="cls-13" d="M57.56055,30.94434c-.18653.41015-.34278.77441-.46,1.09668l-.63868-.291.25293-.666-.01562-.00683a1.64253,1.64253,0,0,1-1.64746.1416c-.623-.28418-1.21192-.96777-.57813-2.36035l1.05469-2.31934.72266.32813-.999,2.19629c-.34277.7539-.3457,1.36621.30957,1.66406a1.14831,1.14831,0,0,0,1.25-.22266A1.169,1.169,0,0,0,57.044,30.166l1.10742-2.4336.72168.32813Z"/><path class="cls-13" d="M59.5791,29.67773c.18652-.41015.33106-.749.45508-1.08886l.63965.291-.25684.67481.01563.00683a1.60224,1.60224,0,0,1,1.65039-.14941,1.58055,1.58055,0,0,1,.63281,2.32617l-1.07715,2.36817-.7207-.32813,1.04-2.28613c.291-.63867.2959-1.2793-.38477-1.58985a1.16229,1.16229,0,0,0-1.5039.61133L58.9834,32.89844l-.7207-.32813Z"/><path class="cls-13" d="M65.70312,35.77734A2.92015,2.92015,0,0,1,64.46,35.48828a2.07,2.07,0,0,1-1.05371-2.92187,2.21472,2.21472,0,0,1,3.08887-1.13672,2.6446,2.6446,0,0,1,.90625.66015l-.417.48243a1.84238,1.84238,0,0,0-.751-.56934,1.64307,1.64307,0,0,0-1.38086,2.97266,2.25539,2.25539,0,0,0,.97363.20507Z"/><path class="cls-13" d="M69.126,30.49023l.7207.32813L68.7207,33.293l.0166.00781a1.4771,1.4771,0,0,1,.74708-.27344,1.63587,1.63587,0,0,1,.83105.13086c.5332.24219,1.23535.958.61328,2.32618l-1.07422,2.36035-.7207-.32813,1.03711-2.27832c.29-.63867.29785-1.28808-.38184-1.59766a1.13538,1.13538,0,0,0-1.29394.28223.93213.93213,0,0,0-.207.32129L67.2002,36.63672l-.72168-.32813Z"/><path class="cls-13" d="M75.55078,33.99805l-1.24512.66992-.00781.01562,1.3125.39942-.2539.55761-1.16993-.71093-.00781.0166.33984,1.34082-.65039.06055.0293-1.3711-.01562-.00781-1.05762.91309-.334-.50684,1.2334-.64648.00782-.01563-1.28321-.39648.25391-.55664,1.13281.70312.00781-.0166-.3164-1.34961.63086-.05957-.00977,1.37012.01563.00781,1.02246-.91992Z"/><path class="cls-14" d="M15.71484,7.14062l-.56738,1.29493.00488.0166,1.2793-.49414.14356.5957-1.36036.16113.00489.01758,1.09375.84668-.47559.44922L15.0166,8.92969,15,8.93359l-.27051,1.3711-.57519-.19434.57324-1.26855-.00391-.01758-1.25488.47949L13.3252,8.709l1.32617-.1455-.00391-.01758-1.08105-.86817.46093-.43554.83594,1.08593.01758-.00488.2373-1.35449Z"/><path class="cls-14" d="M21.46191,11.61523a2.92347,2.92347,0,0,1-1.15722.53809A2.07,2.07,0,0,1,17.67383,10.502a2.215,2.215,0,0,1,1.73242-2.79883,2.63731,2.63731,0,0,1,1.12109-.03906l-.03222.6377a1.821,1.821,0,0,0-.94043.01367,1.50711,1.50711,0,0,0-1.10938,1.96289,1.49314,1.49314,0,0,0,1.85254,1.22852,2.25865,2.25865,0,0,0,.89356-.4375Z"/><path class="cls-14" d="M21.69629,8.64062c-.12012-.499-.23242-.9248-.35449-1.3125l.67382-.16308.22852.82519.0332-.00781a1.30757,1.30757,0,0,1,.9502-1.21094.82037.82037,0,0,1,.22461-.02636l.1748.72558a1.26745,1.26745,0,0,0-.26855.03711,1.11211,1.11211,0,0,0-.79395,1.23828,2.267,2.267,0,0,0,.05176.36719l.54492,2.25879-.76074.18359Z"/><path class="cls-14" d="M28.52734,8.85352c.10547.4375.207.82031.3125,1.14648l-.68261.165-.21-.68164-.01758.00488a1.63978,1.63978,0,0,1-1.21,1.126c-.665.16015-1.55078-.01465-1.91016-1.50293l-.59766-2.47656.77051-.18555.56641,2.3457c.19531.80469.57031,1.28809,1.27051,1.11914a1.14651,1.14651,0,0,0,.84668-.94531,1.16953,1.16953,0,0,0-.02637-.41113L27.01172,5.959l.77148-.18652Z"/><path class="cls-14" d="M29.33594,6.61133c-.10547-.4375-.20117-.79395-.3125-1.1377l.68359-.165.21192.68946.01855-.00391a1.59875,1.59875,0,0,1,1.208-1.13476c.585-.14161,1.58008-.01172,1.93066,1.4414l.61133,2.5293-.77051.18554-.58887-2.4414c-.165-.68262-.55566-1.19043-1.2832-1.01465a1.12465,1.12465,0,0,0-.8418,1.03711,1.14765,1.14765,0,0,0,.03321.37109l.61523,2.54688L30.082,9.7002Z"/><path class="cls-14" d="M37.918,7.6416a2.93064,2.93064,0,0,1-1.15723.53809,2.06962,2.06962,0,0,1-2.63086-1.65137A2.2137,2.2137,0,0,1,35.8623,3.72949a2.63265,2.63265,0,0,1,1.12012-.03906l-.03027.63769a1.82888,1.82888,0,0,0-.94238.01368,1.50836,1.50836,0,0,0-1.10938,1.96289A1.49441,1.49441,0,0,0,36.75391,7.5332a2.25847,2.25847,0,0,0,.89355-.4375Z"/><path class="cls-14" d="M37.35547,1.36816l.76953-.18652.63867,2.64356.01758-.00391a1.48106,1.48106,0,0,1,.41992-.67578,1.6271,1.6271,0,0,1,.73535-.40918c.56836-.1377,1.56348-.00684,1.916,1.4541l.6084,2.52051-.76953.18652-.58789-2.43359c-.165-.68262-.5586-1.19825-1.28418-1.02344A1.13808,1.13808,0,0,0,38.97266,4.46a.93312.93312,0,0,0,.03613.37988L39.626,7.39551l-.77051.18652Z"/><path class="cls-14" d="M44.57617.1709l-.56738,1.29492.00488.01758L45.292.98926l.14356.5957-1.35938.16113.00488.01758,1.09278.84668-.47461.44922-.82129-1.09863-.01758.0039-.27051,1.3711-.57519-.19434.57324-1.26855L43.584,1.85547l-1.2539.47949-.14356-.5957,1.32618-.14453-.00489-.01758L42.42676.709l.46-.43554.83691,1.085.0166-.00391L43.97852,0Z"/><path class="cls-15" d="M17.33154,61.12167a16.97028,16.97028,0,0,0-2.07373,1.38858"/><path class="cls-16" d="M12.80725,64.85324a16.86354,16.86354,0,0,0-2.68262,4.31284"/><path class="cls-15" d="M9.533,70.76031a16.96494,16.96494,0,0,0-.57446,2.43012"/><path class="cls-15" d="M61.15381,76.043a16.92162,16.92162,0,0,0-.10816-1.99579"/><path class="cls-17" d="M60.226,70.41846a16.86622,16.86622,0,0,0-2.6643-4.89856"/><path class="cls-15" d="M56.33325,64.11569A16.95679,16.95679,0,0,0,54.85767,62.772"/><path class="cls-18" d="M42.95471,51.6795a20.11362,20.11362,0,0,1,.60462-5.43014A10.7924,10.7924,0,0,1,46.192,41.32883a8.31189,8.31189,0,0,1,2.3601-1.5849,14.348,14.348,0,0,0,2.29322-1.26023,4.04349,4.04349,0,0,0,1.49279-1.96411,5.15724,5.15724,0,0,0,.12708-2.60974,4.81636,4.81636,0,0,1,.34741,2.733,4.34678,4.34678,0,0,1-1.47656,2.44757c-1.474,1.28345-3.31213,1.71729-4.44226,2.95a11.67868,11.67868,0,0,0-2.59168,4.438A40.84254,40.84254,0,0,0,42.95471,51.6795Z"/><path class="cls-19" d="M27.86938,53.23151a3.58405,3.58405,0,0,1-2.3728-.23862,2.02767,2.02767,0,0,1-.95019-1.01138,3.3793,3.3793,0,0,1-.15088-1.2847,3.13934,3.13934,0,0,0-.51441-1.85117,11.06558,11.06558,0,0,0-1.426-1.67132,4.36241,4.36241,0,0,1,2.03955,1.18911,3.34992,3.34992,0,0,1,.68616,1.07163,3.57682,3.57682,0,0,1,.21411,1.26858,2.9972,2.9972,0,0,0,.03772.952,1.40646,1.40646,0,0,0,.48279.68243A6.628,6.628,0,0,0,27.86938,53.23151Z"/><path class="cls-20" d="M36.59839,53.23151a35.22232,35.22232,0,0,1-.62708-5.2482,37.81047,37.81047,0,0,1,.19361-5.3046,30.96194,30.96194,0,0,1,1.00891-5.23279c.48059-1.715,1.14209-3.35925,1.60644-5.01019a17.531,17.531,0,0,0-.17236-10.1145,26.86553,26.86553,0,0,0-1.95654-4.81717,49.10451,49.10451,0,0,0-2.632-4.54526,29.93289,29.93289,0,0,1,5.32117,9.128,18.48459,18.48459,0,0,1,1.04687,5.26563,16.55163,16.55163,0,0,1-.64587,5.35681c-.50769,1.72476-1.16492,3.34433-1.66211,5.0036A36.83757,36.83757,0,0,0,36.924,42.77911,44.54606,44.54606,0,0,0,36.59839,53.23151Z"/><path class="cls-12" d="M29.7207,148.28223a2.91151,2.91151,0,0,1-1.251.25195,2.07,2.07,0,0,1-2.16993-2.22363,2.21449,2.21449,0,0,1,2.34082-2.31348,2.63952,2.63952,0,0,1,1.09864.22559l-.17969.6123a1.83445,1.83445,0,0,0-.919-.208,1.6429,1.6429,0,0,0-.02636,3.27735,2.25557,2.25557,0,0,0,.97168-.21582Z"/><path class="cls-12" d="M34.53613,146.22949a2.12974,2.12974,0,0,1-2.16992,2.31446,2.07174,2.07174,0,0,1-2.08887-2.24219,2.1277,2.1277,0,0,1,2.16114-2.31348A2.06345,2.06345,0,0,1,34.53613,146.22949Zm-3.457.0459c0,.9541.54883,1.67383,1.32324,1.67383.75586,0,1.32325-.71094,1.32325-1.69238,0-.73829-.36914-1.67481-1.30567-1.67481C31.48438,144.582,31.0791,145.44629,31.0791,146.27539Z"/><path class="cls-12" d="M39.47754,146.22949a2.12974,2.12974,0,0,1-2.16992,2.31446,2.07174,2.07174,0,0,1-2.08887-2.24219,2.12769,2.12769,0,0,1,2.16113-2.31348A2.06345,2.06345,0,0,1,39.47754,146.22949Zm-3.457.0459c0,.9541.54883,1.67383,1.32324,1.67383.75586,0,1.32324-.71094,1.32324-1.69238,0-.73829-.36914-1.67481-1.30566-1.67481C36.42578,144.582,36.02051,145.44629,36.02051,146.27539Z"/><path class="cls-12" d="M40.47559,145.44629c0-.5127-.00879-.9541-.03614-1.35938h.69336l.02735.85547h.03515a1.30826,1.30826,0,0,1,1.207-.9541.82768.82768,0,0,1,.22461.02734v.74708a1.1567,1.1567,0,0,0-.26953-.02735,1.11126,1.11126,0,0,0-1.0625,1.01758,2.16888,2.16888,0,0,0-.03613.36914v2.32227h-.7832Z"/><path class="cls-12" d="M47.09082,142.05273v5.26661c0,.38671.00977.82812.03613,1.125H46.416l-.03614-.75586H46.3623a1.61185,1.61185,0,0,1-1.48535.85547,1.987,1.987,0,0,1-1.86425-2.21485,2.08494,2.08494,0,0,1,1.9541-2.34082,1.45841,1.45841,0,0,1,1.31445.666h.01758v-2.60157Zm-.792,3.80762a1.38634,1.38634,0,0,0-.03613-.333,1.16475,1.16475,0,0,0-1.14258-.918c-.81934,0-1.30567.7207-1.30567,1.68359,0,.88183.43164,1.61133,1.28711,1.61133a1.18973,1.18973,0,0,0,1.16114-.94532,1.35523,1.35523,0,0,0,.03613-.34179Z"/><path class="cls-12" d="M49.28613,142.86328a.49026.49026,0,0,1-.98047,0,.48257.48257,0,0,1,.49512-.49512A.46958.46958,0,0,1,49.28613,142.86328Zm-.88183,5.58106v-4.35743h.792v4.35743Z"/><path class="cls-12" d="M50.50977,145.2666c0-.45019-.00879-.81933-.03614-1.17969h.70215l.04492.72071h.01856a1.60158,1.60158,0,0,1,1.44043-.81934c.60254,0,1.53906.36035,1.53906,1.85449v2.60157h-.792v-2.51172c0-.70215-.26172-1.28711-1.00879-1.28711a1.16458,1.16458,0,0,0-1.11621,1.17969v2.61914h-.792Z"/><path class="cls-12" d="M57.918,148.44434l-.06348-.54883h-.02734a1.622,1.622,0,0,1-1.332.64844,1.2414,1.2414,0,0,1-1.332-1.252c0-1.05273.93554-1.6289,2.61914-1.62011V145.582a.89827.89827,0,0,0-.99024-1.00879,2.16591,2.16591,0,0,0-1.13379.32422l-.18066-.52246a2.71255,2.71255,0,0,1,1.43164-.38672c1.332,0,1.65625.90918,1.65625,1.78223v1.62988a6.15928,6.15928,0,0,0,.07227,1.044Zm-.11719-2.22364c-.86426-.01758-1.8457.13477-1.8457.98145a.70033.70033,0,0,0,.74707.75586,1.08381,1.08381,0,0,0,1.05371-.72852.84569.84569,0,0,0,.04492-.25195Z"/><path class="cls-12" d="M60.76074,142.83594v1.251h1.13477v.60352H60.76074V147.04c0,.54.15332.84668.59473.84668a1.744,1.744,0,0,0,.459-.05469l.03614.59473a1.95545,1.95545,0,0,1-.70215.10742,1.0949,1.0949,0,0,1-.85547-.333,1.60971,1.60971,0,0,1-.30664-1.13379v-2.377h-.67481v-.60352h.67481V143.043Z"/><path class="cls-12" d="M63.17383,146.41016a1.39581,1.39581,0,0,0,1.49414,1.51269,2.86169,2.86169,0,0,0,1.20605-.22558l.13575.56738a3.53684,3.53684,0,0,1-1.4502.26953,2.02336,2.02336,0,0,1-2.14258-2.19629,2.11534,2.11534,0,0,1,2.04395-2.34961,1.84583,1.84583,0,0,1,1.80078,2.05274,3.01921,3.01921,0,0,1-.02734.36914Zm2.32226-.56739a1.128,1.128,0,0,0-1.09863-1.28711,1.31245,1.31245,0,0,0-1.21484,1.28711Z"/><path class="cls-12" d="M67.13281,147.63477a2.08539,2.08539,0,0,0,1.04492.31445c.57618,0,.84571-.28809.84571-.64844,0-.37793-.22461-.585-.80957-.80078-.78321-.2793-1.15235-.71094-1.15235-1.2334a1.34325,1.34325,0,0,1,1.50293-1.27832,2.16867,2.16867,0,0,1,1.07129.27051l-.19824.57617a1.6881,1.6881,0,0,0-.89062-.25293c-.46876,0-.7295.27051-.7295.59473,0,.36035.26074.52246.82813.73828.75586.28808,1.14355.666,1.14355,1.31445,0,.76465-.59472,1.30469-1.62988,1.30469a2.47574,2.47574,0,0,1-1.22363-.29688Z"/><path class="cls-12" d="M29.7207,159.082a2.91136,2.91136,0,0,1-1.251.25195,2.07,2.07,0,0,1-2.16993-2.22363,2.21448,2.21448,0,0,1,2.34082-2.31347,2.63954,2.63954,0,0,1,1.09864.22558l-.17969.61231a1.83445,1.83445,0,0,0-.919-.208,1.64289,1.64289,0,0,0-.02636,3.27734,2.25557,2.25557,0,0,0,.97168-.21582Z"/><path class="cls-12" d="M34.53613,157.0293a2.12974,2.12974,0,0,1-2.16992,2.31445,2.07174,2.07174,0,0,1-2.08887-2.24219,2.12769,2.12769,0,0,1,2.16114-2.31347A2.06345,2.06345,0,0,1,34.53613,157.0293Zm-3.457.0459c0,.9541.54883,1.67382,1.32324,1.67382.75586,0,1.32325-.71093,1.32325-1.69238,0-.73828-.36914-1.6748-1.30567-1.6748C31.48438,155.38184,31.0791,156.24609,31.0791,157.0752Z"/><path class="cls-12" d="M35.53418,156.24609c0-.51269-.00879-.9541-.03613-1.35937h.69336l.02734.85547h.03516a1.30826,1.30826,0,0,1,1.207-.9541.82773.82773,0,0,1,.22461.02734v.74707a1.15734,1.15734,0,0,0-.26953-.02734,1.11125,1.11125,0,0,0-1.0625,1.01757,2.168,2.168,0,0,0-.03614.36915v2.32226h-.7832Z"/><path class="cls-12" d="M38.5127,156.24609c0-.51269-.00879-.9541-.03614-1.35937h.69336l.02735.85547h.03515a1.30826,1.30826,0,0,1,1.207-.9541.82768.82768,0,0,1,.22461.02734v.74707a1.15728,1.15728,0,0,0-.26953-.02734,1.11126,1.11126,0,0,0-1.0625,1.01757,2.1691,2.1691,0,0,0-.03613.36915v2.32226h-.7832Z"/><path class="cls-12" d="M41.80762,157.21a1.39581,1.39581,0,0,0,1.49414,1.5127,2.86151,2.86151,0,0,0,1.206-.22559l.13574.56738a3.53657,3.53657,0,0,1-1.45019.26953,2.02335,2.02335,0,0,1-2.14258-2.19628,2.11533,2.11533,0,0,1,2.04395-2.34961,1.84583,1.84583,0,0,1,1.80078,2.05273,3.0164,3.0164,0,0,1-.02735.36914Zm2.32226-.56738a1.128,1.128,0,0,0-1.09863-1.28711,1.31244,1.31244,0,0,0-1.21484,1.28711Z"/><path class="cls-12" d="M48.98047,159.082a2.91142,2.91142,0,0,1-1.251.25195,2.07,2.07,0,0,1-2.16992-2.22363,2.21448,2.21448,0,0,1,2.34082-2.31347,2.63953,2.63953,0,0,1,1.09863.22558l-.17968.61231a1.83447,1.83447,0,0,0-.91895-.208,1.64289,1.64289,0,0,0-.02637,3.27734,2.25557,2.25557,0,0,0,.97168-.21582Z"/><path class="cls-12" d="M50.97852,153.63574v1.251h1.13476v.60351H50.97852v2.34961c0,.54.15332.84668.59472.84668a1.74456,1.74456,0,0,0,.459-.05468l.03613.59472a1.95541,1.95541,0,0,1-.70215.10742,1.09493,1.09493,0,0,1-.85547-.333,1.60978,1.60978,0,0,1-.30664-1.13379v-2.377h-.6748v-.60351h.6748v-1.04395Z"/><path class="cls-12" d="M53.88477,153.66309a.49026.49026,0,0,1-.98047,0,.48256.48256,0,0,1,.49511-.49512A.46959.46959,0,0,1,53.88477,153.66309Zm-.88184,5.581v-4.35742h.792v4.35742Z"/><path class="cls-12" d="M59.05176,157.0293a2.12974,2.12974,0,0,1-2.16992,2.31445,2.07174,2.07174,0,0,1-2.08887-2.24219,2.12769,2.12769,0,0,1,2.16113-2.31347A2.06345,2.06345,0,0,1,59.05176,157.0293Zm-3.457.0459c0,.9541.54882,1.67382,1.32324,1.67382.75586,0,1.32324-.71093,1.32324-1.69238,0-.73828-.36914-1.6748-1.30566-1.6748C56,155.38184,55.59473,156.24609,55.59473,157.0752Z"/><path class="cls-12" d="M60.0498,156.06641c0-.4502-.00878-.81934-.03613-1.17969h.70215l.04492.7207h.01856a1.60159,1.60159,0,0,1,1.44043-.81933c.60254,0,1.53906.36035,1.53906,1.85449v2.60156h-.792v-2.51172c0-.70215-.26075-1.28711-1.00879-1.28711A1.16456,1.16456,0,0,0,60.8418,156.625v2.61914h-.792Z"/><path class="cls-12" d="M64.93652,158.43457a2.08539,2.08539,0,0,0,1.04493.31445c.57617,0,.8457-.28808.8457-.64843,0-.37793-.22461-.585-.80957-.80079-.7832-.27929-1.15235-.71093-1.15235-1.23339a1.34325,1.34325,0,0,1,1.50293-1.27832,2.16868,2.16868,0,0,1,1.07129.2705l-.19824.57618a1.6881,1.6881,0,0,0-.89062-.25293c-.46875,0-.7295.2705-.7295.59472,0,.36035.26075.52246.82813.73828.75586.28809,1.14355.666,1.14355,1.31446,0,.76465-.59472,1.30468-1.62988,1.30468a2.47585,2.47585,0,0,1-1.22363-.29687Z"/><path class="cls-12" d="M27.49707,164.46289a.49025.49025,0,0,1-.98047,0,.48256.48256,0,0,1,.49512-.49512A.46959.46959,0,0,1,27.49707,164.46289Zm-.88184,5.582V165.6875h.792v4.35742Z"/><path class="cls-12" d="M28.7207,166.86719c0-.4502-.00879-.81934-.03613-1.17969h.70215l.04492.71973h.01856a1.60157,1.60157,0,0,1,1.44042-.81934c.60254,0,1.53907.36035,1.53907,1.85547v2.60156h-.792V167.5332c0-.70215-.26172-1.28808-1.00879-1.28808a1.12491,1.12491,0,0,0-1.06153.81054,1.13892,1.13892,0,0,0-.05468.36914v2.62012h-.792Z"/><path class="cls-12" d="M33.60742,169.23438a2.0758,2.0758,0,0,0,1.04492.31542c.57618,0,.84571-.28808.84571-.64843,0-.37793-.22461-.585-.80957-.80176-.78321-.27832-1.15235-.71094-1.15235-1.23242a1.34337,1.34337,0,0,1,1.50293-1.2793,2.1791,2.1791,0,0,1,1.07129.27051l-.19824.57617a1.689,1.689,0,0,0-.89063-.252c-.46875,0-.72949.26953-.72949.59375,0,.36035.26074.52246.82813.73828.75586.28808,1.14355.666,1.14355,1.31445,0,.76563-.59472,1.30567-1.62988,1.30567a2.4863,2.4863,0,0,1-1.22363-.29688Z"/><path class="cls-12" d="M38.23438,164.43555v1.25195h1.13476v.60352H38.23438v2.3496c0,.54.15332.84571.59472.84571a1.753,1.753,0,0,0,.459-.05371l.03613.59375a1.93069,1.93069,0,0,1-.70215.1084,1.09827,1.09827,0,0,1-.85547-.333A1.61254,1.61254,0,0,1,37.46,168.667v-2.376h-.6748v-.60352H37.46v-1.04492Z"/><path class="cls-12" d="M40.25879,167.04688c0-.51368-.00879-.95411-.03613-1.35938H40.916l.02734.85547h.03516a1.308,1.308,0,0,1,1.207-.95508.86823.86823,0,0,1,.22461.02734v.74707a1.21737,1.21737,0,0,0-.26954-.02636,1.11115,1.11115,0,0,0-1.0625,1.0166,2.17912,2.17912,0,0,0-.03613.36914v2.32324h-.7832Z"/><path class="cls-12" d="M46.84863,168.85645c0,.45019.00879.8457.03516,1.18847h-.70215l-.04492-.71191h-.01758a1.63839,1.63839,0,0,1-1.44043.81054c-.68457,0-1.50391-.37793-1.50391-1.9082V165.6875h.793v2.41211c0,.8291.252,1.38672.97168,1.38672a1.147,1.147,0,0,0,1.04493-.71973,1.16432,1.16432,0,0,0,.07128-.40527V165.6875h.793Z"/><path class="cls-12" d="M51.2666,169.88281a2.92636,2.92636,0,0,1-1.251.252,2.07047,2.07047,0,0,1-2.16992-2.22364,2.214,2.214,0,0,1,2.34082-2.31347,2.65736,2.65736,0,0,1,1.09864.22461l-.18067.6123a1.82878,1.82878,0,0,0-.918-.207,1.64289,1.64289,0,0,0-.02636,3.27734,2.23948,2.23948,0,0,0,.97168-.21679Z"/><path class="cls-12" d="M53.26367,164.43555v1.25195h1.13477v.60352H53.26367v2.3496c0,.54.15332.84571.59473.84571a1.75291,1.75291,0,0,0,.459-.05371l.03614.59375a1.93069,1.93069,0,0,1-.70215.1084,1.09827,1.09827,0,0,1-.85547-.333,1.61249,1.61249,0,0,1-.30664-1.13477v-2.376h-.67481v-.60352h.67481v-1.04492Z"/><path class="cls-12" d="M56.1709,164.46289a.49025.49025,0,0,1-.98047,0,.48256.48256,0,0,1,.49512-.49512A.46959.46959,0,0,1,56.1709,164.46289Zm-.88184,5.582V165.6875h.792v4.35742Z"/><path class="cls-12" d="M61.33789,167.83008a2.12943,2.12943,0,0,1-2.16992,2.31347,2.07143,2.07143,0,0,1-2.08887-2.24121,2.12851,2.12851,0,0,1,2.16113-2.31445A2.06427,2.06427,0,0,1,61.33789,167.83008Zm-3.457.04492c0,.9541.54883,1.6748,1.32324,1.6748.75586,0,1.32324-.71191,1.32324-1.69238,0-.73828-.36914-1.6748-1.30566-1.6748C58.28613,166.18262,57.88086,167.04688,57.88086,167.875Z"/><path class="cls-12" d="M62.33594,166.86719c0-.4502-.00879-.81934-.03614-1.17969H63.002l.04493.71973h.01855a1.60159,1.60159,0,0,1,1.44043-.81934c.60254,0,1.53906.36035,1.53906,1.85547v2.60156h-.792V167.5332c0-.70215-.26172-1.28808-1.00879-1.28808a1.1249,1.1249,0,0,0-1.06152.81054,1.13863,1.13863,0,0,0-.05469.36914v2.62012h-.792Z"/><path class="cls-12" d="M67.22168,169.23438a2.07576,2.07576,0,0,0,1.04492.31542c.57617,0,.8457-.28808.8457-.64843,0-.37793-.2246-.585-.80957-.80176-.7832-.27832-1.15234-.71094-1.15234-1.23242a1.34337,1.34337,0,0,1,1.50293-1.2793,2.1791,2.1791,0,0,1,1.07129.27051l-.19824.57617a1.689,1.689,0,0,0-.89063-.252c-.46875,0-.72949.26953-.72949.59375,0,.36035.26074.52246.82813.73828.75585.28808,1.14355.666,1.14355,1.31445,0,.76563-.59473,1.30567-1.62988,1.30567a2.48634,2.48634,0,0,1-1.22364-.29688Z"/><path class="cls-12" d="M24.71094,132.22021a2.07567,2.07567,0,0,0,1.04492.31543c.57617,0,.8457-.28808.8457-.64843,0-.37793-.22461-.585-.80957-.80078-.7832-.2793-1.15234-.71192-1.15234-1.2334a1.34324,1.34324,0,0,1,1.50293-1.27832,2.17969,2.17969,0,0,1,1.07129.26953l-.19825.57617a1.698,1.698,0,0,0-.89062-.25195c-.46875,0-.72949.2705-.72949.59472,0,.35938.26074.52149.82812.73828.75586.28809,1.14356.666,1.14356,1.31348,0,.76563-.59473,1.30567-1.62989,1.30567a2.48633,2.48633,0,0,1-1.22363-.29688Z"/><path class="cls-12" d="M28.38379,130.09619c0-.55859-.01758-1.00879-.03613-1.42285h.71093l.03614.74707h.01855a1.71186,1.71186,0,0,1,1.54785-.8457,1.97353,1.97353,0,0,1,1.84571,2.21484,2.06138,2.06138,0,0,1-1.98047,2.33984,1.5301,1.5301,0,0,1-1.3418-.68359H29.167V134.813h-.7832Zm.7832,1.16113a1.74206,1.74206,0,0,0,.03613.32422,1.22189,1.22189,0,0,0,1.18848.92676c.83692,0,1.32324-.68359,1.32324-1.68359,0-.87305-.459-1.62012-1.29687-1.62012a1.26395,1.26395,0,0,0-1.19727.98145,1.30926,1.30926,0,0,0-.05371.32421Z"/><path class="cls-12" d="M33.50391,130.03271c0-.51269-.00879-.9541-.03614-1.35937h.69336l.02735.85547h.03515a1.30827,1.30827,0,0,1,1.207-.9541.87034.87034,0,0,1,.22461.02636v.74805a1.15728,1.15728,0,0,0-.26953-.02734,1.11126,1.11126,0,0,0-1.0625,1.01758,2.15871,2.15871,0,0,0-.03613.36914v2.32226h-.7832Z"/><path class="cls-12" d="M36.79883,130.99658A1.395,1.395,0,0,0,38.293,132.5083a2.86367,2.86367,0,0,0,1.20605-.22461l.13575.56738a3.53663,3.53663,0,0,1-1.4502.26954,2.02336,2.02336,0,0,1-2.14258-2.19629,2.11533,2.11533,0,0,1,2.044-2.34961,1.84583,1.84583,0,0,1,1.80078,2.05273,3.01886,3.01886,0,0,1-.02734.36914Zm2.32226-.56738a1.1288,1.1288,0,0,0-1.09863-1.28809,1.31264,1.31264,0,0,0-1.21484,1.28809Z"/><path class="cls-12" d="M43.2793,133.03076l-.06348-.54883h-.02734a1.62285,1.62285,0,0,1-1.332.64746,1.2412,1.2412,0,0,1-1.332-1.251c0-1.05371.93555-1.62988,2.61914-1.62012v-.09082a.898.898,0,0,0-.99023-1.00781,2.16582,2.16582,0,0,0-1.13379.32422l-.18066-.52246a2.70363,2.70363,0,0,1,1.43164-.38672c1.332,0,1.65625.90918,1.65625,1.78222v1.62989a6.16019,6.16019,0,0,0,.07226,1.04394Zm-.11719-2.22363c-.86426-.01758-1.8457.13476-1.8457.98144a.70082.70082,0,0,0,.74707.75586,1.08454,1.08454,0,0,0,1.05371-.72949.84061.84061,0,0,0,.04492-.25195Z"/><path class="cls-12" d="M48.9668,126.63867v5.26709c0,.38672.00976.82813.03613,1.125H48.292l-.03613-.75586h-.01758a1.61286,1.61286,0,0,1-1.48535.85449,1.98605,1.98605,0,0,1-1.86426-2.21386,2.08438,2.08438,0,0,1,1.9541-2.34082,1.45642,1.45642,0,0,1,1.31446.666h.01757v-2.60205Zm-.792,3.80811a1.38578,1.38578,0,0,0-.03613-.333,1.16475,1.16475,0,0,0-1.14258-.918c-.81933,0-1.30566.71973-1.30566,1.68359,0,.88184.43164,1.61133,1.28711,1.61133a1.19072,1.19072,0,0,0,1.16113-.94531,1.35975,1.35975,0,0,0,.03613-.3418Z"/><path class="cls-12" d="M50.17188,132.22021a2.07564,2.07564,0,0,0,1.04492.31543c.57617,0,.8457-.28808.8457-.64843,0-.37793-.22461-.585-.80957-.80078-.7832-.2793-1.15234-.71192-1.15234-1.2334a1.34324,1.34324,0,0,1,1.50293-1.27832,2.17962,2.17962,0,0,1,1.07128.26953l-.19824.57617a1.698,1.698,0,0,0-.89062-.25195c-.46875,0-.72949.2705-.72949.59472,0,.35938.26074.52149.82812.73828.75586.28809,1.14355.666,1.14355,1.31348,0,.76563-.59472,1.30567-1.62988,1.30567a2.4863,2.4863,0,0,1-1.22363-.29688Z"/><path class="cls-12" d="M53.84375,126.63867h.792v2.71924h.01856a1.46912,1.46912,0,0,1,.5664-.55859,1.63571,1.63571,0,0,1,.81055-.22461c.585,0,1.52148.35937,1.52148,1.86328v2.59277h-.792v-2.50293c0-.70215-.26074-1.2959-1.00879-1.2959a1.13636,1.13636,0,0,0-1.06152.792.94189.94189,0,0,0-.05469.37793v2.6289h-.792Z"/><path class="cls-12" d="M59.28027,130.99658a1.395,1.395,0,0,0,1.49414,1.51172,2.86372,2.86372,0,0,0,1.20606-.22461l.13574.56738a3.53658,3.53658,0,0,1-1.45019.26954,2.02336,2.02336,0,0,1-2.14258-2.19629,2.11532,2.11532,0,0,1,2.04394-2.34961,1.84583,1.84583,0,0,1,1.80078,2.05273,3.01683,3.01683,0,0,1-.02734.36914Zm2.32227-.56738a1.1288,1.1288,0,0,0-1.09863-1.28809,1.31264,1.31264,0,0,0-1.21485,1.28809Z"/><path class="cls-12" d="M63.78906,130.99658a1.395,1.395,0,0,0,1.49414,1.51172,2.86372,2.86372,0,0,0,1.20606-.22461l.13574.56738a3.53663,3.53663,0,0,1-1.4502.26954,2.02335,2.02335,0,0,1-2.14257-2.19629,2.11532,2.11532,0,0,1,2.04394-2.34961,1.84583,1.84583,0,0,1,1.80078,2.05273,3.01683,3.01683,0,0,1-.02734.36914Zm2.32227-.56738a1.1288,1.1288,0,0,0-1.09863-1.28809,1.31264,1.31264,0,0,0-1.21485,1.28809Z"/><path class="cls-12" d="M68.81055,127.42236v1.251h1.13476v.60352H68.81055v2.3496c0,.54.15332.84571.59472.84571a1.753,1.753,0,0,0,.459-.05371l.03613.59472a1.95537,1.95537,0,0,1-.70215.10743,1.09827,1.09827,0,0,1-.85547-.333,1.61133,1.61133,0,0,1-.30664-1.13379v-2.37695h-.6748v-.60352h.6748v-1.04395Z"/></g></g></svg>