<svg xmlns="http://www.w3.org/2000/svg" xmlns:xlink="http://www.w3.org/1999/xlink" viewBox="0 0 372.61142 303.91394"><defs><style>.cls-1,.cls-11,.cls-16,.cls-20,.cls-21,.cls-22,.cls-23,.cls-24,.cls-25,.cls-32,.cls-5,.cls-6{fill:none;}.cls-2{fill:#d0d2d3;stroke:#231f20;}.cls-11,.cls-12,.cls-15,.cls-16,.cls-18,.cls-2,.cls-20,.cls-21,.cls-22,.cls-23,.cls-24,.cls-25,.cls-27,.cls-28,.cls-29,.cls-30,.cls-32,.cls-33,.cls-34,.cls-35,.cls-37,.cls-39,.cls-4,.cls-42,.cls-43,.cls-44,.cls-5,.cls-6,.cls-7,.cls-8,.cls-9{stroke-miterlimit:10;}.cls-2,.cls-4{stroke-width:2.32807px;}.cls-27,.cls-3,.cls-35,.cls-4{fill:#e6e7e8;}.cls-27,.cls-28,.cls-29,.cls-30,.cls-32,.cls-33,.cls-34,.cls-35,.cls-4,.cls-5,.cls-6,.cls-8{stroke:#221f1f;}.cls-5{stroke-width:1.74605px;}.cls-6{stroke-width:0.58202px;}.cls-7{fill:#804d4d;stroke:#5e3e3b;}.cls-39,.cls-7{stroke-width:1.21973px;}.cls-8{stroke-width:1.8899px;fill:url(#radial-gradient);}.cls-9{fill:#dc847b;}.cls-11,.cls-12,.cls-15,.cls-16,.cls-18,.cls-9{stroke:#9e4b43;}.cls-12,.cls-15,.cls-18,.cls-9{stroke-width:1.54981px;}.cls-10{fill:url(#radial-gradient-2);}.cls-11{stroke-width:1.23984px;}.cls-12{fill:url(#radial-gradient-3);}.cls-13{fill:#c97970;}.cls-14{fill:#cc635c;}.cls-15{fill:url(#radial-gradient-4);}.cls-16{stroke-width:0.92988px;}.cls-17{fill:#b35750;}.cls-18{fill:url(#radial-gradient-5);}.cls-19{fill:#ed1e79;}.cls-20,.cls-21,.cls-22,.cls-23,.cls-24,.cls-25{stroke:#ed1e79;}.cls-21{stroke-dasharray:1.83087 1.83087;}.cls-22{stroke-dasharray:1.90488 1.90488;}.cls-23,.cls-43{stroke-width:1.5px;}.cls-24{stroke-dasharray:1.21512 1.21512;}.cls-25{stroke-dasharray:2.22472 2.22472;}.cls-26{fill:url(#radial-gradient-6);}.cls-27{stroke-width:2.53px;}.cls-28,.cls-29,.cls-33,.cls-34,.cls-35{stroke-width:1.8975px;}.cls-28{fill:url(#radial-gradient-7);}.cls-29{fill:url(#radial-gradient-8);}.cls-30{fill:#302d2f;}.cls-30,.cls-32{stroke-width:1.265px;}.cls-31,.cls-43,.cls-44{fill:#fff;}.cls-33{fill:url(#radial-gradient-9);}.cls-34{fill:url(#radial-gradient-10);}.cls-36{clip-path:url(#clip-path);}.cls-37,.cls-39{stroke:#b3b3b3;}.cls-37{stroke-width:1.37724px;fill:url(#radial-gradient-11);}.cls-38{fill:url(#radial-gradient-12);}.cls-39{fill:#f2f2f2;}.cls-40{fill:#ccc;}.cls-41{fill:#5e3e3b;}.cls-42{fill:#fcee21;stroke-width:2.43682px;}.cls-42,.cls-43,.cls-44{stroke:#000;}</style><radialGradient id="radial-gradient" cx="267.64352" cy="602.88797" r="20.45553" gradientTransform="matrix(-0.0825, -0.8445, 1.86773, -0.10853, -1074.02606, 510.28016)" gradientUnits="userSpaceOnUse"><stop offset="0.5" stop-color="#b3b3b3"/><stop offset="0.5" stop-color="#999"/></radialGradient><radialGradient id="radial-gradient-2" cx="708.01619" cy="264.18947" r="15.2173" gradientTransform="matrix(-1.00669, -0.4001, -0.45993, 0.9313, 894.47078, 238.93351)" gradientUnits="userSpaceOnUse"><stop offset="0.5" stop-color="#f0b2a7"/><stop offset="0.5" stop-color="#dc847b"/></radialGradient><radialGradient id="radial-gradient-3" cx="605.44679" cy="265.94409" r="19.5219" gradientTransform="matrix(-0.97146, 0.5058, 0.867, 1.43608, 512.19919, -466.69278)" xlink:href="#radial-gradient-2"/><radialGradient id="radial-gradient-4" cx="701.43583" cy="240.69235" r="26.34231" gradientTransform="matrix(-1.00669, -0.4001, -0.45993, 0.9313, 894.47078, 238.93351)" gradientUnits="userSpaceOnUse"><stop offset="0.5" stop-color="#f08f84"/><stop offset="0.50041" stop-color="#cc635c"/></radialGradient><radialGradient id="radial-gradient-5" cx="658.88795" cy="243.68081" r="49.15467" gradientTransform="matrix(-1.00669, -0.4001, -0.2811, 0.56918, 850.89253, 327.17426)" xlink:href="#radial-gradient-2"/><radialGradient id="radial-gradient-6" cx="306.84506" cy="214.92719" r="72.50198" gradientUnits="userSpaceOnUse"><stop offset="0.5" stop-color="#e6e6e6"/><stop offset="0.5" stop-color="#ccc"/></radialGradient><radialGradient id="radial-gradient-7" cx="384.9851" cy="165.11614" r="17.62104" gradientTransform="matrix(0.41363, 0.72446, -1.60328, 0.74052, 387.40292, -200.66538)" gradientUnits="userSpaceOnUse"><stop offset="0.5" stop-color="#808083"/><stop offset="0.50612" stop-color="#59595c"/></radialGradient><radialGradient id="radial-gradient-8" cx="266.1563" cy="241.58161" r="13.4548" gradientTransform="translate(209.48782 796.48966) rotate(-145.66904) scale(1 2.02912)" xlink:href="#radial-gradient"/><radialGradient id="radial-gradient-9" cx="333.88083" cy="199.05658" r="26.25187" gradientTransform="matrix(-0.13116, -0.99136, 0.59883, -0.07923, 257.63406, 547.38392)" xlink:href="#radial-gradient-7"/><radialGradient id="radial-gradient-10" cx="-1076.96303" cy="238.19144" r="13.4548" gradientTransform="matrix(0.82579, -0.56397, -1.14437, -1.67564, 1515.82178, 29.93674)" xlink:href="#radial-gradient"/><clipPath id="clip-path"><path class="cls-1" d="M307.1958,247.35441c5.41162-5.32666,14.83154-16.3183,13.34619-28.53516-.67859-5.58118-3.71375-12.07611-7.54645-20.28119-2.04688-4.382-3.95221-7.928-5.32813-10.3764a111.32051,111.32051,0,0,0-5.89569,10.3764c-3.245,6.49848-6.84942,13.71668-7.54644,20.28119C292.83258,231.93607,302.97149,243.16379,307.1958,247.35441Z"/></clipPath><radialGradient id="radial-gradient-11" cx="305.7724" cy="209.98747" r="63.32457" gradientUnits="userSpaceOnUse"><stop offset="0.49539" stop-color="#f2f2f2"/><stop offset="0.5" stop-color="#ccc"/></radialGradient><radialGradient id="radial-gradient-12" cx="306.72781" cy="229.19545" r="14.19599" gradientTransform="translate(0 45.78058) scale(1 0.80026)" gradientUnits="userSpaceOnUse"><stop offset="0.35718" stop-color="#b3b3b3"/><stop offset="0.63798" stop-color="#f2f2f2"/></radialGradient></defs><title>-1Asset 1</title><g id="Layer_2" data-name="Layer 2"><g id="Layer_1-2" data-name="Layer 1"><path class="cls-2" d="M53.66453,178.98581c10.14134,2.83835,27.74991,8.38491,25.36671,16.9s-23.85569,16.77426-33.997,13.93591-16.43055-12.04214-14.04736-20.55724S43.52319,176.14747,53.66453,178.98581Z"/><path class="cls-3" d="M100.04141,184.3137a36.75618,36.75618,0,0,1,13.19,3.20735c14.56975,6.89042,16.26607,20.9215,28.70072,41.584,14.12472,23.47067,24.067,25.52478,21.966,31.37237-4.7664,13.26633-59.93341,13.81552-98.14065-13.30113-9.19931-6.52894-24.74724-17.56382-23.84395-31.03491C43.1579,197.58571,75.11541,181.87068,100.04141,184.3137Z"/><path class="cls-4" d="M163.89818,260.47738c3.601-4.82679,5.54679-11.01754,5.54679-18.94951,0-17.71757-17.35707-15.38-27.70521-30.1579-9.1736-13.10093-8.89736-13.89012-18.80274-20.10489-11.34266-7.11649-23.29859-6.68012-29.802-6.615-6.92353.0692-13.54767.13541-21.20612,3.45643-8.91824,3.86738-11.27018,8.69275-20.08257,11.14018a34.297,34.297,0,0,1-15.25195.56624"/><polyline class="cls-5" points="165.863 230.566 162.044 232.176 165.863 236.362 168.895 236.362"/><path class="cls-5" d="M169.80153,241.11437a12.65845,12.65845,0,0,1-5.30576,1.005c-3.16279-.09248-4.44658-.71715-5.45538-1.36167"/><path class="cls-6" d="M153.46147,238.702a12.594,12.594,0,0,1-11.76993-1.00118"/><path class="cls-6" d="M152.99807,241.05276a12.594,12.594,0,0,1-11.812-.09748"/><path class="cls-6" d="M153.23234,236.95141a12.594,12.594,0,0,1-11.03173-4.22309"/><path class="cls-7" d="M92.62455,229.75136c2.83783.72692,6.171,1.08685,26.44887-3.99378,17.81479-4.4635,19.70011-5.85828,20.31137-7.95795,1.64762-5.65972-6.88842-13.25946-11.7167-17.55816a51.33386,51.33386,0,0,0-14.53429-9.20355,49.61685,49.61685,0,0,0-25.435-3.1427c-5.25125.782-11.61906,1.57806-17.74041,6.50982a34.532,34.532,0,0,0-7.21618,8.41242c-3.11306,4.6192-6.04562,8.97064-4.78824,13.28094a8.72831,8.72831,0,0,0,2.77449,4.09668c4.43309,3.94391,9.68253,1.80328,16.63295,2.76166C85.3202,224.05415,84.72586,227.728,92.62455,229.75136Z"/><path class="cls-4" d="M50.66628,221.52733c-4.77278,7.19942-14.675,11.54791-25.54484,10.36861-14.44113-1.56677-25.12161-12.297-23.85552-23.96675s13.52593-15.49667,27.96706-13.9299c9.0257.97923,16.7673,3.83362,20.99517,8.68576"/><path class="cls-8" d="M24.80634,225.95227c-10.83229-1.57051-18.87093-7.96608-17.9548-14.2849s10.09757-7.8056,20.92986-6.23509,19.21345,5.60359,18.29733,11.92241S35.63863,227.52278,24.80634,225.95227Z"/><path class="cls-9" d="M66.45579,204.67944a4.10926,4.10926,0,0,0-3.44412-.70512,3.61885,3.61885,0,0,0-2.54956,3.91732c.52252,2.45421,4.97322,3.64117,6.66535,2.252C68.48724,209.0273,68.27518,206.07522,66.45579,204.67944Z"/><path class="cls-10" d="M55.90075,219.27851c1.43518.59579,2.51922.07,4.84026.96167a9.60688,9.60688,0,0,1,1.66152.79983,39.22771,39.22771,0,0,0,3.262,2.3328c4.96575,2.718,12.10757,2.363,12.59722,2.33435a7.7178,7.7178,0,0,1,3.29493.34749c1.6155.58513,1.93387,1.45527,3.01918,1.8413,2.39581.85215,5.40612-1.52253,5.73361-1.78319,2.05789-1.638,4.24406-5.746,2.96683-7.97609-.92325-1.612-3.05772-1.19787-11.70391-2.72983a59.466,59.466,0,0,1-6.57047-1.33722c-6.95844-2.27855-7.14187-5.99424-12.33215-7.21715-5.28546-1.24535-11.609,1.073-12.22066,3.59638-.13536.55833.80747,2.13877,2.69872,5.277C54.92127,218.66851,55.30251,219.03016,55.90075,219.27851Z"/><path class="cls-11" d="M50.44914,210.44885a12.947,12.947,0,0,1,5.01585-3.13741,13.8938,13.8938,0,0,1,6.3023-.59512,14.72155,14.72155,0,0,1,6.80542,2.59786"/><path class="cls-12" d="M142.106,218.56339a26.12555,26.12555,0,0,1,5.6275,2.94825,14.6664,14.6664,0,0,1,5.33763,5.83c.64485,1.4177,1.49954,3.29666.537,4.74-.8097,1.21419-2.58411,1.63857-4.15886,2.01519-1.6035.38352-2.04219.18139-3.37523.45088-2.60674.527-3.07815,1.7345-5.01442,2.5171-.89285.36085-1.452.3707-11.02868-1.23108-5.36413-.89717-5.32742-.92346-6.1046-.97224-2.1991-.138-3.04274.03807-3.873-.5293-1.69839-1.16058-1.49146-4.16827-1.06149-5.84958,2.04114-7.98052,15.79228-12.2065,20.88661-10.69942C139.99515,217.81773,140.92085,218.09591,142.106,218.56339Z"/><path class="cls-13" d="M121.16582,232.79985a8.6784,8.6784,0,0,0,4.01735-2.59355,26.05222,26.05222,0,0,1,2.17006-2.76072c.07753-.07121.20231-.16364.04928-.04788.10465-.07916.21407-.15365.32408-.2251a8.0079,8.0079,0,0,1,.699-.39631,8.111,8.111,0,0,1,1.7318-.5802c.3653-.08564.73469-.15551,1.10583-.2108a3.04338,3.04338,0,0,0,1.489-.80521q1.15621-.91234,2.31244-1.82467a1.40286,1.40286,0,0,0,0-1.97258,1.42942,1.42942,0,0,0-1.97258,0q-1.40754,1.11069-2.81513,2.22134l.98629-.40853a10.39668,10.39668,0,0,0-6.16959,2.54295,21.59114,21.59114,0,0,0-1.7678,2.35288,5.93819,5.93819,0,0,1-2.90157,2.01838c-1.69748.5587-.97053,3.25352.7416,2.69Z"/><path class="cls-14" d="M72.94269,215.86878c4.75121,1.99658,12.94956-.10955,15.583-5.80689,1.62-3.50475,1.17113-8.44767-1.8012-10.311-5.03026-3.15349-14.90623,4.00656-17.50309,8.47248a4.63094,4.63094,0,0,0-.75111,2.83661C68.75374,214.05012,72.50411,215.68447,72.94269,215.86878Z"/><path class="cls-15" d="M90.55017,193.35651a6.61416,6.61416,0,0,0-2.61374-2.42841c-.89744-.45407-1.83183-.65691-5.59624-.83458-1.48482-.0701-3.38356-.15973-4.09506-.131-4.89432.19772-11.36751,5.31609-13.005,11.82734-.378,1.5031-1.534,6.09981,1.51736,9.79589a10.82806,10.82806,0,0,0,4.976,3.26044"/><path class="cls-16" d="M81.93392,205.46985a12.86111,12.86111,0,0,1-4.311.61642,12.67742,12.67742,0,0,1-7.45553-2.75133"/><path class="cls-16" d="M80.29489,210.64283a13.14663,13.14663,0,0,1-7.91162-1.13236,10.7966,10.7966,0,0,1-2.61656-1.88709"/><path class="cls-11" d="M55.7658,218.86863a15.47131,15.47131,0,0,1,4.84025.96167c2.59807.98364,2.6795,1.90437,4.92355,3.13262,4.96585,2.71805,12.10767,2.363,12.59732,2.3344a7.7172,7.7172,0,0,1,3.29483.34745c1.6155.58513,1.93388,1.45527,3.01919,1.8413,1.02291.36387,2.73812.30158,5.7337-1.78315"/><path class="cls-13" d="M85.25282,224.834a9.13521,9.13521,0,0,1-.99863-1.43384,8.94953,8.94953,0,0,1-.91917-2.31127,8.81931,8.81931,0,0,1-.24134-2.37891,7.82475,7.82475,0,0,1,.21711-1.6909c.26281-1.16561-1.52977-1.66332-1.79334-.4944a11.02881,11.02881,0,0,0,2.42032,9.62437.93775.93775,0,0,0,1.315,0,.94919.94919,0,0,0,0-1.31505Z"/><path class="cls-16" d="M78.61048,216.83112a5.94885,5.94885,0,0,1,2.72613-.84062,6.17222,6.17222,0,0,1,4.6887,1.97038"/><path class="cls-17" d="M84.63417,213.699c.16346-5.672,1.14951-11.351,4.0961-16.27484,1.23221-2.059-1.9824-3.93149-3.2117-1.87732-3.28169,5.48373-4.42185,11.83388-4.60394,18.15216-.069,2.39433,3.65059,2.39234,3.71954,0Z"/><path class="cls-18" d="M138.71652,214.16611c-.22223-.47271-.39912-.56878-1.87134-2.28562-1.82208-2.1248-2.32667-2.882-3.11882-3.80939a27.8741,27.8741,0,0,0-8.57264-6.49088c-2.58976-1.26863-2.55013-.73593-5.29435-2.1042-3.38555-1.688-4.00678-2.77847-6.98785-4.52479a34.4402,34.4402,0,0,0-7.85272-3.22379c-5.23627-1.63439-7.85451-2.45162-11.08421-1.6299a12.66267,12.66267,0,0,0-5.99083,3.581c-1.50837,1.58817-2.35167,3.34306-3.92725,10.87709-1.08438,5.18518-1.62656,7.77774-1.65552,9.20861a24.12538,24.12538,0,0,0,3.25581,13.42511c1.56081,2.60014,4.52773,7.54261,10.1813,9.0833,2.37229.64651,2.20575-.12672,9.71746.57277,4.71161.43875,5.66745.82588,7.74052.301,2.75389-.69725,4.60708-2.27661,6.87957-4.2557,3.225-2.80864,2.69866-3.43154,5.00592-5.4115,4.8813-4.189,8.43008-2.42521,11.69268-6.3517C138.34,219.31522,139.7405,216.34438,138.71652,214.16611Z"/><path class="cls-13" d="M105.64045,233.26594c-.519-.19847-.77224-.29964-1.1836-.4817q-.5921-.262-1.17225-.55c-.71165-.35374-1.40977-.73665-2.086-1.15434a12.67921,12.67921,0,0,1-1.346-.94231,14.30331,14.30331,0,0,1-1.70375-1.66817,1.40212,1.40212,0,0,0-1.97258,0,1.42963,1.42963,0,0,0,0,1.97258,21.25332,21.25332,0,0,0,8.72255,5.51394,1.40074,1.40074,0,0,0,1.7158-.9742,1.43383,1.43383,0,0,0-.9742-1.7158Z"/><path class="cls-16" d="M114.67159,233.5187c-1.30446.00877-3.2586.0642-5.64237.29907-2.48282.24461-2.76981.4216-3.66588.2374-2.227-.45778-2.66523-2.00539-5.37258-3.72378a15.41833,15.41833,0,0,0-3.83583-1.73633"/><path class="cls-16" d="M105.51556,236.84539a1.73217,1.73217,0,0,1-.25032-1.66437,2.01633,2.01633,0,0,1,1.18107-1.069"/><path class="cls-13" d="M89.44891,216.59933c-.0764-.05318-.15122-.1083-.22635-.16323-.08367-.06115.14223.12145.00832.00589-.05637-.04864-.11568-.09419-.17236-.14252a7.37724,7.37724,0,0,1-.72142-.70557,5.68219,5.68219,0,0,1-1.18391-2.10357,5.52435,5.52435,0,0,1-.10915-2.79713,7.42116,7.42116,0,0,1,.33163-1.07465c.06491-.16717-.02553.05305.0147-.03515.02389-.05237.04736-.10492.07213-.15688.04414-.09262.09066-.184.13882-.27459.56164-1.05628-1.04313-1.997-1.60585-.93866a7.67888,7.67888,0,0,0-.63562,5.77146,8.012,8.012,0,0,0,3.1504,4.22045.93832.93832,0,0,0,1.27225-.3336.94892.94892,0,0,0-.33359-1.27225Z"/><path class="cls-11" d="M89.83177,217.29244a8.877,8.877,0,0,1-2.4748-3.10156,8.64732,8.64732,0,0,1-.37872-6.18672"/><line class="cls-19" x1="105.7965" y1="198.10915" x2="105.7965" y2="218.37287"/><line class="cls-20" x1="105.7965" y1="198.10917" x2="105.7965" y2="199.10917"/><line class="cls-21" x1="105.7965" y1="200.94004" x2="105.7965" y2="214.67155"/><line class="cls-20" x1="105.7965" y1="215.58695" x2="105.7965" y2="216.58695"/><circle class="cls-19" cx="105.7965" cy="216.49296" r="1.87988"/><path class="cls-20" d="M105.7965,130.94345q-.505,0-.99952-.04193"/><path class="cls-22" d="M102.91747,130.588a11.66621,11.66621,0,0,1-2.65949-1.02978"/><path class="cls-20" d="M99.43431,129.07278q-.42059-.27146-.81585-.57721"/><path class="cls-23" d="M117.542,119.198a11.74546,11.74546,0,0,1-11.74546,11.74546"/><path class="cls-20" d="M116.21221,113.76425q.2309.44164.42474.90466"/><path class="cls-24" d="M117.04662,115.81228a11.6796,11.6796,0,0,1,.38672,1.7818"/><path class="cls-20" d="M117.50005,118.19858q.04166.49419.04193.99945"/><polyline class="cls-23" points="117.542 119.297 105.796 119.297 105.796 159.789 105.796 196.984"/><circle class="cls-19" cx="105.7965" cy="196.92484" r="1.18433"/><line class="cls-20" x1="130.66558" y1="119.19797" x2="129.66558" y2="119.19797"/><line class="cls-25" x1="127.44084" y1="119.19797" x2="119.65435" y2="119.19797"/><line class="cls-20" x1="118.54198" y1="119.19797" x2="117.54198" y2="119.19797"/><path class="cls-19" d="M121.0233,130.11316a2.12412,2.12412,0,0,1,1.89258,1.02246,5.41572,5.41572,0,0,1,.66211,2.93848,6.22593,6.22593,0,0,1-.65625,3.16113,2.07914,2.07914,0,0,1-1.88672,1.09863,2.15366,2.15366,0,0,1-1.9541-1.0459,5.97445,5.97445,0,0,1-.65332-3.12011,5.51373,5.51373,0,0,1,.68555-2.98535A2.15206,2.15206,0,0,1,121.0233,130.11316Zm1.377,3.62109q0-.082.00586-.22558t.00586-.208a5.40393,5.40393,0,0,0-.334-2.20313,1.10435,1.10435,0,0,0-1.05469-.69726,1.14188,1.14188,0,0,0-1.09277.78516,7.04752,7.04752,0,0,0-.36035,2.54882Zm-2.83008.42188v.27539a8.301,8.301,0,0,0,.32519,2.79785,1.12672,1.12672,0,0,0,1.09864.79981,1.10544,1.10544,0,0,0,1.09863-.78223,10.00776,10.00776,0,0,0,.30762-3.09082Z"/><path class="cls-19" d="M184.90514,162.19617v-8.58985h3.22266a3.98861,3.98861,0,0,1,1.5791.26075,2.03043,2.03043,0,0,1,.93164.80273,2.11608,2.11608,0,0,1,.33691,1.13379,1.94766,1.94766,0,0,1-.29883,1.03711,2.13365,2.13365,0,0,1-.90234.78516,2.24343,2.24343,0,0,1,1.19824.77929,2.08713,2.08713,0,0,1,.41895,1.30078,2.509,2.509,0,0,1-.25489,1.12207,2.17236,2.17236,0,0,1-.62988.79981,2.62867,2.62867,0,0,1-.94043.4248,5.7193,5.7193,0,0,1-1.38574.14356Zm1.13672-4.98047h1.85742a4.14435,4.14435,0,0,0,1.084-.09961,1.20484,1.20484,0,0,0,.65332-.42773,1.23212,1.23212,0,0,0,.21973-.75,1.38133,1.38133,0,0,0-.20508-.75293,1.038,1.038,0,0,0-.58593-.44532,4.89359,4.89359,0,0,0-1.30664-.12011h-1.7168Zm0,3.9668h2.13867a4.92312,4.92312,0,0,0,.77344-.041,1.85325,1.85325,0,0,0,.65625-.23437,1.24445,1.24445,0,0,0,.43359-.47754,1.49472,1.49472,0,0,0,.16992-.72364,1.4274,1.4274,0,0,0-.24609-.835,1.298,1.298,0,0,0-.68262-.498,4.23206,4.23206,0,0,0-1.25683-.14356h-1.98633Z"/><path class="cls-19" d="M192.80944,162.19617v-6.22266h.94922v.94336a2.5743,2.5743,0,0,1,.67089-.873,1.17115,1.17115,0,0,1,.67676-.21093,2.05725,2.05725,0,0,1,1.084.33984l-.36329.97852a1.509,1.509,0,0,0-.77343-.22852,1.00446,1.00446,0,0,0-.6211.208,1.12672,1.12672,0,0,0-.39257.57715,4.10806,4.10806,0,0,0-.17579,1.23047v3.25781Z"/><path class="cls-19" d="M201.077,160.19226l1.08985.13477a2.65906,2.65906,0,0,1-.95508,1.48242,3.2356,3.2356,0,0,1-3.94629-.31348,3.28542,3.28542,0,0,1-.7998-2.3584,3.43843,3.43843,0,0,1,.80859-2.4375,2.73707,2.73707,0,0,1,2.09766-.86718,2.66028,2.66028,0,0,1,2.03906.84961,3.37571,3.37571,0,0,1,.791,2.39062q0,.09375-.00585.28125h-4.64063a2.3912,2.3912,0,0,0,.58008,1.57031,1.72651,1.72651,0,0,0,1.30078.54493,1.61385,1.61385,0,0,0,.99023-.30469A2.02252,2.02252,0,0,0,201.077,160.19226Zm-3.46289-1.70508h3.47461a2.108,2.108,0,0,0-.39843-1.17773,1.61644,1.61644,0,0,0-1.30664-.60938,1.67545,1.67545,0,0,0-1.22168.48633A1.92482,1.92482,0,0,0,197.61412,158.48718Z"/><path class="cls-19" d="M203.29772,162.71179l1.02539.15235a.97715.97715,0,0,0,.35742.6914,1.75585,1.75585,0,0,0,1.07227.293,1.88306,1.88306,0,0,0,1.13086-.293,1.44178,1.44178,0,0,0,.53906-.82031,6.73585,6.73585,0,0,0,.07617-1.35352,2.16933,2.16933,0,0,1-1.72266.81446,2.34854,2.34854,0,0,1-1.98632-.92578,3.56514,3.56514,0,0,1-.70313-2.22071,4.133,4.133,0,0,1,.32227-1.64355,2.57828,2.57828,0,0,1,.93457-1.16309,2.52353,2.52353,0,0,1,1.43847-.41015,2.23073,2.23073,0,0,1,1.81641.89062v-.75h.97266v5.37891a5.10163,5.10163,0,0,1-.2959,2.05957,2.1643,2.1643,0,0,1-.9375.958,3.24911,3.24911,0,0,1-1.5791.35156,2.97775,2.97775,0,0,1-1.79883-.501A1.694,1.694,0,0,1,203.29772,162.71179Zm.873-3.73828a2.69952,2.69952,0,0,0,.48633,1.78711,1.60428,1.60428,0,0,0,2.4375.00293,2.61173,2.61173,0,0,0,.49219-1.75488,2.55166,2.55166,0,0,0-.50684-1.72266,1.56724,1.56724,0,0,0-1.22168-.58008,1.52239,1.52239,0,0,0-1.19531.57129A2.53707,2.53707,0,0,0,204.17076,158.97351Z"/><path class="cls-19" d="M210.16491,162.19617v-6.22266h.94335v.87305a2.2179,2.2179,0,0,1,.7793-.73535,2.18941,2.18941,0,0,1,1.10742-.27832,2.04694,2.04694,0,0,1,1.13379.28711,1.53659,1.53659,0,0,1,.624.80273,2.234,2.234,0,0,1,1.92187-1.08984,1.89427,1.89427,0,0,1,1.42383.51269,2.19114,2.19114,0,0,1,.49805,1.5791v4.27149h-1.04883v-3.91992a2.88614,2.88614,0,0,0-.10254-.91114.88255.88255,0,0,0-.37207-.44824,1.16147,1.16147,0,0,0-.63281-.16992,1.47273,1.47273,0,0,0-1.08985.43652,1.9226,1.9226,0,0,0-.43359,1.39746v3.61524h-1.05469v-4.043a1.77892,1.77892,0,0,0-.25781-1.05469.97633.97633,0,0,0-.84375-.35156,1.53261,1.53261,0,0,0-.82324.23437,1.32949,1.32949,0,0,0-.54786.68555,3.859,3.859,0,0,0-.16992,1.30078v3.22852Z"/><path class="cls-19" d="M224.22155,161.42859a3.92729,3.92729,0,0,1-1.12793.70312,3.25924,3.25924,0,0,1-1.16309.20508,2.26235,2.26235,0,0,1-1.57617-.501,1.65358,1.65358,0,0,1-.55078-1.28028,1.70273,1.70273,0,0,1,.208-.835,1.722,1.722,0,0,1,.54493-.60644,2.56234,2.56234,0,0,1,.75879-.34571,7.53758,7.53758,0,0,1,.9375-.1582,9.64041,9.64041,0,0,0,1.88086-.36328q.00585-.2168.00585-.27539a1.16439,1.16439,0,0,0-.29882-.9082,1.76507,1.76507,0,0,0-1.20118-.35743,1.8626,1.8626,0,0,0-1.09863.26075,1.59312,1.59312,0,0,0-.52441.92285l-1.03125-.14063a2.55513,2.55513,0,0,1,.46289-1.06933,2.02892,2.02892,0,0,1,.93164-.627,4.15552,4.15552,0,0,1,1.41211-.21972,3.73754,3.73754,0,0,1,1.29492.1875,1.70616,1.70616,0,0,1,.73242.47168,1.6589,1.6589,0,0,1,.32813.71777,5.93937,5.93937,0,0,1,.05273.97266v1.40625a14.92677,14.92677,0,0,0,.06738,1.86035,2.34714,2.34714,0,0,0,.26661.74707h-1.10157A2.23633,2.23633,0,0,1,224.22155,161.42859Zm-.08789-2.35547a7.73842,7.73842,0,0,1-1.72266.39844,3.98423,3.98423,0,0,0-.91992.21094.91705.91705,0,0,0-.416.34277.93226.93226,0,0,0,.17285,1.2041,1.374,1.374,0,0,0,.93457.28125,2.17512,2.17512,0,0,0,1.084-.2666,1.64171,1.64171,0,0,0,.69726-.72949,2.5478,2.5478,0,0,0,.16993-1.05469Z"/><path class="cls-19" d="M35.36119,303.77332v-8.58985h1.13672v7.57617h4.23047v1.01368Z"/><path class="cls-19" d="M46.00768,303.00574a3.92737,3.92737,0,0,1-1.12793.70312,3.2592,3.2592,0,0,1-1.16309.20508,2.26231,2.26231,0,0,1-1.57617-.501,1.65354,1.65354,0,0,1-.55078-1.28027,1.70271,1.70271,0,0,1,.208-.835,1.722,1.722,0,0,1,.54492-.60645,2.56257,2.56257,0,0,1,.75879-.3457,7.53568,7.53568,0,0,1,.9375-.1582,9.64041,9.64041,0,0,0,1.88086-.36328q.00585-.21679.00586-.27539a1.16441,1.16441,0,0,0-.29883-.90821,1.76509,1.76509,0,0,0-1.20117-.35742,1.86269,1.86269,0,0,0-1.09864.26074,1.59323,1.59323,0,0,0-.52441.92286l-1.03125-.14063a2.5553,2.5553,0,0,1,.46289-1.06934,2.029,2.029,0,0,1,.93164-.627A4.15551,4.15551,0,0,1,44.578,297.41a3.73754,3.73754,0,0,1,1.29492.1875,1.70625,1.70625,0,0,1,.73242.47168,1.659,1.659,0,0,1,.32813.71778,5.93806,5.93806,0,0,1,.05273.97265v1.40625a14.92606,14.92606,0,0,0,.06739,1.86036,2.3472,2.3472,0,0,0,.2666.74707H46.21862A2.23611,2.23611,0,0,1,46.00768,303.00574Zm-.08789-2.35547a7.73813,7.73813,0,0,1-1.72266.39844,3.985,3.985,0,0,0-.91992.21093.91713.91713,0,0,0-.416.34278.93225.93225,0,0,0,.17286,1.2041,1.374,1.374,0,0,0,.93457.28125,2.17508,2.17508,0,0,0,1.084-.2666,1.64173,1.64173,0,0,0,.69727-.72949,2.54786,2.54786,0,0,0,.16992-1.05469Z"/><path class="cls-19" d="M48.621,303.77332v-6.22266h.94336v.87305a2.21781,2.21781,0,0,1,.7793-.73535A2.18939,2.18939,0,0,1,51.451,297.41a2.047,2.047,0,0,1,1.13379.28711,1.53658,1.53658,0,0,1,.624.80274A2.23406,2.23406,0,0,1,55.13073,297.41a1.89426,1.89426,0,0,1,1.42382.5127,2.19112,2.19112,0,0,1,.498,1.5791v4.27149H56.00377v-3.91993a2.88611,2.88611,0,0,0-.10254-.91113.88251.88251,0,0,0-.37207-.44824,1.16143,1.16143,0,0,0-.63281-.16992,1.47271,1.47271,0,0,0-1.08984.43652,1.92255,1.92255,0,0,0-.4336,1.39746v3.61524H52.31823v-4.043a1.77882,1.77882,0,0,0-.25782-1.05469.97628.97628,0,0,0-.84375-.35156,1.53264,1.53264,0,0,0-.82324.23437,1.32947,1.32947,0,0,0-.54785.68555,3.859,3.859,0,0,0-.16992,1.30078v3.22852Z"/><path class="cls-19" d="M59.58971,303.77332h-.97852v-8.58985h1.05469v3.06446A2.08691,2.08691,0,0,1,61.371,297.41a2.61134,2.61134,0,0,1,1.08691.23145,2.2196,2.2196,0,0,1,.84375.65039,3.14385,3.14385,0,0,1,.51856,1.01074,4.16717,4.16717,0,0,1,.1875,1.26563,3.55456,3.55456,0,0,1-.791,2.47265,2.47405,2.47405,0,0,1-1.89843.87305,1.98146,1.98146,0,0,1-1.72852-.91992Zm-.01172-3.15821a3.22957,3.22957,0,0,0,.30469,1.61719,1.50751,1.50751,0,0,0,2.543.21387,2.72916,2.72916,0,0,0,.5039-1.79,2.77642,2.77642,0,0,0-.48339-1.79883,1.47216,1.47216,0,0,0-1.169-.58008,1.51689,1.51689,0,0,0-1.19531.60059A2.63649,2.63649,0,0,0,59.578,300.61511Z"/><path class="cls-19" d="M69.328,303.77332v-.78516a1.93543,1.93543,0,0,1-1.74023.92578,2.4402,2.4402,0,0,1-1.36817-.41016,2.69717,2.69717,0,0,1-.96679-1.1455,3.95907,3.95907,0,0,1-.34278-1.69043,4.42447,4.42447,0,0,1,.31055-1.69043,2.4493,2.4493,0,0,1,.93164-1.16309,2.49077,2.49077,0,0,1,1.38867-.4043,2.07519,2.07519,0,0,1,1.7168.85547v-3.082h1.04883v8.58985Zm-3.334-3.10547a2.70248,2.70248,0,0,0,.5039,1.78711,1.51943,1.51943,0,0,0,1.18946.59179,1.49158,1.49158,0,0,0,1.1748-.56543,2.6068,2.6068,0,0,0,.4834-1.72558,2.92623,2.92623,0,0,0-.49219-1.875,1.51385,1.51385,0,0,0-1.21289-.59766,1.4613,1.4613,0,0,0-1.1748.57422A2.83408,2.83408,0,0,0,65.994,300.66785Z"/><path class="cls-19" d="M76.02526,303.00574a3.92737,3.92737,0,0,1-1.12793.70312,3.25924,3.25924,0,0,1-1.16309.20508,2.26231,2.26231,0,0,1-1.57617-.501,1.65354,1.65354,0,0,1-.55078-1.28027,1.70261,1.70261,0,0,1,.208-.835,1.722,1.722,0,0,1,.54492-.60645,2.56257,2.56257,0,0,1,.75879-.3457,7.53568,7.53568,0,0,1,.9375-.1582,9.64041,9.64041,0,0,0,1.88086-.36328q.00585-.21679.00586-.27539a1.16441,1.16441,0,0,0-.29883-.90821,1.76509,1.76509,0,0,0-1.20117-.35742,1.86269,1.86269,0,0,0-1.09864.26074,1.59318,1.59318,0,0,0-.52441.92286l-1.03125-.14063a2.5553,2.5553,0,0,1,.46289-1.06934,2.029,2.029,0,0,1,.93164-.627,4.15551,4.15551,0,0,1,1.41211-.21973,3.73754,3.73754,0,0,1,1.29492.1875,1.70625,1.70625,0,0,1,.73242.47168,1.659,1.659,0,0,1,.32813.71778,5.93922,5.93922,0,0,1,.05273.97265v1.40625a14.924,14.924,0,0,0,.06739,1.86036,2.347,2.347,0,0,0,.2666.74707H76.23619A2.23633,2.23633,0,0,1,76.02526,303.00574Zm-.08789-2.35547a7.73842,7.73842,0,0,1-1.72266.39844,3.985,3.985,0,0,0-.91992.21093.91713.91713,0,0,0-.416.34278.93226.93226,0,0,0,.17285,1.2041,1.374,1.374,0,0,0,.93457.28125,2.17512,2.17512,0,0,0,1.084-.2666,1.64171,1.64171,0,0,0,.69726-.72949,2.54767,2.54767,0,0,0,.16993-1.05469Z"/><polygon class="cls-19" points="105.472 179.839 107.411 179.329 107.965 180.943 106.121 181.731 105.472 179.839"/><polygon class="cls-19" points="109.351 178.819 111.29 178.308 111.653 179.367 109.809 180.155 109.351 178.819"/><polygon class="cls-19" points="113.229 177.798 115.169 177.288 115.342 177.792 113.498 178.58 113.229 177.798"/><polygon class="cls-19" points="117.108 176.777 118.69 176.361 117.186 177.004 117.108 176.777"/><path class="cls-19" d="M122.389,179.66687v-5.72656h1.14062l1.35547,4.05469q.1875.56689.27344.84765.09741-.312.30468-.918l1.3711-3.98437h1.01953v5.72656h-.73047v-4.793l-1.66406,4.793h-.6836l-1.65625-4.875v4.875Z"/><path class="cls-19" d="M129.04528,179.66687v-5.72656h.75781v5.05078h2.82031v.67578Z"/><path class="cls-19" d="M134.96276,121.93005l2.19922-5.72656h.8164l2.34375,5.72656h-.86328l-.668-1.73437h-2.39453l-.62891,1.73437Zm1.65234-2.35156h1.94141l-.59766-1.58594q-.2732-.72216-.40625-1.1875a7.29117,7.29117,0,0,1-.30859,1.09375Z"/><path class="cls-19" d="M140.9276,121.93005v-5.72656h2.16016a5.25145,5.25145,0,0,1,.87109.05469,1.72,1.72,0,0,1,.707.26758,1.404,1.404,0,0,1,.459.55273,1.86394,1.86394,0,0,1-.291,2.01758,2.23111,2.23111,0,0,1-1.67969.50586h-1.46875v2.32812Zm.75781-3.0039h1.48047a1.56765,1.56765,0,0,0,1.043-.27344.97481.97481,0,0,0,.30859-.76953,1.0364,1.0364,0,0,0-.18164-.61523.84809.84809,0,0,0-.47851-.3379,3.21589,3.21589,0,0,0-.707-.05078h-1.46485Z"/><path class="cls-19" d="M111.50475,209.3905v-5.72656h1.97266a4.78478,4.78478,0,0,1,1.01953.082,1.93342,1.93342,0,0,1,.83984.41016,2.32572,2.32572,0,0,1,.67773.97851,3.83732,3.83732,0,0,1,.22461,1.36133,4.00153,4.00153,0,0,1-.15234,1.15625,2.80526,2.80526,0,0,1-.39062.834,2.07008,2.07008,0,0,1-.52149.51953,2.14,2.14,0,0,1-.68359.28711,3.88638,3.88638,0,0,1-.91992.09765Zm.75781-.67578h1.22266a2.9675,2.9675,0,0,0,.88867-.10547,1.26652,1.26652,0,0,0,.51367-.29687,1.80222,1.80222,0,0,0,.41992-.72461,3.54738,3.54738,0,0,0,.15039-1.10352,2.66312,2.66312,0,0,0-.29492-1.38086,1.48663,1.48663,0,0,0-.71679-.64648,2.96208,2.96208,0,0,0-.98047-.11719h-1.20313Z"/><path class="cls-19" d="M118.91881,209.3905l-2.21875-5.72656h.82031l1.48829,4.16016q.17943.49952.30078.9375.13257-.46875.30859-.9375l1.54688-4.16016h.77343l-2.24218,5.72656Z"/><path class="cls-26" d="M348.60786,246.36048c-3.95209,3.69855-8.63989,6.50091-11.18506,8.2691a50.80065,50.80065,0,0,1-30.94293,8.7276,51.65512,51.65512,0,0,1-27.569-9.14215c-4.04419-2.83349-6.47962-3.961-7.8335-5.57281-12.62872-15.03467,34.04089-73.69623,36.31958-76.52979"/><path class="cls-27" d="M271.07739,248.64225c-5.007-3.96871-9.58569-9.04124-9.10425-15.5687.6373-8.641,9.24185-20.76867,17.70757-35.67416,4.17849-7.357,5.19338-13.01662,14.628-19.89782,6.39732-4.666,10.43061-5.34582,13.08816-5.38913"/><ellipse class="cls-28" cx="284.02387" cy="198.39135" rx="12.33772" ry="8.12875" transform="translate(-35.48192 332.34932) rotate(-57.68105)"/><path class="cls-27" d="M279.31978,238.008c2.50553,6.48836.74922,15.01786-5.08858,21.608-7.75581,8.75539-19.77865,10.77232-26.85377,4.50494s-3.87806-16.10247,3.87774-24.85785c4.84738-5.47212,10.32826-9.22736,15.48458-9.74415"/><path class="cls-29" d="M268.19433,247.97746c-5.68642,5.30523-13.04651,6.658-16.43922,3.02153s-.26482-9.52555,5.4216-14.83078,11.778-8.01763,15.17075-4.38115S273.88075,242.67224,268.19433,247.97746Z"/><ellipse class="cls-30" cx="286.01687" cy="192.69388" rx="5.49948" ry="4.78005" transform="translate(-29.67948 331.51893) rotate(-57.70587)"/><path class="cls-31" d="M288.901,190.265c-2.01859-.23492-2.745,3.06713-.72305,3.30244C290.19654,193.80238,290.92294,190.50033,288.901,190.265Z"/><path class="cls-32" d="M296.06084,178.53644a23.59377,23.59377,0,0,0-6.52721-3.10533,18.33113,18.33113,0,0,0-8.82907-.39438"/><path class="cls-32" d="M295.30921,182.055a23.59409,23.59409,0,0,0-6.751-2.583,18.331,18.331,0,0,0-8.83276.30037"/><path class="cls-32" d="M298.58507,178.39763a23.59421,23.59421,0,0,0-5.60649-4.56234,18.33119,18.33119,0,0,0-8.48471-2.4734"/><path class="cls-27" d="M343.71639,248.64222c5.007-3.96864,9.58571-9.04123,9.10427-15.56867-.63732-8.641-9.24186-20.76866-17.70757-35.67418-4.1785-7.357-5.19338-13.01659-14.628-19.8978-6.39734-4.666-10.43061-5.34583-13.08816-5.38915"/><ellipse class="cls-33" cx="330.76992" cy="198.39135" rx="8.12875" ry="12.33772" transform="matrix(0.84509, -0.53463, 0.53463, 0.84509, -54.82514, 207.57395)"/><path class="cls-27" d="M335.474,236.40694c-2.50553,6.48836-.74922,15.01786,5.08858,21.608,7.75581,8.75539,19.77865,10.77232,26.85377,4.50494s3.87806-16.10247-3.87774-24.85785c-4.84738-5.47211-10.32826-9.22735-15.48458-9.74415"/><path class="cls-34" d="M346.59947,246.37642c5.68642,5.30522,13.04651,6.658,16.43922,3.02152s.26482-9.52555-5.42161-14.83078-11.778-8.01763-15.17074-4.38114S340.91305,241.07119,346.59947,246.37642Z"/><ellipse class="cls-30" cx="328.77692" cy="192.69388" rx="4.78005" ry="5.49948" transform="translate(-52.0934 205.46081) rotate(-32.29413)"/><path class="cls-31" d="M330.4084,189.37948c2.01859-.23493,2.745,3.06713.72305,3.30244C329.11285,192.91684,328.38645,189.61479,330.4084,189.37948Z"/><path class="cls-32" d="M318.733,178.53644a23.59377,23.59377,0,0,1,6.52721-3.10533,18.33113,18.33113,0,0,1,8.82907-.39438"/><path class="cls-32" d="M319.48458,182.055a23.59409,23.59409,0,0,1,6.751-2.583,18.331,18.331,0,0,1,8.83276.30037"/><path class="cls-35" d="M306.82823,174.6628h1.1395a4.50209,4.50209,0,0,1,4.50209,4.50209v.73655a1.318,1.318,0,0,1-1.318,1.318h-7.50761a1.318,1.318,0,0,1-1.318-1.318v-.73655A4.50209,4.50209,0,0,1,306.82823,174.6628Z"/><path class="cls-32" d="M316.21169,178.39735a23.59381,23.59381,0,0,1,5.60649-4.56234,18.33109,18.33109,0,0,1,8.48471-2.47339"/><path class="cls-7" d="M307.25646,248.37443c5.41162-5.32666,14.83154-16.3183,13.34619-28.53516-.67859-5.58117-3.71374-12.07611-7.54644-20.28118-2.04688-4.382-3.95221-7.928-5.32813-10.37641a111.3186,111.3186,0,0,0-5.89569,10.37641c-3.245,6.49847-6.84943,13.71667-7.54645,20.28118C292.89324,232.9561,303.03216,244.18382,307.25646,248.37443Z"/><g class="cls-36"><path class="cls-37" d="M293.46214,246.554c2.54656,1.90429,11.29182,7.81446,21.08672,2.57275,6.207-3.32164,16.2997-12.97529,16.2206-27.01422-.06093-10.81492-6.12413-18.17212-8.1103-20.58213-.58941-.7152-13.22973-15.54274-24.73643-4.50242-6.3381,6.08123-9.98637,17.7599-9.73234,30.23019"/><path class="cls-38" d="M297.29137,234.88365c1.99909,4.3601,9.244,4.45794,12.69056,3.95727,4.6062-.66919,9.78662-3.4765,9.619-5.94482-.10943-1.61164-2.40381-1.67816-6.387-4.90552-4.69263-3.80225-4.72125-6.31342-6.92578-6.57947C302.01171,220.895,294.80541,229.46165,297.29137,234.88365Z"/><path class="cls-39" d="M325.22472,212.01158c-2.01507-7.07123-4.85327-9.36713-7.11859-10.13025-3.36621-1.134-4.67938,1.3822-11.49927,1.6427-6.043.23083-8.56158-1.60913-11.773.2738a9.43609,9.43609,0,0,0-3.83306,4.92829"/><path class="cls-39" d="M306.60686,203.524a72.835,72.835,0,0,1,.27381,19.98681c-.88483,6.95923-2.18805,8.80121-3.55927,9.85645-4.83532,3.721-13.07965-.36932-13.96338-.82135"/><path class="cls-39" d="M325.77227,233.9149a13.638,13.638,0,0,1-15.05853-2.73792c-4.4798-4.60095-3.55036-10.84772-3.43531-11.54095"/><path class="cls-40" d="M296.6137,218.80455c-.26331,8.21105.95435,14.08581-.75183,14.64025-.66681.21668-1.44342-.48864-1.98511-.99255-4.23608-3.94055-3.06341-11.53986-2.77435-13.45166,1.17352-7.76086,5.622-14.28076,6.752-13.84381C298.77062,205.511,296.90649,209.67424,296.6137,218.80455Z"/><path class="cls-40" d="M300.50689,198.38784c1.15215-2.63446,1.00244-4.29266,1.4109-4.24373.513.06145,1.62859,2.78252.67723,5.03012-.973,2.29879-3.8135,3.406-4.21243,3.07938C298.07285,202,299.36836,200.99118,300.50689,198.38784Z"/></g><path class="cls-41" d="M307.19579,247.37443a55.96,55.96,0,0,0,9.56256-13.26807,26.347,26.347,0,0,0,2.95667-15.55255,37.73987,37.73987,0,0,0-2.25806-7.72387c-.9881-2.52869-2.12713-5.01606-3.28583-7.49891-1.17584-2.4779-2.31494-4.98339-3.53155-7.42236q-1.82666-3.6687-3.84326-7.23736l1.71209.05011q-2.21549,3.44118-4.17889,7.03765c-1.3042,2.38727-2.50946,4.86444-3.73175,7.31824-2.40033,4.8996-4.67407,9.92951-5.51318,15.22a27.44114,27.44114,0,0,0,2.73913,15.65778A52.85991,52.85991,0,0,0,307.19579,247.37443Zm0,0a49.87445,49.87445,0,0,1-10.25042-12.9823,31.29832,31.29832,0,0,1-2.94574-7.85242,26.1429,26.1429,0,0,1-.46283-8.44818,36.25277,36.25277,0,0,1,2.08-8.16748c.96112-2.62512,2.093-5.16766,3.275-7.67022,1.19506-2.49341,2.4024-4.96869,3.71887-7.42511q1.97388-3.66881,4.2157-7.18659l.89483-1.40082.81739,1.45093c2.71533,4.8194,5.09527,9.84058,7.34851,14.85211,1.12353,2.5188,2.23327,5.05316,3.20282,7.66388a36.49474,36.49474,0,0,1,2.1643,8.131,23.88537,23.88537,0,0,1-.53521,8.44056,31.7426,31.7426,0,0,1-3.09821,7.77917A52.56859,52.56859,0,0,1,307.19579,247.37443Z"/><path class="cls-41" d="M305.98962,186.157a4.21232,4.21232,0,0,1,.91455-1.80414,1.67711,1.67711,0,0,1,.46307-.37585,1.105,1.105,0,0,1,.7691-.12842,1.12392,1.12392,0,0,1,.65149.46,4.1289,4.1289,0,0,1,.28711.46839c.28308.58313.54529,1.096.8628,1.62658.31652.52533.67053,1.038,1.04248,1.59784a4.5185,4.5185,0,0,1-1.65821-1.11841,6.51393,6.51393,0,0,1-1.13385-1.64514,1.69617,1.69617,0,0,0-.2857-.47448c-.01-.058-.25537.01452-.48358.17211C306.95373,185.256,306.50256,185.73014,305.98962,186.157Z"/><path class="cls-41" d="M323.42174,223.28709a8.28117,8.28117,0,0,1,.42939,2.6607,12.25463,12.25463,0,0,1-1.0575,5.16388,8.35612,8.35612,0,0,1-1.43622,2.27979l-.09387-.03455a39.23558,39.23558,0,0,0,2.05835-10.075Z"/><path class="cls-41" d="M290.492,220.02037a8.28129,8.28129,0,0,1-.30048-2.67835,12.2546,12.2546,0,0,1,1.30542-5.10681,8.3544,8.3544,0,0,1,1.54456-2.20783l.0921.039a39.2379,39.2379,0,0,0-2.54212,9.96386Z"/><polyline class="cls-20" points="306.458 198.372 306.458 158.703 233.539 158.703"/><path class="cls-19" d="M308.71343,198.25925a2.25586,2.25586,0,1,1-2.25586-2.2558A2.25614,2.25614,0,0,1,308.71343,198.25925Z"/><polyline class="cls-20" points="307.397 238.85 307.397 299.961 84.949 299.961"/><circle class="cls-19" cx="307.3969" cy="238.96244" r="2.25586"/><path d="M57.12194,34.94275H63.7611c4.55908,0,6.51855,2.11963,6.51855,6.439v1.11963c0,2.8794-.87988,4.6792-2.83935,5.479v.08008c2.35937.7998,3.27929,2.87939,3.27929,5.83886V56.2992c0,4.31884-2.27929,6.63867-6.67871,6.63867H57.12194Zm6.11914,11.398c1.63965,0,2.63965-.71973,2.63965-2.95947V41.82117c0-1.99951-.68018-2.8794-2.23975-2.8794H61.52135V46.3407Zm.7998,12.59766c1.47949,0,2.27979-.67969,2.27979-2.75928V53.73962c0-2.5996-.83985-3.39941-2.83985-3.39941H61.52135v8.59815Z"/><path d="M73.2816,34.94275h6.51905c4.55908,0,6.519,2.11963,6.519,6.439v1.71973c0,2.8794-.91992,4.71875-2.87988,5.519v.07959c2.1997.68018,2.91992,2.75977,2.91992,5.919v4.91943a8.2448,8.2448,0,0,0,.47949,3.39942h-4.479a8.60344,8.60344,0,0,1-.3999-3.43946V54.37927c0-2.59961-.75977-3.43945-2.75977-3.43945H77.681v11.998H73.2816Zm5.999,11.99756c1.63965,0,2.63965-.71973,2.63965-2.95947V41.82117c0-1.99951-.67969-2.8794-2.23975-2.8794H77.681v7.99854Z"/><path d="M92.80114,34.94275h5.959l4.55957,27.99512H98.92028l-.79981-5.55909v.08008H93.121l-.7998,5.479H88.24205Zm4.79931,18.7168L95.641,39.82166H95.5609L93.641,53.65955Z"/><path d="M105.44078,34.94275h4.39942V62.93787h-4.39942Z"/><path d="M113.12047,34.94275h5.519l4.2793,16.75684h.08008V34.94275h3.91943V62.93787h-4.51953L117.12,42.50134h-.08007V62.93787h-3.91944Z"/><path d="M136.31969,56.45886V41.42127c0-4.31885,2.23975-6.87842,6.479-6.87842s6.47852,2.55957,6.47852,6.87842v2.95947H145.118V41.14148c0-1.83984-.87988-2.59961-2.19971-2.59961s-2.19922.75977-2.19922,2.59961V56.77869c0,1.83984.8794,2.55957,2.19922,2.55957s2.19971-.71973,2.19971-2.55957v-4.2793h4.15918v3.95947c0,4.31934-2.23926,6.87891-6.47852,6.87891S136.31969,60.7782,136.31969,56.45886Z"/><path d="M151.67955,56.2992V41.58142c0-4.479,2.35938-7.03857,6.67871-7.03857s6.6792,2.55957,6.6792,7.03857V56.2992c0,4.479-2.35986,7.03857-6.6792,7.03857S151.67955,60.7782,151.67955,56.2992Zm8.9585.27978V41.30164c0-2-.87988-2.75977-2.27979-2.75977-1.39941,0-2.27929.75977-2.27929,2.75977V56.579c0,1.99951.87988,2.75928,2.27929,2.75928C159.75817,59.33826,160.63805,58.57849,160.63805,56.579Z"/><path d="M167.67907,56.2992V41.58142c0-4.479,2.35937-7.03857,6.67871-7.03857s6.6792,2.55957,6.6792,7.03857V56.2992c0,4.479-2.35987,7.03857-6.6792,7.03857S167.67907,60.7782,167.67907,56.2992Zm8.95849.27978V41.30164c0-2-.87988-2.75977-2.27978-2.75977-1.39942,0-2.2793.75977-2.2793,2.75977V56.579c0,1.99951.87988,2.75928,2.2793,2.75928C175.75768,59.33826,176.63756,58.57849,176.63756,56.579Z"/><path d="M183.99889,34.94275h6.519c4.55908,0,6.519,2.11963,6.519,6.439v1.71973c0,2.8794-.91993,4.71875-2.87989,5.519v.07959c2.19971.68018,2.91944,2.75977,2.91944,5.919v4.91943a8.24453,8.24453,0,0,0,.48,3.39942h-4.479a8.60363,8.60363,0,0,1-.3999-3.43946V54.37927c0-2.59961-.75977-3.43945-2.75977-3.43945H188.3983v11.998h-4.39941Zm5.999,11.99756c1.63965,0,2.63965-.71973,2.63965-2.95947V41.82117c0-1.99951-.68017-2.8794-2.23974-2.8794H188.3983v7.99854Z"/><path d="M200.11852,34.94275h6.71875c4.39941,0,6.55908,2.43945,6.55908,6.91846V56.01892c0,4.47949-2.15967,6.91895-6.55908,6.91895h-6.71875Zm6.63916,23.99561c1.39941,0,2.23926-.71973,2.23926-2.71924V41.6615c0-1.99951-.83985-2.71973-2.23926-2.71973h-2.23975V58.93836Z"/><path d="M216.35826,34.94275h4.39942V62.93787h-4.39942Z"/><path d="M224.038,34.94275h5.519l4.2793,16.75684h.08008V34.94275h3.91943V62.93787h-4.51953l-5.27881-20.43653h-.08007V62.93787H224.038Z"/><path d="M244.517,34.94275h5.959l4.55957,27.99512H250.6361l-.79981-5.55909v.08008h-4.99951l-.7998,5.479h-4.07911Zm4.79931,18.7168L247.3568,39.82166h-.08008L245.3568,53.65955Z"/><path d="M258.7567,38.94177h-4.59912v-3.999h13.59766v3.999h-4.59912v23.9961H258.7567Z"/><path d="M269.39733,56.2992V41.58142c0-4.479,2.35937-7.03857,6.67871-7.03857s6.6792,2.55957,6.6792,7.03857V56.2992c0,4.479-2.35987,7.03857-6.6792,7.03857S269.39733,60.7782,269.39733,56.2992Zm8.95849.27978V41.30164c0-2-.87988-2.75977-2.27978-2.75977-1.39942,0-2.2793.75977-2.2793,2.75977V56.579c0,1.99951.87988,2.75928,2.2793,2.75928C277.47594,59.33826,278.35582,58.57849,278.35582,56.579Z"/><path d="M285.71715,34.94275h6.519c4.55909,0,6.519,2.11963,6.519,6.439v1.71973c0,2.8794-.91992,4.71875-2.87989,5.519v.07959c2.19971.68018,2.91993,2.75977,2.91993,5.919v4.91943a8.2448,8.2448,0,0,0,.47949,3.39942h-4.479a8.60363,8.60363,0,0,1-.3999-3.43946V54.37927c0-2.59961-.75976-3.43945-2.75976-3.43945h-1.51953v11.998h-4.39942Zm5.999,11.99756c1.63965,0,2.63965-.71973,2.63965-2.95947V41.82117c0-1.99951-.67968-2.8794-2.23974-2.8794h-1.99951v7.99854Z"/><rect class="cls-42" x="60.87589" y="1.21841" width="232.16674" height="22.13674"/><line class="cls-43" x1="76.45083" y1="23.35515" x2="76.45083" y2="14.90769"/><line class="cls-43" x1="116.45078" y1="23.35519" x2="116.45078" y2="14.90773"/><line class="cls-43" x1="156.45078" y1="23.35519" x2="156.45078" y2="14.90773"/><line class="cls-43" x1="196.45078" y1="23.35519" x2="196.45078" y2="14.90773"/><line class="cls-43" x1="236.45078" y1="23.35519" x2="236.45078" y2="14.90773"/><line class="cls-43" x1="276.45078" y1="23.35519" x2="276.45078" y2="14.90773"/><line class="cls-44" x1="88.45078" y1="19.13142" x2="88.45078" y2="23.43452"/><line class="cls-44" x1="102.45078" y1="19.1319" x2="102.45078" y2="23.43501"/><line class="cls-44" x1="128.45078" y1="19.13166" x2="128.45078" y2="23.43477"/><line class="cls-44" x1="142.45078" y1="19.13215" x2="142.45078" y2="23.43525"/><line class="cls-44" x1="168.45078" y1="19.13166" x2="168.45078" y2="23.43477"/><line class="cls-44" x1="182.45078" y1="19.13215" x2="182.45078" y2="23.43525"/><line class="cls-44" x1="248.45078" y1="19.13166" x2="248.45078" y2="23.43477"/><line class="cls-44" x1="262.45078" y1="19.13215" x2="262.45078" y2="23.43525"/><line class="cls-44" x1="208.45078" y1="19.13166" x2="208.45078" y2="23.43477"/><line class="cls-44" x1="222.45078" y1="19.13215" x2="222.45078" y2="23.43525"/></g></g></svg>