<svg xmlns="http://www.w3.org/2000/svg" xmlns:xlink="http://www.w3.org/1999/xlink" viewBox="0 0 384.2859 295.91394"><defs><style>.cls-1,.cls-14,.cls-17,.cls-18,.cls-19,.cls-20,.cls-21,.cls-29,.cls-44,.cls-45,.cls-46,.cls-5,.cls-9{fill:none;}.cls-2{fill:url(#radial-gradient);}.cls-3,.cls-38{fill:#ccc;}.cls-3{stroke:#231f20;}.cls-10,.cls-13,.cls-14,.cls-16,.cls-17,.cls-18,.cls-19,.cls-20,.cls-21,.cls-24,.cls-25,.cls-26,.cls-27,.cls-29,.cls-3,.cls-30,.cls-31,.cls-32,.cls-33,.cls-35,.cls-37,.cls-4,.cls-40,.cls-41,.cls-42,.cls-44,.cls-45,.cls-46,.cls-47,.cls-48,.cls-5,.cls-6,.cls-7,.cls-9{stroke-miterlimit:10;}.cls-3,.cls-4{stroke-width:2.32807px;}.cls-24,.cls-32,.cls-4{fill:#e6e7e8;}.cls-24,.cls-25,.cls-26,.cls-27,.cls-29,.cls-30,.cls-31,.cls-32,.cls-4,.cls-45,.cls-47,.cls-48,.cls-5{stroke:#221f1f;}.cls-5{stroke-width:1.74605px;}.cls-33,.cls-6{fill:#804d4d;}.cls-33,.cls-44,.cls-6{stroke:#5e3e3b;}.cls-44,.cls-6{stroke-width:2px;}.cls-7{fill:#dc847b;}.cls-10,.cls-13,.cls-14,.cls-16,.cls-7,.cls-9{stroke:#9e4b43;}.cls-10,.cls-13,.cls-16,.cls-7{stroke-width:1.54981px;}.cls-8{fill:url(#radial-gradient-2);}.cls-9{stroke-width:1.23984px;}.cls-10{fill:url(#radial-gradient-3);}.cls-11{fill:#c97970;}.cls-12{fill:#cc635c;}.cls-13{fill:url(#radial-gradient-4);}.cls-14{stroke-width:0.92988px;}.cls-15{fill:#b35750;}.cls-16{fill:url(#radial-gradient-5);}.cls-17,.cls-18,.cls-19,.cls-20,.cls-21,.cls-46{stroke:#ed1e79;}.cls-18{stroke-dasharray:1.90488 1.90488;}.cls-19,.cls-41{stroke-width:1.5px;}.cls-20{stroke-dasharray:1.21512 1.21512;}.cls-21{stroke-dasharray:2.22472 2.22472;}.cls-22{fill:#ed1e79;}.cls-23{fill:url(#radial-gradient-6);}.cls-24{stroke-width:2.53px;}.cls-25,.cls-26,.cls-30,.cls-31,.cls-32,.cls-47{stroke-width:1.8975px;}.cls-25{fill:url(#radial-gradient-7);}.cls-26{fill:url(#radial-gradient-8);}.cls-27{fill:#302d2f;}.cls-27,.cls-29{stroke-width:1.265px;}.cls-28,.cls-41,.cls-42{fill:#fff;}.cls-30{fill:url(#radial-gradient-9);}.cls-31{fill:url(#radial-gradient-10);}.cls-33,.cls-37{stroke-width:1.21973px;}.cls-34{clip-path:url(#clip-path);}.cls-35,.cls-37{stroke:#b3b3b3;}.cls-35{stroke-width:1.37724px;fill:url(#radial-gradient-11);}.cls-36{fill:url(#radial-gradient-12);}.cls-37{fill:#f2f2f2;}.cls-39{fill:#5e3e3b;}.cls-40{fill:#fcee21;stroke-width:2.43682px;}.cls-40,.cls-41,.cls-42{stroke:#000;}.cls-43{fill:#e6e6e6;fill-opacity:0.54;}.cls-45{stroke-width:0.58202px;}.cls-46{stroke-dasharray:1.83087 1.83087;}.cls-47{fill:url(#radial-gradient-13);}.cls-48{stroke-width:1.8899px;fill:url(#radial-gradient-14);}</style><radialGradient id="radial-gradient" cx="106.22548" cy="224.87425" r="164.52361" gradientTransform="matrix(0.96232, 0.27191, -0.11236, 0.39767, 29.26979, 106.56505)" gradientUnits="userSpaceOnUse"><stop offset="0.5" stop-color="#e6e6e6"/><stop offset="0.5" stop-color="#ccc"/></radialGradient><radialGradient id="radial-gradient-2" cx="723.08334" cy="251.19923" r="15.2173" gradientTransform="matrix(-0.96688, -0.41138, -0.46764, 0.89238, 889.02807, 260.37213)" gradientUnits="userSpaceOnUse"><stop offset="0.5" stop-color="#f0b2a7"/><stop offset="0.5" stop-color="#dc847b"/></radialGradient><radialGradient id="radial-gradient-3" cx="621.31188" cy="253.60225" r="19.5219" gradientTransform="matrix(-0.95378, 0.46789, 0.80734, 1.41271, 551.347, -440.53198)" xlink:href="#radial-gradient-2"/><radialGradient id="radial-gradient-4" cx="716.50298" cy="227.7021" r="26.34231" gradientTransform="matrix(-0.96688, -0.41138, -0.46764, 0.89238, 889.02807, 260.37213)" gradientUnits="userSpaceOnUse"><stop offset="0.5" stop-color="#f08f84"/><stop offset="0.50041" stop-color="#cc635c"/></radialGradient><radialGradient id="radial-gradient-5" cx="673.9551" cy="230.69057" r="49.15467" gradientTransform="matrix(-0.96688, -0.41138, -0.28581, 0.5454, 847.08149, 340.41808)" xlink:href="#radial-gradient-2"/><radialGradient id="radial-gradient-6" cx="318.51954" cy="206.92719" r="72.50198" gradientTransform="matrix(1, 0, 0, 1, 0, 0)" xlink:href="#radial-gradient"/><radialGradient id="radial-gradient-7" cx="396.65958" cy="157.11614" r="17.62104" gradientTransform="matrix(0.41363, 0.72446, -1.60328, 0.74052, 381.42221, -211.19895)" gradientUnits="userSpaceOnUse"><stop offset="0.5" stop-color="#808083"/><stop offset="0.50612" stop-color="#59595c"/></radialGradient><radialGradient id="radial-gradient-8" cx="277.83078" cy="233.58161" r="13.4548" gradientTransform="translate(239.95798 781.66864) rotate(-145.66904) scale(1 2.02912)" gradientUnits="userSpaceOnUse"><stop offset="0.5" stop-color="#b3b3b3"/><stop offset="0.5" stop-color="#999"/></radialGradient><radialGradient id="radial-gradient-9" cx="345.55531" cy="191.05658" r="26.25187" gradientTransform="matrix(-0.13116, -0.99136, 0.59883, -0.07923, 275.63041, 550.32373)" xlink:href="#radial-gradient-7"/><radialGradient id="radial-gradient-10" cx="-1065.28855" cy="230.19144" r="13.4548" gradientTransform="matrix(0.82579, -0.56397, -1.14437, -1.67564, 1508.70059, 15.11572)" xlink:href="#radial-gradient-8"/><clipPath id="clip-path"><path class="cls-1" d="M318.87028,239.35441c5.41162-5.32666,14.83154-16.3183,13.34619-28.53516-.67859-5.58118-3.71375-12.07611-7.54645-20.28119-2.04687-4.382-3.95221-7.928-5.32812-10.3764a111.31792,111.31792,0,0,0-5.8957,10.3764c-3.245,6.49848-6.84942,13.71668-7.54644,20.28119C304.50706,223.93607,314.646,235.16379,318.87028,239.35441Z"/></clipPath><radialGradient id="radial-gradient-11" cx="317.44688" cy="201.98747" r="63.32457" gradientUnits="userSpaceOnUse"><stop offset="0.49539" stop-color="#f2f2f2"/><stop offset="0.5" stop-color="#ccc"/></radialGradient><radialGradient id="radial-gradient-12" cx="318.4023" cy="221.19545" r="14.19599" gradientTransform="translate(0 44.18262) scale(1 0.80026)" gradientUnits="userSpaceOnUse"><stop offset="0.35718" stop-color="#b3b3b3"/><stop offset="0.63798" stop-color="#f2f2f2"/></radialGradient><radialGradient id="radial-gradient-13" cx="121.22214" cy="242.24403" r="28.13142" gradientTransform="matrix(-0.90507, -0.04764, 0.03085, -0.58615, 238.05484, 361.61181)" xlink:href="#radial-gradient-7"/><radialGradient id="radial-gradient-14" cx="269.26388" cy="590.08658" r="20.45553" gradientTransform="matrix(0.1462, -0.83583, 1.8288, 0.39458, -1078.65049, 194.90525)" xlink:href="#radial-gradient-8"/></defs><title>-1Asset 5</title><g id="Layer_2" data-name="Layer 2"><g id="Layer_1-2" data-name="Layer 1"><path class="cls-2" d="M111.71591,177.31372a34.01489,34.01489,0,0,1,13.19,3.20734c14.56977,6.89044,16.26606,20.92151,28.70075,41.58392a129.76464,129.76464,0,0,0,11.31555,16.13239c9.35748,11.28991,10.76538,13.55651,10.7193,14.81414a1.46749,1.46749,0,0,1-.06885.42585c-1.60638,5.30969-29.4751-.62677-56.48663-2.91462-43.70813-3.702-45.6695,5.49524-70.124-1.31481C20.96747,241.452-1.80225,222.34265.53375,215.88855c.76145-2.10376,4.01175-2.36969,23.00827-4.33227,19.67505-2.03272,29.51264-3.049,30.051-3.16614C82.70847,202.05743,87.563,176.34918,111.71591,177.31372Z"/><path class="cls-3" d="M56.377,212.55348a69.91722,69.91722,0,0,0-33.48912-3.7436A69.05978,69.05978,0,0,0,.53376,215.88857"/><path class="cls-3" d="M69.16662,168.32159c9.22845,5.07334,25.11114,14.48429,20.85135,22.23289s-27.049,10.90061-36.27741,5.82728S40.48422,180.91419,44.744,173.16559,59.93817,163.24826,69.16662,168.32159Z"/><path class="cls-4" d="M59.12853,210.82748c-6.52324,5.662-17.22742,7.20594-27.38672,3.16453-13.49713-5.36922-20.92142-18.56359-16.58262-29.47046s17.17547-11.31814,30.6726-5.94892c8.4357,3.35575,15.13287,8.17529,17.91021,13.98084"/><path class="cls-4" d="M175.57266,252.47736c3.60095-4.82679,5.54682-11.01752,5.54682-18.94947a17.5481,17.5481,0,0,0-1.98188-8.69427c-5.34729-9.69257-13.64251-12.28308-25.72338-21.46362-10.714-8.14185-7.61585-9.71436-15.67853-15.28724-14.56031-10.064-39.46149-15.16351-56.181-5.67578-6.01538,3.41352-13.54,11.38245-18.03382,8.83966a4.51239,4.51239,0,0,1-1.691-1.78405"/><polyline class="cls-5" points="177.537 221.566 173.718 223.176 177.537 227.362 180.569 227.362"/><path class="cls-5" d="M181.476,232.11437a12.65843,12.65843,0,0,1-5.30575,1.005c-3.1628-.09248-4.44659-.71715-5.45539-1.36167"/><path class="cls-6" d="M115.47551,217.62659c-29.18213-.09534-32.69806-.76245-35.46979-3.6983-1.41143-1.495-4.34307-5.53681-8.55224-5.59564-1.97223-.02753-2.56561.8388-4.08423.50488-4.119-.90564-7.68573-9.02313-5.21454-13.02283,1.90857-3.089,5.82623-1.14465,11.31256-4.85968a68.35445,68.35445,0,0,0,7.21619-5.41241c6.12134-4.93177,12.48914-5.72785,17.74036-6.50983a49.61683,49.61683,0,0,1,25.435,3.1427,51.33313,51.33313,0,0,1,14.53431,9.20355c4.8283,4.29871,13.36431,8.89844,11.71673,14.55817a4.92453,4.92453,0,0,1-.33331.78827c-1.91522,4.0542-6.199,7.01776-13.12006,9.05194C130.46739,217.59644,125.61443,217.65973,115.47551,217.62659Z"/><path class="cls-7" d="M78.41155,190.1186a3.98585,3.98585,0,0,0-3.32335-.76381,3.51019,3.51019,0,0,0-2.56334,3.73933c.44964,2.392,4.73786,3.64642,6.411,2.33868C80.28037,194.38191,80.14335,191.51437,78.41155,190.1186Z"/><path class="cls-8" d="M67.83706,204.02985c1.37784.61109,2.44124.12641,4.67121,1.045a9.31728,9.31728,0,0,1,1.59257.81421,38.04872,38.04872,0,0,0,3.10894,2.33792c4.75206,2.75106,11.68568,2.57277,12.16116,2.55643a7.486,7.486,0,0,1,3.187.41354c1.55294.605,1.84144,1.45612,2.88488,1.85568,2.30339.882,5.27765-1.35072,5.60128-1.59587,2.03359-1.54049,4.249-5.47315,3.06232-7.66538-.8578-1.58465-2.93721-1.23265-11.28573-2.91916a57.68067,57.68067,0,0,1-6.34025-1.44941c-6.69458-2.37124-6.78608-5.97858-11.79062-7.28508-5.09633-1.33046-11.28206.77067-11.93387,3.20331-.14424.53826.73327,2.09273,2.49425,5.17979C66.90144,203.41557,67.26273,203.77512,67.83706,204.02985Z"/><path class="cls-9" d="M62.75593,195.34107a12.55811,12.55811,0,0,1,4.93675-2.92572,13.47666,13.47666,0,0,1,6.12512-.43059,14.27925,14.27925,0,0,1,6.53877,2.67732"/><path class="cls-10" d="M151.44623,205.34023a25.34043,25.34043,0,0,1,5.3884,2.98971,14.22586,14.22586,0,0,1,5.04034,5.77734c.59235,1.38972,1.37747,3.2316.41054,4.60886-.81338,1.15857-2.54387,1.52884-4.07966,1.85744-1.56381.33463-1.98451.12843-3.28341.35876-2.54.45045-3.02517,1.61038-4.921,2.32425-.87418.32916-1.41664.32572-10.6658-1.45012-5.1807-.99467-5.14449-1.01932-5.897-1.08469-2.12925-.18491-2.95141-.03381-3.74333-.60328-1.61994-1.16488-1.34937-4.0766-.89335-5.697,2.16478-7.6912,15.59738-11.46945,20.50228-9.88963C149.41666,204.5681,150.30784,204.85937,151.44623,205.34023Z"/><path class="cls-11" d="M130.85226,218.69061a8.476,8.476,0,0,0,4.011-2.49872,20.34243,20.34243,0,0,1,2.12363-2.57463c.11554-.09718-.173.11405.04541-.03212.10631-.07113.21052-.14357.31949-.21074a6.73594,6.73594,0,0,1,.61829-.336,5.591,5.591,0,0,1,.649-.24979,10.2951,10.2951,0,0,1,1.00492-.27153c.30742-.06742.61748-.12106.92918-.16382a2.84537,2.84537,0,0,0,1.53868-.66381q1.09272-.82052,2.18543-1.641a1.439,1.439,0,0,0,.5004-1.90839,1.40456,1.40456,0,0,0-1.90839-.50039q-1.3907,1.04431-2.78145,2.08858l.704-.19044a10.1744,10.1744,0,0,0-6.02365,2.322,22.26226,22.26226,0,0,0-1.81886,2.2892,5.76911,5.76911,0,0,1-2.83874,1.85161c-1.71365.51885-.98331,3.21226.7416,2.69Z"/><path class="cls-12" d="M84.44175,201.11959c4.5608,2.04651,12.55963.19479,15.24572-5.26866,1.65238-3.36087,1.332-8.16442-1.50693-10.04039-4.80451-3.17483-14.54759,3.53864-17.16955,7.80885a4.49188,4.49188,0,0,0-.79428,2.73317C80.422,199.25869,84.02075,200.93068,84.44175,201.11959Z"/><path class="cls-13" d="M102.03887,179.69892a6.41548,6.41548,0,0,0-2.47807-2.41557c-.85969-.46117-1.761-.67958-5.40723-.93936-1.43819-.10249-3.2773-.23354-3.9679-.22221-4.75058.078-11.14655,4.89073-12.88572,11.16658-.40144,1.44876-1.62927,5.87927,1.24367,9.53426a10.50281,10.50281,0,0,0,4.74943,3.27729"/><path class="cls-14" d="M93.40219,191.24484a12.47511,12.47511,0,0,1-4.19463.49753,12.29675,12.29675,0,0,1-7.16561-2.84125"/><path class="cls-14" d="M91.6926,196.22293a12.75171,12.75171,0,0,1-7.64552-1.28194,10.47223,10.47223,0,0,1-2.49339-1.89072"/><path class="cls-9" d="M67.71572,203.62925a15.00713,15.00713,0,0,1,4.67121,1.045c2.49646,1.01422,2.554,1.90895,4.70151,3.15213,4.75216,2.7511,11.68577,2.57281,12.16125,2.55647a7.4855,7.4855,0,0,1,3.18689.4135c1.55294.605,1.84144,1.45612,2.88488,1.85568.98345.37662,2.64813.35609,5.60137-1.59583"/><path class="cls-11" d="M96.175,210.064c-.03515-.04335-.07032-.08667-.10491-.13047.09466.1199-.03257-.04342-.04865-.0654-.07924-.10835-.15764-.21715-.23324-.3281a9.97648,9.97648,0,0,1-.53946-.8873,8.67379,8.67379,0,0,1-.82958-2.258,8.56094,8.56094,0,0,1,.0826-3.932.93068.93068,0,0,0-1.79333-.4944A10.72475,10.72475,0,0,0,94.86,211.37907a.93608.93608,0,0,0,1.31505,0,.95157.95157,0,0,0,0-1.31506Z"/><path class="cls-14" d="M89.91539,202.18452a5.7702,5.7702,0,0,1,2.663-.75178,5.98687,5.98687,0,0,1,4.50079,2.01966"/><path class="cls-15" d="M95.88568,199.24416c.29-5.48924,1.39823-10.95479,4.36439-15.652,1.2818-2.02986-1.93551-3.89831-3.21171-1.87732-3.31528,5.2501-4.54841,11.39978-4.87222,17.52934a1.85977,1.85977,0,0,0,3.71954,0Z"/><path class="cls-16" d="M148.26167,200.99744c-.20451-.46355-.37381-.56082-1.7615-2.25985-1.71746-2.10275-2.18916-2.84873-2.93574-3.76643a27.03726,27.03726,0,0,0-8.16194-6.49343c-2.48178-1.29037-2.45574-.7729-5.085-2.16348-3.24369-1.71557-3.82075-2.7874-6.67088-4.55009a33.406,33.406,0,0,0-7.53978-3.30862c-5.03958-1.70657-7.55947-2.55989-10.71038-1.83815a12.28239,12.28239,0,0,0-5.8925,3.33318c-1.49957,1.505-2.35811,3.18707-4.061,10.45614-1.172,5.00281-1.75806,7.5042-1.81941,8.891a23.40093,23.40093,0,0,0,2.84507,13.0939c1.45307,2.55761,4.21518,7.41926,9.66158,9.04466,2.28537.68206,2.14185-.07161,9.40963.7813,4.55861.535,5.47648.93258,7.49892.47178,2.68663-.6121,4.52038-2.10052,6.77-3.9668,3.19252-2.64855,2.69663-3.26481,4.98-5.13113,4.83073-3.94854,8.231-2.15575,11.48594-5.88739C147.77688,205.98174,149.204,203.13349,148.26167,200.99744Z"/><path class="cls-11" d="M115.72408,218.70015c-.29731-.12193-.21237-.086-.48978-.20882q-.31838-.14093-.63339-.28927-.568-.26787-1.12394-.56058c-.68185-.35957-1.34992-.7471-1.9959-1.16785a12.37236,12.37236,0,0,1-2.883-2.6022,1.39968,1.39968,0,0,0-1.97258,0,1.43343,1.43343,0,0,0,0,1.97258,20.64843,20.64843,0,0,0,8.357,5.54614,1.39863,1.39863,0,0,0,1.7158-.9742,1.43784,1.43784,0,0,0-.9742-1.7158Z"/><path class="cls-14" d="M124.49565,219.20456c-1.26513-.02182-3.16134-.01349-5.47832.15885-2.41325.17948-2.69565.34444-3.56028.145-2.14889-.49567-2.53784-2.00656-5.12319-3.7358a14.955,14.955,0,0,0-3.67921-1.77286"/><path class="cls-14" d="M115.53979,222.2176a1.68022,1.68022,0,0,1-.204-1.61976,1.95579,1.95579,0,0,1,1.17013-1.0091"/><path class="cls-11" d="M100.42627,202.17644c-.03721-.02725-.07381-.0554-.11109-.08252.07307.05316.13944.11573.03029.02188-.09851-.0847-.2-.16551-.29657-.25252a7.1678,7.1678,0,0,1-.6676-.68708,5.63609,5.63609,0,0,1-1.10153-2.128,5.299,5.299,0,0,1-.01083-2.63287q.07077-.28483.16607-.56278.03894-.114.08168-.22656c.00507-.0133.11906-.28251.03754-.09792q.1324-.2998.29325-.58543a.93058.93058,0,0,0-1.60585-.93866,7.48622,7.48622,0,0,0-.7552,5.53862,7.78707,7.78707,0,0,0,3.00118,4.23971.93663.93663,0,0,0,1.27226-.33359.95122.95122,0,0,0-.3336-1.27226Z"/><path class="cls-9" d="M100.78586,202.89269a8.61032,8.61032,0,0,1-2.3277-3.06509,8.38762,8.38762,0,0,1-.22343-6.008"/><path class="cls-17" d="M109.471,121.94348q-.505,0-.99951-.04193"/><path class="cls-18" d="M106.592,121.588a11.66621,11.66621,0,0,1-2.65949-1.02978"/><path class="cls-17" d="M103.1088,120.07282q-.4206-.27154-.81586-.57721"/><path class="cls-19" d="M121.21644,110.198A11.74546,11.74546,0,0,1,109.471,121.94346"/><path class="cls-17" d="M119.88669,104.76428q.2309.44166.42474.90467"/><path class="cls-20" d="M120.7211,106.81232a11.67658,11.67658,0,0,1,.38672,1.7818"/><path class="cls-17" d="M121.17453,109.19861q.04165.49411.04193.99939"/><line class="cls-17" x1="134.34006" y1="110.198" x2="133.34006" y2="110.198"/><line class="cls-21" x1="131.11533" y1="110.198" x2="123.32883" y2="110.198"/><line class="cls-17" x1="122.21646" y1="110.198" x2="121.21646" y2="110.198"/><path class="cls-22" d="M124.69778,121.11316a2.12412,2.12412,0,0,1,1.89258,1.02246,5.41572,5.41572,0,0,1,.66211,2.93848,6.22593,6.22593,0,0,1-.65625,3.16113,2.07913,2.07913,0,0,1-1.88672,1.09863,2.15367,2.15367,0,0,1-1.9541-1.0459,5.97445,5.97445,0,0,1-.65332-3.12011,5.51373,5.51373,0,0,1,.68555-2.98535A2.15206,2.15206,0,0,1,124.69778,121.11316Zm1.377,3.62109q0-.082.00586-.22558t.00586-.208a5.40393,5.40393,0,0,0-.334-2.20313,1.10434,1.10434,0,0,0-1.05469-.69726,1.14188,1.14188,0,0,0-1.09277.78516,7.04774,7.04774,0,0,0-.36035,2.54882Zm-2.83008.42188v.27539a8.301,8.301,0,0,0,.32519,2.79785,1.12672,1.12672,0,0,0,1.09864.79981,1.10544,1.10544,0,0,0,1.09863-.78223,10.00776,10.00776,0,0,0,.30762-3.09082Z"/><path class="cls-22" d="M196.57962,154.19617v-8.58985h3.22266a3.98861,3.98861,0,0,1,1.5791.26075,2.03043,2.03043,0,0,1,.93164.80273,2.11608,2.11608,0,0,1,.33691,1.13379,1.94766,1.94766,0,0,1-.29883,1.03711,2.13365,2.13365,0,0,1-.90234.78516,2.24343,2.24343,0,0,1,1.19824.77929,2.08713,2.08713,0,0,1,.41895,1.30078,2.50907,2.50907,0,0,1-.25488,1.12207,2.17248,2.17248,0,0,1-.62989.79981,2.62867,2.62867,0,0,1-.94043.4248,5.7193,5.7193,0,0,1-1.38574.14356Zm1.13672-4.98047h1.85742a4.14444,4.14444,0,0,0,1.084-.09961,1.20492,1.20492,0,0,0,.65332-.42773,1.23218,1.23218,0,0,0,.21972-.75,1.38133,1.38133,0,0,0-.20508-.75293,1.03794,1.03794,0,0,0-.58593-.44532,4.89359,4.89359,0,0,0-1.30664-.12011h-1.7168Zm0,3.9668H199.855a4.92312,4.92312,0,0,0,.77344-.041,1.85325,1.85325,0,0,0,.65625-.23437,1.24445,1.24445,0,0,0,.43359-.47754,1.49472,1.49472,0,0,0,.16992-.72364,1.4274,1.4274,0,0,0-.24609-.835,1.298,1.298,0,0,0-.68262-.498,4.23206,4.23206,0,0,0-1.25683-.14356h-1.98633Z"/><path class="cls-22" d="M204.48392,154.19617v-6.22266h.94922v.94336a2.5743,2.5743,0,0,1,.67089-.873,1.17115,1.17115,0,0,1,.67676-.21093,2.05725,2.05725,0,0,1,1.084.33984l-.36328.97852a1.509,1.509,0,0,0-.77344-.22852,1.00446,1.00446,0,0,0-.6211.208,1.12672,1.12672,0,0,0-.39257.57715,4.10806,4.10806,0,0,0-.17579,1.23047v3.25781Z"/><path class="cls-22" d="M212.7515,152.19226l1.08984.13477a2.65906,2.65906,0,0,1-.95508,1.48242A3.2356,3.2356,0,0,1,208.94,153.496a3.28542,3.28542,0,0,1-.7998-2.3584,3.43843,3.43843,0,0,1,.80859-2.4375,2.73707,2.73707,0,0,1,2.09766-.86718,2.66028,2.66028,0,0,1,2.03906.84961,3.37572,3.37572,0,0,1,.791,2.39062q0,.09375-.00586.28125H209.23a2.3912,2.3912,0,0,0,.58008,1.57031,1.72653,1.72653,0,0,0,1.30078.54493,1.61385,1.61385,0,0,0,.99023-.30469A2.0226,2.0226,0,0,0,212.7515,152.19226Zm-3.4629-1.70508h3.47461a2.108,2.108,0,0,0-.39843-1.17773,1.61644,1.61644,0,0,0-1.30664-.60938,1.67545,1.67545,0,0,0-1.22168.48633A1.92482,1.92482,0,0,0,209.2886,150.48718Z"/><path class="cls-22" d="M214.9722,154.71179l1.02539.15235a.97715.97715,0,0,0,.35742.6914,1.75585,1.75585,0,0,0,1.07227.293,1.88306,1.88306,0,0,0,1.13086-.293,1.44178,1.44178,0,0,0,.53906-.82031,6.73585,6.73585,0,0,0,.07617-1.35352,2.16933,2.16933,0,0,1-1.72266.81446,2.34855,2.34855,0,0,1-1.98632-.92578,3.56514,3.56514,0,0,1-.70313-2.22071,4.133,4.133,0,0,1,.32227-1.64355,2.57828,2.57828,0,0,1,.93457-1.16309,2.52353,2.52353,0,0,1,1.43847-.41015,2.23073,2.23073,0,0,1,1.81641.89062v-.75h.97266v5.37891a5.10163,5.10163,0,0,1-.2959,2.05957,2.1643,2.1643,0,0,1-.9375.958,3.24911,3.24911,0,0,1-1.5791.35156,2.97775,2.97775,0,0,1-1.79883-.501A1.694,1.694,0,0,1,214.9722,154.71179Zm.87305-3.73828a2.69952,2.69952,0,0,0,.48632,1.78711,1.60428,1.60428,0,0,0,2.4375.00293,2.61173,2.61173,0,0,0,.49219-1.75488,2.55166,2.55166,0,0,0-.50683-1.72266,1.56727,1.56727,0,0,0-1.22168-.58008,1.52241,1.52241,0,0,0-1.19532.57129A2.53707,2.53707,0,0,0,215.84525,150.97351Z"/><path class="cls-22" d="M221.83939,154.19617v-6.22266h.94336v.87305a2.21778,2.21778,0,0,1,.77929-.73535,2.18941,2.18941,0,0,1,1.10742-.27832,2.04694,2.04694,0,0,1,1.13379.28711,1.53654,1.53654,0,0,1,.624.80273,2.234,2.234,0,0,1,1.92187-1.08984,1.89427,1.89427,0,0,1,1.42383.51269,2.19114,2.19114,0,0,1,.49805,1.5791v4.27149H229.2222v-3.91992a2.88614,2.88614,0,0,0-.10254-.91114.88255.88255,0,0,0-.37207-.44824,1.16147,1.16147,0,0,0-.63281-.16992,1.47275,1.47275,0,0,0-1.08985.43652,1.9226,1.9226,0,0,0-.43359,1.39746v3.61524h-1.05469v-4.043a1.77892,1.77892,0,0,0-.25781-1.05469.97633.97633,0,0,0-.84375-.35156,1.53261,1.53261,0,0,0-.82324.23437,1.32942,1.32942,0,0,0-.54785.68555,3.85872,3.85872,0,0,0-.16993,1.30078v3.22852Z"/><path class="cls-22" d="M235.896,153.42859a3.92715,3.92715,0,0,1-1.12793.70312,3.25924,3.25924,0,0,1-1.16309.20508,2.26235,2.26235,0,0,1-1.57617-.501,1.65358,1.65358,0,0,1-.55078-1.28028,1.70263,1.70263,0,0,1,.208-.835,1.72192,1.72192,0,0,1,.54492-.60644,2.56234,2.56234,0,0,1,.75879-.34571,7.53758,7.53758,0,0,1,.9375-.1582,9.64041,9.64041,0,0,0,1.88086-.36328q.00585-.2168.00586-.27539a1.16439,1.16439,0,0,0-.29883-.9082,1.765,1.765,0,0,0-1.20117-.35743,1.86261,1.86261,0,0,0-1.09864.26075,1.59312,1.59312,0,0,0-.52441.92285l-1.03125-.14063a2.55526,2.55526,0,0,1,.46289-1.06933,2.02892,2.02892,0,0,1,.93164-.627,4.15552,4.15552,0,0,1,1.41211-.21972,3.73754,3.73754,0,0,1,1.29492.1875,1.70616,1.70616,0,0,1,.73242.47168,1.6589,1.6589,0,0,1,.32813.71777,5.93937,5.93937,0,0,1,.05273.97266v1.40625a14.92387,14.92387,0,0,0,.06739,1.86035,2.34687,2.34687,0,0,0,.2666.74707H236.107A2.23633,2.23633,0,0,1,235.896,153.42859Zm-.08789-2.35547a7.73842,7.73842,0,0,1-1.72266.39844,3.98437,3.98437,0,0,0-.91992.21094.91705.91705,0,0,0-.416.34277.93226.93226,0,0,0,.17285,1.2041,1.374,1.374,0,0,0,.93457.28125,2.17512,2.17512,0,0,0,1.084-.2666,1.64171,1.64171,0,0,0,.69726-.72949,2.54763,2.54763,0,0,0,.16993-1.05469Z"/><path class="cls-22" d="M47.03568,295.77332v-8.58985h1.13671v7.57617h4.23047v1.01368Z"/><path class="cls-22" d="M57.68216,295.00574a3.92737,3.92737,0,0,1-1.12793.70312,3.25928,3.25928,0,0,1-1.16309.20508,2.26231,2.26231,0,0,1-1.57617-.501,1.65354,1.65354,0,0,1-.55078-1.28027,1.70271,1.70271,0,0,1,.208-.835,1.722,1.722,0,0,1,.54492-.60645,2.56257,2.56257,0,0,1,.75879-.3457,7.53568,7.53568,0,0,1,.9375-.1582,9.64025,9.64025,0,0,0,1.88086-.36328q.00586-.21679.00586-.27539a1.16441,1.16441,0,0,0-.29883-.90821,1.76509,1.76509,0,0,0-1.20117-.35742,1.86263,1.86263,0,0,0-1.09863.26074,1.59319,1.59319,0,0,0-.52442.92286l-1.03125-.14063a2.5553,2.5553,0,0,1,.46289-1.06934,2.029,2.029,0,0,1,.93164-.627,4.15555,4.15555,0,0,1,1.41211-.21973,3.73754,3.73754,0,0,1,1.29492.1875,1.70623,1.70623,0,0,1,.73243.47168,1.659,1.659,0,0,1,.32812.71778,5.93772,5.93772,0,0,1,.05274.97265v1.40625a14.92686,14.92686,0,0,0,.06738,1.86036,2.3472,2.3472,0,0,0,.2666.74707H57.8931A2.23611,2.23611,0,0,1,57.68216,295.00574Zm-.08789-2.35547a7.73813,7.73813,0,0,1-1.72266.39844,3.985,3.985,0,0,0-.91992.21093.91705.91705,0,0,0-.416.34278.93223.93223,0,0,0,.17285,1.2041,1.374,1.374,0,0,0,.93457.28125,2.17505,2.17505,0,0,0,1.084-.2666,1.64173,1.64173,0,0,0,.69727-.72949,2.54786,2.54786,0,0,0,.16992-1.05469Z"/><path class="cls-22" d="M60.29544,295.77332v-6.22266h.94336v.87305a2.21781,2.21781,0,0,1,.7793-.73535,2.18941,2.18941,0,0,1,1.10742-.27833,2.047,2.047,0,0,1,1.13379.28711,1.53658,1.53658,0,0,1,.624.80274A2.23405,2.23405,0,0,1,66.80519,289.41a1.89428,1.89428,0,0,1,1.42384.5127,2.19108,2.19108,0,0,1,.49805,1.5791v4.27149H67.67825v-3.91993a2.88611,2.88611,0,0,0-.10254-.91113.88251.88251,0,0,0-.37207-.44824,1.16143,1.16143,0,0,0-.63281-.16992,1.47271,1.47271,0,0,0-1.08984.43652,1.9226,1.9226,0,0,0-.4336,1.39746v3.61524H63.99271v-4.043a1.77882,1.77882,0,0,0-.25782-1.05469.97628.97628,0,0,0-.84375-.35156,1.53264,1.53264,0,0,0-.82324.23437,1.32947,1.32947,0,0,0-.54785.68555,3.859,3.859,0,0,0-.16992,1.30078v3.22852Z"/><path class="cls-22" d="M71.26419,295.77332h-.97851v-8.58985h1.05468v3.06446a2.08692,2.08692,0,0,1,1.70508-.8379,2.61134,2.61134,0,0,1,1.08691.23145,2.2196,2.2196,0,0,1,.84375.65039,3.14385,3.14385,0,0,1,.51856,1.01074,4.16717,4.16717,0,0,1,.1875,1.26563,3.55456,3.55456,0,0,1-.791,2.47265,2.47405,2.47405,0,0,1-1.89843.87305,1.98146,1.98146,0,0,1-1.72852-.91992Zm-.01172-3.15821a3.22957,3.22957,0,0,0,.30469,1.61719,1.50751,1.50751,0,0,0,2.543.21387,2.7291,2.7291,0,0,0,.5039-1.79,2.77642,2.77642,0,0,0-.48339-1.79883,1.47216,1.47216,0,0,0-1.16895-.58008,1.51691,1.51691,0,0,0-1.19531.60059A2.63649,2.63649,0,0,0,71.25247,292.61511Z"/><path class="cls-22" d="M81.00247,295.77332v-.78516a1.93543,1.93543,0,0,1-1.74023.92578,2.4402,2.4402,0,0,1-1.36817-.41016,2.69717,2.69717,0,0,1-.96679-1.1455,3.95907,3.95907,0,0,1-.34278-1.69043,4.42447,4.42447,0,0,1,.31055-1.69043,2.4493,2.4493,0,0,1,.93164-1.16309,2.49077,2.49077,0,0,1,1.38867-.4043,2.07515,2.07515,0,0,1,1.7168.85547v-3.082H81.981v8.58985Zm-3.334-3.10547a2.70248,2.70248,0,0,0,.5039,1.78711,1.51944,1.51944,0,0,0,1.18946.59179,1.49158,1.49158,0,0,0,1.1748-.56543,2.6068,2.6068,0,0,0,.4834-1.72558,2.92623,2.92623,0,0,0-.49219-1.875,1.51385,1.51385,0,0,0-1.21289-.59766,1.4613,1.4613,0,0,0-1.1748.57422A2.83408,2.83408,0,0,0,77.66849,292.66785Z"/><path class="cls-22" d="M87.69974,295.00574a3.92737,3.92737,0,0,1-1.12793.70312,3.25924,3.25924,0,0,1-1.16309.20508,2.26231,2.26231,0,0,1-1.57617-.501,1.65354,1.65354,0,0,1-.55078-1.28027,1.70261,1.70261,0,0,1,.208-.835,1.722,1.722,0,0,1,.54492-.60645,2.56257,2.56257,0,0,1,.75879-.3457,7.53568,7.53568,0,0,1,.9375-.1582,9.64041,9.64041,0,0,0,1.88086-.36328q.00585-.21679.00586-.27539a1.16441,1.16441,0,0,0-.29883-.90821,1.76509,1.76509,0,0,0-1.20117-.35742,1.86269,1.86269,0,0,0-1.09864.26074,1.59323,1.59323,0,0,0-.52441.92286l-1.03125-.14063a2.5553,2.5553,0,0,1,.46289-1.06934,2.029,2.029,0,0,1,.93164-.627,4.15551,4.15551,0,0,1,1.41211-.21973,3.73754,3.73754,0,0,1,1.29492.1875,1.70625,1.70625,0,0,1,.73242.47168,1.659,1.659,0,0,1,.32813.71778,5.93806,5.93806,0,0,1,.05273.97265v1.40625a14.924,14.924,0,0,0,.06739,1.86036,2.3472,2.3472,0,0,0,.2666.74707H87.91068A2.23611,2.23611,0,0,1,87.69974,295.00574Zm-.08789-2.35547a7.73828,7.73828,0,0,1-1.72266.39844,3.985,3.985,0,0,0-.91992.21093.91713.91713,0,0,0-.416.34278.93226.93226,0,0,0,.17285,1.2041,1.374,1.374,0,0,0,.93458.28125,2.17508,2.17508,0,0,0,1.084-.2666,1.64173,1.64173,0,0,0,.69727-.72949,2.54819,2.54819,0,0,0,.16992-1.05469Z"/><polygon class="cls-22" points="109.146 170.839 113.953 169.441 114.448 170.884 109.796 172.731 109.146 170.839"/><polygon class="cls-22" points="115.875 168.881 120.682 167.483 120.961 168.298 116.309 170.145 115.875 168.881"/><polygon class="cls-22" points="122.604 166.924 127.41 165.525 127.475 165.713 122.822 167.56 122.604 166.924"/><polygon class="cls-22" points="129.333 164.966 129.42 164.94 129.336 164.974 129.333 164.966"/><path class="cls-22" d="M129.60919,167.60579v-5.72657h1.14063l1.35547,4.05469q.1875.56689.27344.84766.09741-.312.30468-.918l1.3711-3.98438H135.074v5.72657h-.73047v-4.793l-1.66406,4.793h-.6836l-1.65625-4.875v4.875Z"/><path class="cls-22" d="M136.26544,167.60579v-5.72657h.75782V166.93h2.82031v.67579Z"/><path class="cls-22" d="M138.63724,112.93005l2.19922-5.72656h.8164l2.34375,5.72656h-.86328l-.668-1.73437h-2.39453l-.6289,1.73437Zm1.65234-2.35156H142.231l-.59766-1.58594q-.27319-.72216-.40625-1.1875a7.29117,7.29117,0,0,1-.30859,1.09375Z"/><path class="cls-22" d="M144.60208,112.93005v-5.72656h2.16016a5.25145,5.25145,0,0,1,.87109.05469,1.72,1.72,0,0,1,.707.26758,1.404,1.404,0,0,1,.459.55273,1.86388,1.86388,0,0,1-.291,2.01758,2.23111,2.23111,0,0,1-1.67969.50586h-1.46875v2.32812Zm.75781-3.0039h1.48047a1.56763,1.56763,0,0,0,1.043-.27344.97482.97482,0,0,0,.3086-.76953,1.0364,1.0364,0,0,0-.18165-.61523.84809.84809,0,0,0-.47851-.3379,3.21589,3.21589,0,0,0-.707-.05078h-1.46485Z"/><path class="cls-23" d="M360.28234,238.36048c-3.95209,3.69855-8.63989,6.50091-11.18506,8.2691a50.80065,50.80065,0,0,1-30.94293,8.7276,51.65512,51.65512,0,0,1-27.569-9.14215c-4.04419-2.83349-6.47962-3.961-7.8335-5.57281-12.62872-15.03467,34.0409-73.69623,36.31958-76.52979"/><path class="cls-24" d="M282.75187,240.64225c-5.007-3.96871-9.58569-9.04124-9.10425-15.5687.63731-8.641,9.24185-20.76867,17.70757-35.67416,4.17849-7.357,5.19338-13.01662,14.628-19.89782,6.39733-4.666,10.43061-5.34582,13.08817-5.38913"/><ellipse class="cls-25" cx="295.69835" cy="190.39135" rx="12.33772" ry="8.12875" transform="translate(-23.28831 338.4923) rotate(-57.68105)"/><path class="cls-24" d="M290.99426,230.008c2.50553,6.48836.74922,15.01786-5.08858,21.608-7.75581,8.75539-19.77865,10.77232-26.85377,4.50494s-3.87806-16.10247,3.87774-24.85785c4.84738-5.47212,10.32826-9.22736,15.48458-9.74415"/><path class="cls-26" d="M279.86881,239.97746c-5.68642,5.30523-13.04651,6.658-16.43922,3.02153s-.26482-9.52555,5.42161-14.83078,11.778-8.01763,15.17075-4.38115S285.55523,234.67224,279.86881,239.97746Z"/><ellipse class="cls-27" cx="297.69135" cy="184.69388" rx="5.49948" ry="4.78005" transform="translate(-17.47975 337.66168) rotate(-57.70587)"/><path class="cls-28" d="M300.57547,182.265c-2.01859-.23492-2.745,3.06713-.72305,3.30244C301.871,185.80238,302.59742,182.50033,300.57547,182.265Z"/><path class="cls-29" d="M307.73533,170.53644a23.59384,23.59384,0,0,0-6.52722-3.10533,18.33113,18.33113,0,0,0-8.82907-.39438"/><path class="cls-29" d="M306.98369,174.055a23.59409,23.59409,0,0,0-6.751-2.583,18.331,18.331,0,0,0-8.83276.30037"/><path class="cls-29" d="M310.25955,170.39763a23.594,23.594,0,0,0-5.60649-4.56234,18.33113,18.33113,0,0,0-8.48471-2.4734"/><path class="cls-24" d="M355.39087,240.64222c5.007-3.96864,9.58571-9.04123,9.10427-15.56867-.63732-8.641-9.24186-20.76866-17.70757-35.67418-4.1785-7.357-5.19337-13.01659-14.628-19.8978-6.39734-4.666-10.43061-5.34583-13.08816-5.38915"/><ellipse class="cls-30" cx="342.4444" cy="190.39135" rx="8.12875" ry="12.33772" transform="translate(-48.73953 212.57618) rotate(-32.31895)"/><path class="cls-24" d="M347.1485,228.40694c-2.50553,6.48836-.74922,15.01786,5.08858,21.608,7.75581,8.75539,19.77865,10.77232,26.85377,4.50494s3.87806-16.10247-3.87774-24.85785c-4.84738-5.47211-10.32826-9.22735-15.48458-9.74415"/><path class="cls-31" d="M358.274,238.37642c5.68642,5.30522,13.04651,6.658,16.43922,3.02152s.26482-9.52555-5.4216-14.83078-11.778-8.01763-15.17075-4.38114S352.58753,233.07119,358.274,238.37642Z"/><ellipse class="cls-27" cx="340.4514" cy="184.69388" rx="4.78005" ry="5.49948" transform="translate(-46.01342 210.46062) rotate(-32.29413)"/><path class="cls-28" d="M342.08288,181.37948c2.01859-.23493,2.745,3.06713.72305,3.30244C340.78733,184.91684,340.06093,181.61479,342.08288,181.37948Z"/><path class="cls-29" d="M330.40743,170.53644a23.59377,23.59377,0,0,1,6.52721-3.10533,18.33113,18.33113,0,0,1,8.82907-.39438"/><path class="cls-29" d="M331.15907,174.055a23.5939,23.5939,0,0,1,6.751-2.583,18.331,18.331,0,0,1,8.83276.30037"/><path class="cls-32" d="M318.50271,166.6628h1.1395a4.50209,4.50209,0,0,1,4.50209,4.50209v.73655a1.318,1.318,0,0,1-1.318,1.318h-7.50761a1.318,1.318,0,0,1-1.318-1.318v-.73655a4.50209,4.50209,0,0,1,4.50209-4.50209Z"/><path class="cls-29" d="M327.88617,170.39735a23.59381,23.59381,0,0,1,5.60649-4.56234,18.33109,18.33109,0,0,1,8.48471-2.47339"/><path class="cls-33" d="M318.93094,240.37443c5.41162-5.32666,14.83155-16.3183,13.34619-28.53516-.67858-5.58117-3.71374-12.07611-7.54644-20.28118-2.04688-4.382-3.95221-7.928-5.32813-10.37641a111.3186,111.3186,0,0,0-5.89569,10.37641c-3.245,6.49847-6.84943,13.71667-7.54645,20.28118C304.56772,224.9561,314.70664,236.18382,318.93094,240.37443Z"/><g class="cls-34"><path class="cls-35" d="M305.13662,238.554c2.54656,1.90429,11.29182,7.81446,21.08672,2.57275,6.207-3.32164,16.2997-12.97529,16.2206-27.01422-.06093-10.81492-6.12413-18.17212-8.1103-20.58213-.58941-.7152-13.22972-15.54274-24.73643-4.50242-6.3381,6.08123-9.98636,17.7599-9.73234,30.23019"/><path class="cls-36" d="M308.96585,226.88365c1.99909,4.3601,9.244,4.45794,12.69056,3.95727,4.6062-.66919,9.78662-3.4765,9.61895-5.94482-.10943-1.61164-2.4038-1.67816-6.387-4.90552-4.69263-3.80225-4.72125-6.31342-6.92578-6.57947C313.68619,212.895,306.47989,221.46165,308.96585,226.88365Z"/><path class="cls-37" d="M336.8992,204.01158c-2.01507-7.07123-4.85327-9.36713-7.11859-10.13025-3.36621-1.134-4.67938,1.3822-11.49926,1.6427-6.043.23083-8.56159-1.60913-11.773.2738a9.43606,9.43606,0,0,0-3.83307,4.92829"/><path class="cls-37" d="M318.28135,195.524a72.83492,72.83492,0,0,1,.2738,19.98681c-.88483,6.95923-2.18805,8.80121-3.55927,9.85645-4.83532,3.721-13.07965-.36932-13.96337-.82135"/><path class="cls-37" d="M337.44675,225.9149a13.638,13.638,0,0,1-15.05853-2.73792c-4.4798-4.60095-3.55036-10.84772-3.4353-11.54095"/><path class="cls-38" d="M308.28818,210.80455c-.2633,8.21105.95435,14.08581-.75183,14.64025-.66681.21668-1.44342-.48864-1.98511-.99255-4.23608-3.94055-3.06341-11.53986-2.77435-13.45166,1.17352-7.76086,5.622-14.28076,6.752-13.84381C310.4451,197.511,308.581,201.67424,308.28818,210.80455Z"/><path class="cls-38" d="M312.18137,190.38784c1.15215-2.63446,1.00244-4.29266,1.41091-4.24373.513.06145,1.62858,2.78252.67722,5.03012-.973,2.29879-3.8135,3.406-4.21243,3.07938C309.74733,194,311.04284,192.99118,312.18137,190.38784Z"/></g><path class="cls-39" d="M318.87027,239.37445a55.95827,55.95827,0,0,0,9.56256-13.26807,26.347,26.347,0,0,0,2.95667-15.55255,37.74168,37.74168,0,0,0-2.25806-7.72393c-.9881-2.52863-2.12714-5.016-3.28583-7.49884-1.17584-2.47791-2.31494-4.98346-3.53155-7.42237q-1.82667-3.66879-3.84327-7.23736l1.7121.05q-2.21549,3.44118-4.17889,7.03771c-1.3042,2.38727-2.50946,4.86445-3.73175,7.31824-2.40033,4.8996-4.67407,9.92951-5.51319,15.22A27.441,27.441,0,0,0,309.4982,225.955,52.86,52.86,0,0,0,318.87027,239.37445Zm0,0a49.87647,49.87647,0,0,1-10.25043-12.9823,31.29951,31.29951,0,0,1-2.94574-7.85248,26.14309,26.14309,0,0,1-.46283-8.44818,36.25282,36.25282,0,0,1,2.08-8.16742c.96112-2.62518,2.093-5.16766,3.275-7.67029,1.19507-2.49334,2.40241-4.96862,3.71888-7.4251q1.97387-3.66871,4.21569-7.18653l.89484-1.40082.81744,1.45087c2.71528,4.81946,5.09522,9.84064,7.34845,14.85217,1.12354,2.5188,2.23328,5.05316,3.20282,7.66382a36.49589,36.49589,0,0,1,2.16431,8.13111,23.88518,23.88518,0,0,1-.53522,8.44055,31.74218,31.74218,0,0,1-3.0982,7.77917A52.56972,52.56972,0,0,1,318.87027,239.37445Z"/><path class="cls-39" d="M317.66409,178.157a4.21232,4.21232,0,0,1,.91455-1.80414,1.67516,1.67516,0,0,1,.46308-.37585,1.105,1.105,0,0,1,.7691-.12842,1.12366,1.12366,0,0,1,.65149.46,4.12652,4.12652,0,0,1,.28711.46839c.28308.58307.54529,1.096.86279,1.62652.31653.52533.67054,1.038,1.04248,1.5979a4.51871,4.51871,0,0,1-1.65814-1.1184,6.51285,6.51285,0,0,1-1.13391-1.64515,1.69574,1.69574,0,0,0-.28571-.47448c-.00994-.058-.25537.01452-.48358.17205C318.6282,177.256,318.177,177.7301,317.66409,178.157Z"/><path class="cls-39" d="M335.09622,215.28705a8.28145,8.28145,0,0,1,.42938,2.6607,12.25452,12.25452,0,0,1-1.05749,5.164,8.3564,8.3564,0,0,1-1.43622,2.27972l-.09387-.03449a39.23558,39.23558,0,0,0,2.05835-10.075Z"/><path class="cls-39" d="M302.16647,212.02039a8.28128,8.28128,0,0,1-.30047-2.67835,12.25518,12.25518,0,0,1,1.30542-5.10687,8.35506,8.35506,0,0,1,1.54455-2.20776l.09211.039a39.23619,39.23619,0,0,0-2.54212,9.96386Z"/><polyline class="cls-17" points="318.132 190.372 318.132 150.703 245.213 150.703"/><circle class="cls-22" cx="318.13205" cy="190.25928" r="2.25586"/><polyline class="cls-17" points="319.071 230.85 319.071 291.961 96.624 291.961"/><circle class="cls-22" cx="319.07138" cy="230.96246" r="2.25586"/><path d="M68.79642,34.94275h6.63916c4.55908,0,6.51855,2.11963,6.51855,6.439v1.11963c0,2.8794-.87988,4.6792-2.83935,5.479v.08008c2.35937.7998,3.27929,2.87939,3.27929,5.83886V56.2992c0,4.31884-2.27929,6.63867-6.67871,6.63867H68.79642Zm6.11914,11.398c1.63963,0,2.63963-.71973,2.63963-2.95947V41.82117c0-1.99951-.68016-2.8794-2.23973-2.8794H73.19583V46.3407Zm.7998,12.59766c1.47949,0,2.27979-.67969,2.27979-2.75928V53.73962c0-2.5996-.83985-3.39941-2.83985-3.39941H73.19583v8.59815Z"/><path d="M84.95609,34.94275h6.519c4.55908,0,6.519,2.11963,6.519,6.439v1.71973c0,2.8794-.91992,4.71875-2.87988,5.519v.07959c2.19971.68018,2.91992,2.75977,2.91992,5.919v4.91943a8.2448,8.2448,0,0,0,.47949,3.39942h-4.479a8.60344,8.60344,0,0,1-.3999-3.43946V54.37927c0-2.59961-.75977-3.43945-2.75977-3.43945H89.3555v11.998H84.95609Zm5.999,11.99756c1.63965,0,2.63965-.71973,2.63965-2.95947V41.82117c0-1.99951-.67969-2.8794-2.23975-2.8794H89.3555v7.99854Z"/><path d="M104.47562,34.94275h5.959l4.55957,27.99512h-4.39941l-.79981-5.55909v.08008h-4.99951l-.7998,5.479H99.91653Zm4.79931,18.7168-1.95947-13.83789h-.08008l-1.91992,13.83789Z"/><path d="M117.11527,34.94275h4.39941V62.93787h-4.39941Z"/><path d="M124.795,34.94275h5.519l4.27929,16.75684h.08008V34.94275h3.91943V62.93787h-4.51953l-5.27881-20.43653h-.08007V62.93787H124.795Z"/><path d="M147.99417,56.45886V41.42127c0-4.31885,2.23975-6.87842,6.479-6.87842s6.47851,2.55957,6.47851,6.87842v2.95947h-4.15918V41.14148c0-1.83984-.87988-2.59961-2.19971-2.59961s-2.19921.75977-2.19921,2.59961V56.77869c0,1.83984.87939,2.55957,2.19921,2.55957s2.19971-.71973,2.19971-2.55957v-4.2793h4.15918v3.95947c0,4.31934-2.23926,6.87891-6.47851,6.87891S147.99417,60.7782,147.99417,56.45886Z"/><path d="M163.354,56.2992V41.58142c0-4.479,2.35938-7.03857,6.67872-7.03857s6.67919,2.55957,6.67919,7.03857V56.2992c0,4.479-2.35986,7.03857-6.67919,7.03857S163.354,60.7782,163.354,56.2992Zm8.9585.27978V41.30164c0-2-.87988-2.75977-2.27978-2.75977-1.39942,0-2.2793.75977-2.2793,2.75977V56.579c0,1.99951.87988,2.75928,2.2793,2.75928C171.43265,59.33826,172.31253,58.57849,172.31253,56.579Z"/><path d="M179.35355,56.2992V41.58142c0-4.479,2.35937-7.03857,6.67871-7.03857s6.6792,2.55957,6.6792,7.03857V56.2992c0,4.479-2.35987,7.03857-6.6792,7.03857S179.35355,60.7782,179.35355,56.2992Zm8.95849.27978V41.30164c0-2-.87988-2.75977-2.27978-2.75977-1.39942,0-2.2793.75977-2.2793,2.75977V56.579c0,1.99951.87988,2.75928,2.2793,2.75928C187.43216,59.33826,188.312,58.57849,188.312,56.579Z"/><path d="M195.67337,34.94275h6.519c4.55909,0,6.519,2.11963,6.519,6.439v1.71973c0,2.8794-.91993,4.71875-2.87989,5.519v.07959c2.19971.68018,2.91944,2.75977,2.91944,5.919v4.91943a8.24453,8.24453,0,0,0,.48,3.39942h-4.479a8.60363,8.60363,0,0,1-.3999-3.43946V54.37927c0-2.59961-.75976-3.43945-2.75976-3.43945h-1.51954v11.998h-4.39941Zm5.999,11.99756c1.63965,0,2.63965-.71973,2.63965-2.95947V41.82117c0-1.99951-.68017-2.8794-2.23974-2.8794h-1.99952v7.99854Z"/><path d="M211.793,34.94275h6.71875c4.39941,0,6.55908,2.43945,6.55908,6.91846V56.01892c0,4.47949-2.15967,6.91895-6.55908,6.91895H211.793Zm6.63916,23.99561c1.39941,0,2.23926-.71973,2.23926-2.71924V41.6615c0-1.99951-.83985-2.71973-2.23926-2.71973h-2.23975V58.93836Z"/><path d="M228.03275,34.94275h4.39941V62.93787h-4.39941Z"/><path d="M235.71243,34.94275h5.519l4.27929,16.75684h.08008V34.94275h3.91943V62.93787h-4.51953l-5.27881-20.43653h-.08007V62.93787h-3.91944Z"/><path d="M256.19144,34.94275h5.959L266.71,62.93787h-4.39941l-.79981-5.55909v.08008h-4.99951l-.7998,5.479h-4.07911Zm4.79931,18.7168-1.95947-13.83789h-.08008l-1.91992,13.83789Z"/><path d="M270.43118,38.94177h-4.59912v-3.999h13.59766v3.999H274.8306v23.9961h-4.39942Z"/><path d="M281.07181,56.2992V41.58142c0-4.479,2.35937-7.03857,6.67871-7.03857s6.6792,2.55957,6.6792,7.03857V56.2992c0,4.479-2.35987,7.03857-6.6792,7.03857S281.07181,60.7782,281.07181,56.2992Zm8.95849.27978V41.30164c0-2-.87988-2.75977-2.27978-2.75977-1.39942,0-2.2793.75977-2.2793,2.75977V56.579c0,1.99951.87988,2.75928,2.2793,2.75928C289.15042,59.33826,290.0303,58.57849,290.0303,56.579Z"/><path d="M297.39163,34.94275h6.519c4.55908,0,6.519,2.11963,6.519,6.439v1.71973c0,2.8794-.91992,4.71875-2.87988,5.519v.07959c2.1997.68018,2.91992,2.75977,2.91992,5.919v4.91943a8.2448,8.2448,0,0,0,.47949,3.39942h-4.479a8.60336,8.60336,0,0,1-.39991-3.43946V54.37927c0-2.59961-.75976-3.43945-2.75976-3.43945h-1.51953v11.998h-4.39942Zm5.999,11.99756c1.63964,0,2.63964-.71973,2.63964-2.95947V41.82117c0-1.99951-.67968-2.8794-2.23974-2.8794h-1.99951v7.99854Z"/><rect class="cls-40" x="72.55038" y="1.21841" width="232.16674" height="22.13674"/><line class="cls-41" x1="88.12531" y1="23.35515" x2="88.12531" y2="14.90769"/><line class="cls-41" x1="128.12526" y1="23.35519" x2="128.12526" y2="14.90773"/><line class="cls-41" x1="168.12526" y1="23.35519" x2="168.12526" y2="14.90773"/><line class="cls-41" x1="208.12526" y1="23.35519" x2="208.12526" y2="14.90773"/><line class="cls-41" x1="248.12526" y1="23.35519" x2="248.12526" y2="14.90773"/><line class="cls-41" x1="288.12526" y1="23.35519" x2="288.12526" y2="14.90773"/><line class="cls-42" x1="100.12526" y1="19.13142" x2="100.12526" y2="23.43452"/><line class="cls-42" x1="114.12526" y1="19.1319" x2="114.12526" y2="23.43501"/><line class="cls-42" x1="140.12526" y1="19.13166" x2="140.12526" y2="23.43477"/><line class="cls-42" x1="154.12526" y1="19.13215" x2="154.12526" y2="23.43525"/><line class="cls-42" x1="180.12526" y1="19.13166" x2="180.12526" y2="23.43477"/><line class="cls-42" x1="194.12526" y1="19.13215" x2="194.12526" y2="23.43525"/><line class="cls-42" x1="260.12526" y1="19.13166" x2="260.12526" y2="23.43477"/><line class="cls-42" x1="274.12526" y1="19.13215" x2="274.12526" y2="23.43525"/><line class="cls-42" x1="220.12526" y1="19.13166" x2="220.12526" y2="23.43477"/><line class="cls-42" x1="234.12526" y1="19.13215" x2="234.12526" y2="23.43525"/><path class="cls-43" d="M61.24606,194.82434c2.3371-2.82471,7.1781-2.31457,9.127-2.16168,19.20239,1.50653,19.89026-5.131,43.71313-2.642,7.50238.78388,25.97363,2.72309,35.13318,10.41467,2.47772,2.08063,3.902,4.19135,8.33978,7.1186,4.20673,2.77484,7.60114,3.96142,8.93671,7.58172a8.5342,8.5342,0,0,1,.43042,4.1872c-1.20349,7.10193-16.19623,10.34381-19.45477,11.0484-10.65924,2.30481-18.10389,1.19635-67.49121-12.96985-5.942-1.70441-15.21064-4.499-18.6554-12.15015C61.16434,204.89478,58.31674,198.36481,61.24606,194.82434Z"/><path class="cls-44" d="M64.49871,192.85084a19.50432,19.50432,0,0,1,5.87431-.19009c19.20239,1.50653,19.89026-5.13105,43.71313-2.642,7.50238.78387,25.97363,2.72308,35.13318,10.41467,1.13786.9555,2.05356,1.91735,3.141,2.96171"/><path class="cls-45" d="M165.63533,230.49974a12.594,12.594,0,0,1-11.76993-1.00119"/><path class="cls-45" d="M165.17193,232.85048a12.594,12.594,0,0,1-11.812-.09747"/><path class="cls-45" d="M165.4062,228.74913a12.594,12.594,0,0,1-11.03174-4.22308"/><line class="cls-22" x1="109.47098" y1="189.10915" x2="109.47098" y2="209.37287"/><line class="cls-17" x1="109.47098" y1="189.10913" x2="109.47098" y2="190.10913"/><line class="cls-46" x1="109.47098" y1="191.94" x2="109.47098" y2="205.67151"/><line class="cls-17" x1="109.47098" y1="206.58698" x2="109.47098" y2="207.58698"/><circle class="cls-22" cx="109.47098" cy="207.49298" r="1.87988"/><polyline class="cls-19" points="121.216 110.297 109.471 110.297 109.471 150.789 109.471 187.984"/><circle class="cls-22" cx="109.47098" cy="187.92481" r="1.18433"/><path class="cls-22" d="M114.17923,203.3905v-5.72656h1.97266a4.78478,4.78478,0,0,1,1.01953.082,1.93342,1.93342,0,0,1,.83984.41016,2.32583,2.32583,0,0,1,.67774.97851,3.83755,3.83755,0,0,1,.2246,1.36133,4.00153,4.00153,0,0,1-.15234,1.15625,2.80526,2.80526,0,0,1-.39062.834,2.07008,2.07008,0,0,1-.52149.51953,2.14,2.14,0,0,1-.68359.28711,3.88638,3.88638,0,0,1-.91992.09765Zm.75781-.67578h1.22266a2.9675,2.9675,0,0,0,.88867-.10547,1.26652,1.26652,0,0,0,.51367-.29687,1.80222,1.80222,0,0,0,.41992-.72461,3.54738,3.54738,0,0,0,.15039-1.10352,2.66312,2.66312,0,0,0-.29492-1.38086,1.48659,1.48659,0,0,0-.71679-.64648,2.96208,2.96208,0,0,0-.98047-.11719H114.937Z"/><path class="cls-22" d="M121.59329,203.3905l-2.21875-5.72656h.82031l1.48829,4.16016q.17945.49952.30078.9375.13257-.46875.30859-.9375l1.54688-4.16016h.77343l-2.24218,5.72656Z"/><path class="cls-47" d="M149.57119,217.07317c-.65315,5.13537-9.18611,8.17127-15.90994,7.22433s-11.64507-5.87764-10.99192-11.01305,6.63336-8.5308,13.35717-7.58382S150.22432,211.93779,149.57119,217.07317Z"/><circle class="cls-27" cx="136.11115" cy="215.00592" r="6.81819"/><path class="cls-28" d="M138.39789,211.31a2.37752,2.37752,0,0,0,0,4.755A2.37752,2.37752,0,0,0,138.39789,211.31Z"/><path class="cls-48" d="M33.02663,208.18032c-10.01856-4.40835-16.05557-12.71964-13.484-18.56378s11.81636-4.82307,21.83492-.41472,17.017,10.53462,14.44548,16.37876S43.04518,212.58867,33.02663,208.18032Z"/></g></g></svg>