<svg xmlns="http://www.w3.org/2000/svg" xmlns:xlink="http://www.w3.org/1999/xlink" viewBox="0 0 374.61142 295.91394"><defs><style>.cls-1,.cls-10,.cls-15,.cls-18,.cls-19,.cls-20,.cls-21,.cls-22,.cls-30,.cls-44,.cls-45,.cls-46,.cls-5{fill:none;}.cls-2{fill:#d0d2d3;stroke:#231f20;}.cls-10,.cls-11,.cls-14,.cls-15,.cls-17,.cls-18,.cls-19,.cls-2,.cls-20,.cls-21,.cls-22,.cls-25,.cls-26,.cls-27,.cls-28,.cls-30,.cls-31,.cls-32,.cls-33,.cls-35,.cls-37,.cls-4,.cls-40,.cls-41,.cls-42,.cls-44,.cls-45,.cls-46,.cls-47,.cls-5,.cls-6,.cls-7,.cls-8{stroke-miterlimit:10;}.cls-2,.cls-4{stroke-width:2.32807px;}.cls-25,.cls-3,.cls-33,.cls-4{fill:#e6e7e8;}.cls-25,.cls-26,.cls-27,.cls-28,.cls-30,.cls-31,.cls-32,.cls-33,.cls-4,.cls-45,.cls-47,.cls-5,.cls-7{stroke:#221f1f;}.cls-5{stroke-width:1.74605px;}.cls-6{fill:#804d4d;}.cls-44,.cls-6{stroke:#5e3e3b;}.cls-37,.cls-44,.cls-6{stroke-width:1.21973px;}.cls-7{stroke-width:1.8899px;fill:url(#radial-gradient);}.cls-8{fill:#dc847b;}.cls-10,.cls-11,.cls-14,.cls-15,.cls-17,.cls-8{stroke:#9e4b43;}.cls-11,.cls-14,.cls-17,.cls-8{stroke-width:1.54981px;}.cls-9{fill:url(#radial-gradient-2);}.cls-10{stroke-width:1.23984px;}.cls-11{fill:url(#radial-gradient-3);}.cls-12{fill:#c97970;}.cls-13{fill:#cc635c;}.cls-14{fill:url(#radial-gradient-4);}.cls-15{stroke-width:0.92988px;}.cls-16{fill:#b35750;}.cls-17{fill:url(#radial-gradient-5);}.cls-18,.cls-19,.cls-20,.cls-21,.cls-22,.cls-46{stroke:#ed1e79;}.cls-19{stroke-dasharray:1.90488 1.90488;}.cls-20,.cls-41{stroke-width:1.5px;}.cls-21{stroke-dasharray:1.21512 1.21512;}.cls-22{stroke-dasharray:2.22472 2.22472;}.cls-23{fill:#ed1e79;}.cls-24{fill:url(#radial-gradient-6);}.cls-25{stroke-width:2.53px;}.cls-26,.cls-27,.cls-31,.cls-32,.cls-33,.cls-47{stroke-width:1.8975px;}.cls-26{fill:url(#radial-gradient-7);}.cls-27{fill:url(#radial-gradient-8);}.cls-28{fill:#302d2f;}.cls-28,.cls-30{stroke-width:1.265px;}.cls-29,.cls-41,.cls-42{fill:#fff;}.cls-31{fill:url(#radial-gradient-9);}.cls-32{fill:url(#radial-gradient-10);}.cls-34{clip-path:url(#clip-path);}.cls-35,.cls-37{stroke:#b3b3b3;}.cls-35{stroke-width:1.37724px;fill:url(#radial-gradient-11);}.cls-36{fill:url(#radial-gradient-12);}.cls-37{fill:#f2f2f2;}.cls-38{fill:#ccc;}.cls-39{fill:#5e3e3b;}.cls-40{fill:#fcee21;stroke-width:2.43682px;}.cls-40,.cls-41,.cls-42{stroke:#000;}.cls-43{fill:#e6e6e6;fill-opacity:0.54;}.cls-45{stroke-width:0.58202px;}.cls-46{stroke-dasharray:1.83087 1.83087;}.cls-47{fill:url(#radial-gradient-13);}</style><radialGradient id="radial-gradient" cx="268.31203" cy="596.59497" r="20.45553" gradientTransform="matrix(-0.0825, -0.8445, 1.86773, -0.10853, -1062.21729, 502.16174)" gradientUnits="userSpaceOnUse"><stop offset="0.5" stop-color="#b3b3b3"/><stop offset="0.5" stop-color="#999"/></radialGradient><radialGradient id="radial-gradient-2" cx="710.01619" cy="256.18947" r="15.2173" gradientTransform="matrix(-1.00669, -0.4001, -0.45993, 0.9313, 894.80474, 239.18412)" gradientUnits="userSpaceOnUse"><stop offset="0.5" stop-color="#f0b2a7"/><stop offset="0.5" stop-color="#dc847b"/></radialGradient><radialGradient id="radial-gradient-3" cx="607.44679" cy="257.94409" r="19.5219" gradientTransform="matrix(-0.97146, 0.5058, 0.867, 1.43608, 523.07809, -464.21576)" xlink:href="#radial-gradient-2"/><radialGradient id="radial-gradient-4" cx="703.43583" cy="232.69235" r="26.34231" gradientTransform="matrix(-1.00669, -0.4001, -0.45993, 0.9313, 894.80474, 239.18412)" gradientUnits="userSpaceOnUse"><stop offset="0.5" stop-color="#f08f84"/><stop offset="0.50041" stop-color="#cc635c"/></radialGradient><radialGradient id="radial-gradient-5" cx="660.88795" cy="235.68081" r="49.15467" gradientTransform="matrix(-1.00669, -0.4001, -0.2811, 0.56918, 852.65716, 324.52794)" xlink:href="#radial-gradient-2"/><radialGradient id="radial-gradient-6" cx="308.84506" cy="206.92719" r="72.50198" gradientUnits="userSpaceOnUse"><stop offset="0.5" stop-color="#e6e6e6"/><stop offset="0.5" stop-color="#ccc"/></radialGradient><radialGradient id="radial-gradient-7" cx="386.9851" cy="157.11614" r="17.62104" gradientTransform="matrix(0.41363, 0.72446, -1.60328, 0.74052, 375.74942, -204.19017)" gradientUnits="userSpaceOnUse"><stop offset="0.5" stop-color="#808083"/><stop offset="0.50612" stop-color="#59595c"/></radialGradient><radialGradient id="radial-gradient-8" cx="268.1563" cy="233.58161" r="13.4548" gradientTransform="translate(222.29437 776.2125) rotate(-145.66904) scale(1 2.02912)" xlink:href="#radial-gradient"/><radialGradient id="radial-gradient-9" cx="335.88083" cy="191.05658" r="26.25187" gradientTransform="matrix(-0.13116, -0.99136, 0.59883, -0.07923, 264.68702, 540.73283)" xlink:href="#radial-gradient-7"/><radialGradient id="radial-gradient-10" cx="-1074.96303" cy="230.19144" r="13.4548" gradientTransform="matrix(0.82579, -0.56397, -1.14437, -1.67564, 1507.01524, 9.65958)" xlink:href="#radial-gradient"/><clipPath id="clip-path"><path class="cls-1" d="M309.1958,239.35441c5.41162-5.32666,14.83154-16.3183,13.34619-28.53516-.67859-5.58118-3.71375-12.07611-7.54645-20.28119-2.04688-4.382-3.95221-7.928-5.32813-10.3764a111.32051,111.32051,0,0,0-5.89569,10.3764c-3.245,6.49848-6.84942,13.71668-7.54644,20.28119C294.83258,223.93607,304.97149,235.16379,309.1958,239.35441Z"/></clipPath><radialGradient id="radial-gradient-11" cx="307.7724" cy="201.98747" r="63.32457" gradientUnits="userSpaceOnUse"><stop offset="0.49539" stop-color="#f2f2f2"/><stop offset="0.5" stop-color="#ccc"/></radialGradient><radialGradient id="radial-gradient-12" cx="308.72781" cy="221.19545" r="14.19599" gradientTransform="translate(0 44.18262) scale(1 0.80026)" gradientUnits="userSpaceOnUse"><stop offset="0.35718" stop-color="#b3b3b3"/><stop offset="0.63798" stop-color="#f2f2f2"/></radialGradient><radialGradient id="radial-gradient-13" cx="111.54766" cy="242.24403" r="28.13142" gradientTransform="matrix(-0.90507, -0.04764, 0.03085, -0.58615, 219.62428, 361.15097)" xlink:href="#radial-gradient-7"/></defs><title>-1Asset 3</title><g id="Layer_2" data-name="Layer 2"><g id="Layer_1-2" data-name="Layer 1"><path class="cls-2" d="M57.15458,172.10308c9.60818,4.31112,26.19932,12.408,22.57952,20.47548s-26.0798,13.05044-35.688,8.73932S29.58339,186.972,33.20319,178.9045,47.5464,167.792,57.15458,172.10308Z"/><path class="cls-3" d="M102.04141,176.3137a36.75618,36.75618,0,0,1,13.19,3.20735c14.56975,6.89042,16.26607,20.9215,28.70072,41.584,14.12472,23.47067,24.067,25.52478,21.966,31.37237-4.7664,13.26633-59.93341,13.81552-98.14065-13.30113-9.19931-6.52894-24.74724-17.56382-23.84395-31.03491C45.1579,189.58571,77.11541,173.87068,102.04141,176.3137Z"/><path class="cls-4" d="M165.89818,252.47738c3.601-4.82679,5.54679-11.01754,5.54679-18.94951,0-17.71757-17.35707-15.38-27.70521-30.1579-9.1736-13.10093-8.89736-13.89012-18.80274-20.10489-11.34266-7.11649-23.29859-6.68012-29.802-6.615-6.92353.0692-13.54767.13541-21.20612,3.45643-8.91824,3.86738-11.27018,8.69275-20.08257,11.14018a34.297,34.297,0,0,1-15.25195.56624"/><polyline class="cls-5" points="167.863 222.566 164.044 224.176 167.863 228.362 170.895 228.362"/><path class="cls-5" d="M171.80153,233.11437a12.65845,12.65845,0,0,1-5.30576,1.005c-3.16279-.09248-4.44658-.71715-5.45538-1.36167"/><path class="cls-6" d="M127.93145,219.63983c6.92108-2.03418,11.20483-4.99774,13.12005-9.05194a4.92415,4.92415,0,0,0,.33331-.78827c1.64759-5.65973-6.88842-13.25946-11.71673-17.55816a51.333,51.333,0,0,0-14.5343-9.20356,49.617,49.617,0,0,0-25.435-3.1427c-5.25122.782-11.619,1.57807-17.74036,6.50983-3.64117,2.93359-3.18493,5.68268-7.21618,8.41241-5.48633,3.715-9.404,1.77063-11.31256,4.85968-2.4712,3.9997,1.09552,12.11719,5.21453,13.02283,1.51862.33393,2.112-.53241,4.08423-.50488,4.20917.05884,7.14081,4.10065,8.55225,5.59564,2.77173,2.93585,6.28766,3.603,35.46979,3.6983C116.88939,221.52216,121.74236,221.45886,127.93145,219.63983Z"/><path class="cls-4" d="M50.66628,213.52733c-4.77278,7.19942-14.675,11.54791-25.54484,10.36861-14.44113-1.56677-25.12161-12.297-23.85552-23.96675s13.52593-15.49667,27.96706-13.9299c9.0257.97923,16.7673,3.83362,20.99517,8.68576"/><path class="cls-7" d="M24.80634,217.95227c-10.83229-1.57051-18.87093-7.96608-17.9548-14.2849s10.09757-7.8056,20.92986-6.23509,19.21345,5.60359,18.29733,11.92241S35.63863,219.52278,24.80634,217.95227Z"/><path class="cls-8" d="M68.45579,196.67944a4.10926,4.10926,0,0,0-3.44412-.70512,3.61885,3.61885,0,0,0-2.54956,3.91732c.52252,2.45421,4.97322,3.64117,6.66535,2.252C70.48724,201.0273,70.27518,198.07522,68.45579,196.67944Z"/><path class="cls-9" d="M57.90075,211.27851c1.43518.59579,2.51922.07,4.84026.96167a9.60688,9.60688,0,0,1,1.66152.79983,39.22771,39.22771,0,0,0,3.262,2.3328c4.96575,2.718,12.10757,2.363,12.59722,2.33435a7.7178,7.7178,0,0,1,3.29493.34749c1.6155.58513,1.93387,1.45527,3.01918,1.8413,2.39581.85215,5.40612-1.52253,5.73361-1.78319,2.05789-1.638,4.24406-5.746,2.96683-7.97609-.92325-1.612-3.05772-1.19787-11.70391-2.72983a59.466,59.466,0,0,1-6.57047-1.33722c-6.95844-2.27855-7.14187-5.99424-12.33215-7.21715-5.28546-1.24535-11.609,1.073-12.22066,3.59638-.13536.55833.80747,2.13877,2.69872,5.277C56.92127,210.66851,57.30251,211.03016,57.90075,211.27851Z"/><path class="cls-10" d="M52.44914,202.44885a12.947,12.947,0,0,1,5.01585-3.13741,13.8938,13.8938,0,0,1,6.3023-.59512,14.72155,14.72155,0,0,1,6.80542,2.59786"/><path class="cls-11" d="M144.106,210.56339a26.12555,26.12555,0,0,1,5.6275,2.94825,14.6664,14.6664,0,0,1,5.33763,5.83c.64485,1.4177,1.49954,3.29666.537,4.74-.8097,1.21419-2.58411,1.63857-4.15886,2.01519-1.6035.38352-2.04219.18139-3.37523.45088-2.60674.527-3.07815,1.7345-5.01442,2.5171-.89285.36085-1.452.3707-11.02868-1.23108-5.36413-.89717-5.32742-.92346-6.1046-.97224-2.1991-.138-3.04274.03807-3.873-.5293-1.69839-1.16058-1.49146-4.16827-1.06149-5.84958,2.04114-7.98052,15.79228-12.2065,20.88661-10.69942C141.99515,209.81773,142.92085,210.09591,144.106,210.56339Z"/><path class="cls-12" d="M123.16582,224.79985a8.6784,8.6784,0,0,0,4.01735-2.59355,26.05222,26.05222,0,0,1,2.17006-2.76072c.07753-.07121.20231-.16364.04928-.04788.10465-.07916.21407-.15365.32408-.2251a8.0079,8.0079,0,0,1,.699-.39631,8.111,8.111,0,0,1,1.7318-.5802c.3653-.08564.73469-.15551,1.10583-.2108a3.04338,3.04338,0,0,0,1.489-.80521q1.15621-.91234,2.31244-1.82467a1.40286,1.40286,0,0,0,0-1.97258,1.42942,1.42942,0,0,0-1.97258,0q-1.40754,1.11069-2.81513,2.22134l.98629-.40853a10.39668,10.39668,0,0,0-6.16959,2.54295,21.59114,21.59114,0,0,0-1.7678,2.35288,5.93819,5.93819,0,0,1-2.90157,2.01838c-1.69748.5587-.97053,3.25352.7416,2.69Z"/><path class="cls-13" d="M74.94269,207.86878c4.75121,1.99658,12.94956-.10955,15.583-5.80689,1.62-3.50475,1.17113-8.44767-1.8012-10.311-5.03026-3.15349-14.90623,4.00656-17.50309,8.47248a4.63094,4.63094,0,0,0-.75111,2.83661C70.75374,206.05012,74.50411,207.68447,74.94269,207.86878Z"/><path class="cls-14" d="M92.55017,185.35651a6.61416,6.61416,0,0,0-2.61374-2.42841c-.89744-.45407-1.83183-.65691-5.59624-.83458-1.48482-.0701-3.38356-.15973-4.09506-.131-4.89432.19772-11.36751,5.31609-13.005,11.82734-.378,1.5031-1.534,6.09981,1.51736,9.79589a10.82806,10.82806,0,0,0,4.976,3.26044"/><path class="cls-15" d="M83.93392,197.46985a12.86111,12.86111,0,0,1-4.311.61642,12.67742,12.67742,0,0,1-7.45553-2.75133"/><path class="cls-15" d="M82.29489,202.64283a13.14663,13.14663,0,0,1-7.91162-1.13236,10.7966,10.7966,0,0,1-2.61656-1.88709"/><path class="cls-10" d="M57.7658,210.86863a15.47131,15.47131,0,0,1,4.84025.96167c2.59807.98364,2.6795,1.90437,4.92355,3.13262,4.96585,2.71805,12.10767,2.363,12.59732,2.3344a7.7172,7.7172,0,0,1,3.29483.34745c1.6155.58513,1.93388,1.45527,3.01919,1.8413,1.02291.36387,2.73812.30158,5.7337-1.78315"/><path class="cls-12" d="M87.25282,216.834a9.13521,9.13521,0,0,1-.99863-1.43384,8.94953,8.94953,0,0,1-.91917-2.31127,8.81931,8.81931,0,0,1-.24134-2.37891,7.82475,7.82475,0,0,1,.21711-1.6909c.26281-1.16561-1.52977-1.66332-1.79334-.4944a11.02881,11.02881,0,0,0,2.42032,9.62437.93775.93775,0,0,0,1.315,0,.94919.94919,0,0,0,0-1.31505Z"/><path class="cls-15" d="M80.61048,208.83112a5.94885,5.94885,0,0,1,2.72613-.84062,6.17222,6.17222,0,0,1,4.6887,1.97038"/><path class="cls-16" d="M86.63417,205.699c.16346-5.672,1.14951-11.351,4.0961-16.27484,1.23221-2.059-1.9824-3.93149-3.2117-1.87732-3.28169,5.48373-4.42185,11.83388-4.60394,18.15216-.069,2.39433,3.65059,2.39234,3.71954,0Z"/><path class="cls-17" d="M140.71652,206.16611c-.22223-.47271-.39912-.56878-1.87134-2.28562-1.82208-2.1248-2.32667-2.882-3.11882-3.80939a27.8741,27.8741,0,0,0-8.57264-6.49088c-2.58976-1.26863-2.55013-.73593-5.29435-2.1042-3.38555-1.688-4.00678-2.77847-6.98785-4.52479a34.4402,34.4402,0,0,0-7.85272-3.22379c-5.23627-1.63439-7.85451-2.45162-11.08421-1.6299a12.66267,12.66267,0,0,0-5.99083,3.581c-1.50837,1.58817-2.35167,3.34306-3.92725,10.87709-1.08438,5.18518-1.62656,7.77774-1.65552,9.20861a24.12538,24.12538,0,0,0,3.25581,13.42511c1.56081,2.60014,4.52773,7.54261,10.1813,9.0833,2.37229.64651,2.20575-.12672,9.71746.57277,4.71161.43875,5.66745.82588,7.74052.301,2.75389-.69725,4.60708-2.27661,6.87957-4.2557,3.225-2.80864,2.69866-3.43154,5.00592-5.4115,4.8813-4.189,8.43008-2.42521,11.69268-6.3517C140.34,211.31522,141.7405,208.34438,140.71652,206.16611Z"/><path class="cls-12" d="M107.64045,225.26594c-.519-.19847-.77224-.29964-1.1836-.4817q-.5921-.262-1.17225-.55c-.71165-.35374-1.40977-.73665-2.086-1.15434a12.67921,12.67921,0,0,1-1.346-.94231,14.30331,14.30331,0,0,1-1.70375-1.66817,1.40212,1.40212,0,0,0-1.97258,0,1.42963,1.42963,0,0,0,0,1.97258,21.25332,21.25332,0,0,0,8.72255,5.51394,1.40074,1.40074,0,0,0,1.7158-.9742,1.43383,1.43383,0,0,0-.9742-1.7158Z"/><path class="cls-15" d="M116.67159,225.5187c-1.30446.00877-3.2586.0642-5.64237.29907-2.48282.24461-2.76981.4216-3.66588.2374-2.227-.45778-2.66523-2.00539-5.37258-3.72378a15.41833,15.41833,0,0,0-3.83583-1.73633"/><path class="cls-15" d="M107.51556,228.84539a1.73217,1.73217,0,0,1-.25032-1.66437,2.01633,2.01633,0,0,1,1.18107-1.069"/><path class="cls-12" d="M91.44891,208.59933c-.0764-.05318-.15122-.1083-.22635-.16323-.08367-.06115.14223.12145.00832.00589-.05637-.04864-.11568-.09419-.17236-.14252a7.37724,7.37724,0,0,1-.72142-.70557,5.68219,5.68219,0,0,1-1.18391-2.10357,5.52435,5.52435,0,0,1-.10915-2.79713,7.42116,7.42116,0,0,1,.33163-1.07465c.06491-.16717-.02553.05305.0147-.03515.02389-.05237.04736-.10492.07213-.15688.04414-.09262.09066-.184.13882-.27459.56164-1.05628-1.04313-1.997-1.60585-.93866a7.67888,7.67888,0,0,0-.63562,5.77146,8.012,8.012,0,0,0,3.1504,4.22045.93832.93832,0,0,0,1.27225-.3336.94892.94892,0,0,0-.33359-1.27225Z"/><path class="cls-10" d="M91.83177,209.29244a8.877,8.877,0,0,1-2.4748-3.10156,8.64732,8.64732,0,0,1-.37872-6.18672"/><path class="cls-18" d="M99.7965,121.94345q-.505,0-.99952-.04193"/><path class="cls-19" d="M96.91747,121.588a11.66621,11.66621,0,0,1-2.65949-1.02978"/><path class="cls-18" d="M93.43431,120.07278q-.42059-.27145-.81585-.57721"/><path class="cls-20" d="M111.542,110.198A11.74546,11.74546,0,0,1,99.7965,121.94346"/><path class="cls-18" d="M110.21221,104.76425q.2309.44164.42474.90466"/><path class="cls-21" d="M111.04662,106.81228a11.6796,11.6796,0,0,1,.38672,1.7818"/><path class="cls-18" d="M111.50005,109.19858q.04166.49419.04193.99945"/><line class="cls-18" x1="124.66558" y1="110.19797" x2="123.66558" y2="110.19797"/><line class="cls-22" x1="121.44084" y1="110.19797" x2="113.65435" y2="110.19797"/><line class="cls-18" x1="112.54198" y1="110.19797" x2="111.54198" y2="110.19797"/><path class="cls-23" d="M115.0233,121.11316a2.12412,2.12412,0,0,1,1.89258,1.02246,5.41572,5.41572,0,0,1,.66211,2.93848,6.22593,6.22593,0,0,1-.65625,3.16113,2.07914,2.07914,0,0,1-1.88672,1.09863,2.15366,2.15366,0,0,1-1.9541-1.0459,5.97445,5.97445,0,0,1-.65332-3.12011,5.51373,5.51373,0,0,1,.68555-2.98535A2.15206,2.15206,0,0,1,115.0233,121.11316Zm1.377,3.62109q0-.082.00586-.22558t.00586-.208a5.40393,5.40393,0,0,0-.334-2.20313,1.10435,1.10435,0,0,0-1.05469-.69726,1.14188,1.14188,0,0,0-1.09277.78516,7.04752,7.04752,0,0,0-.36035,2.54882Zm-2.83008.42188v.27539a8.301,8.301,0,0,0,.32519,2.79785,1.12672,1.12672,0,0,0,1.09864.79981,1.10544,1.10544,0,0,0,1.09863-.78223,10.00776,10.00776,0,0,0,.30762-3.09082Z"/><path class="cls-23" d="M186.90514,154.19617v-8.58985h3.22266a3.98861,3.98861,0,0,1,1.5791.26075,2.03043,2.03043,0,0,1,.93164.80273,2.11608,2.11608,0,0,1,.33691,1.13379,1.94766,1.94766,0,0,1-.29883,1.03711,2.13365,2.13365,0,0,1-.90234.78516,2.24343,2.24343,0,0,1,1.19824.77929,2.08713,2.08713,0,0,1,.41895,1.30078,2.509,2.509,0,0,1-.25489,1.12207,2.17236,2.17236,0,0,1-.62988.79981,2.62867,2.62867,0,0,1-.94043.4248,5.7193,5.7193,0,0,1-1.38574.14356Zm1.13672-4.98047h1.85742a4.14435,4.14435,0,0,0,1.084-.09961,1.20484,1.20484,0,0,0,.65332-.42773,1.23212,1.23212,0,0,0,.21973-.75,1.38133,1.38133,0,0,0-.20508-.75293,1.038,1.038,0,0,0-.58593-.44532,4.89359,4.89359,0,0,0-1.30664-.12011h-1.7168Zm0,3.9668h2.13867a4.92312,4.92312,0,0,0,.77344-.041,1.85325,1.85325,0,0,0,.65625-.23437,1.24445,1.24445,0,0,0,.43359-.47754,1.49472,1.49472,0,0,0,.16992-.72364,1.4274,1.4274,0,0,0-.24609-.835,1.298,1.298,0,0,0-.68262-.498,4.23206,4.23206,0,0,0-1.25683-.14356h-1.98633Z"/><path class="cls-23" d="M194.80944,154.19617v-6.22266h.94922v.94336a2.5743,2.5743,0,0,1,.67089-.873,1.17115,1.17115,0,0,1,.67676-.21093,2.05725,2.05725,0,0,1,1.084.33984l-.36329.97852a1.509,1.509,0,0,0-.77343-.22852,1.00446,1.00446,0,0,0-.6211.208,1.12672,1.12672,0,0,0-.39257.57715,4.10806,4.10806,0,0,0-.17579,1.23047v3.25781Z"/><path class="cls-23" d="M203.077,152.19226l1.08985.13477a2.65906,2.65906,0,0,1-.95508,1.48242,3.2356,3.2356,0,0,1-3.94629-.31348,3.28542,3.28542,0,0,1-.7998-2.3584,3.43843,3.43843,0,0,1,.80859-2.4375,2.73707,2.73707,0,0,1,2.09766-.86718,2.66028,2.66028,0,0,1,2.03906.84961,3.37571,3.37571,0,0,1,.791,2.39062q0,.09375-.00585.28125h-4.64063a2.3912,2.3912,0,0,0,.58008,1.57031,1.72651,1.72651,0,0,0,1.30078.54493,1.61385,1.61385,0,0,0,.99023-.30469A2.02252,2.02252,0,0,0,203.077,152.19226Zm-3.46289-1.70508h3.47461a2.108,2.108,0,0,0-.39843-1.17773,1.61644,1.61644,0,0,0-1.30664-.60938,1.67545,1.67545,0,0,0-1.22168.48633A1.92482,1.92482,0,0,0,199.61412,150.48718Z"/><path class="cls-23" d="M205.29772,154.71179l1.02539.15235a.97715.97715,0,0,0,.35742.6914,1.75585,1.75585,0,0,0,1.07227.293,1.88306,1.88306,0,0,0,1.13086-.293,1.44178,1.44178,0,0,0,.53906-.82031,6.73585,6.73585,0,0,0,.07617-1.35352,2.16933,2.16933,0,0,1-1.72266.81446,2.34854,2.34854,0,0,1-1.98632-.92578,3.56514,3.56514,0,0,1-.70313-2.22071,4.133,4.133,0,0,1,.32227-1.64355,2.57828,2.57828,0,0,1,.93457-1.16309,2.52353,2.52353,0,0,1,1.43847-.41015,2.23073,2.23073,0,0,1,1.81641.89062v-.75h.97266v5.37891a5.10163,5.10163,0,0,1-.2959,2.05957,2.1643,2.1643,0,0,1-.9375.958,3.24911,3.24911,0,0,1-1.5791.35156,2.97775,2.97775,0,0,1-1.79883-.501A1.694,1.694,0,0,1,205.29772,154.71179Zm.873-3.73828a2.69952,2.69952,0,0,0,.48633,1.78711,1.60428,1.60428,0,0,0,2.4375.00293,2.61173,2.61173,0,0,0,.49219-1.75488,2.55166,2.55166,0,0,0-.50684-1.72266,1.56724,1.56724,0,0,0-1.22168-.58008,1.52239,1.52239,0,0,0-1.19531.57129A2.53707,2.53707,0,0,0,206.17076,150.97351Z"/><path class="cls-23" d="M212.16491,154.19617v-6.22266h.94335v.87305a2.2179,2.2179,0,0,1,.7793-.73535,2.18941,2.18941,0,0,1,1.10742-.27832,2.04694,2.04694,0,0,1,1.13379.28711,1.53659,1.53659,0,0,1,.624.80273,2.234,2.234,0,0,1,1.92187-1.08984,1.89427,1.89427,0,0,1,1.42383.51269,2.19114,2.19114,0,0,1,.49805,1.5791v4.27149h-1.04883v-3.91992a2.88614,2.88614,0,0,0-.10254-.91114.88255.88255,0,0,0-.37207-.44824,1.16147,1.16147,0,0,0-.63281-.16992,1.47273,1.47273,0,0,0-1.08985.43652,1.9226,1.9226,0,0,0-.43359,1.39746v3.61524h-1.05469v-4.043a1.77892,1.77892,0,0,0-.25781-1.05469.97633.97633,0,0,0-.84375-.35156,1.53261,1.53261,0,0,0-.82324.23437,1.32949,1.32949,0,0,0-.54786.68555,3.859,3.859,0,0,0-.16992,1.30078v3.22852Z"/><path class="cls-23" d="M226.22155,153.42859a3.92729,3.92729,0,0,1-1.12793.70312,3.25924,3.25924,0,0,1-1.16309.20508,2.26235,2.26235,0,0,1-1.57617-.501,1.65358,1.65358,0,0,1-.55078-1.28028,1.70273,1.70273,0,0,1,.208-.835,1.722,1.722,0,0,1,.54493-.60644,2.56234,2.56234,0,0,1,.75879-.34571,7.53758,7.53758,0,0,1,.9375-.1582,9.64041,9.64041,0,0,0,1.88086-.36328q.00585-.2168.00585-.27539a1.16439,1.16439,0,0,0-.29882-.9082,1.76507,1.76507,0,0,0-1.20118-.35743,1.8626,1.8626,0,0,0-1.09863.26075,1.59312,1.59312,0,0,0-.52441.92285l-1.03125-.14063a2.55513,2.55513,0,0,1,.46289-1.06933,2.02892,2.02892,0,0,1,.93164-.627,4.15552,4.15552,0,0,1,1.41211-.21972,3.73754,3.73754,0,0,1,1.29492.1875,1.70616,1.70616,0,0,1,.73242.47168,1.6589,1.6589,0,0,1,.32813.71777,5.93937,5.93937,0,0,1,.05273.97266v1.40625a14.92677,14.92677,0,0,0,.06738,1.86035,2.34714,2.34714,0,0,0,.26661.74707h-1.10157A2.23633,2.23633,0,0,1,226.22155,153.42859Zm-.08789-2.35547a7.73842,7.73842,0,0,1-1.72266.39844,3.98423,3.98423,0,0,0-.91992.21094.91705.91705,0,0,0-.416.34277.93226.93226,0,0,0,.17285,1.2041,1.374,1.374,0,0,0,.93457.28125,2.17512,2.17512,0,0,0,1.084-.2666,1.64171,1.64171,0,0,0,.69726-.72949,2.5478,2.5478,0,0,0,.16993-1.05469Z"/><path class="cls-23" d="M37.36119,295.77332v-8.58985h1.13672v7.57617h4.23047v1.01368Z"/><path class="cls-23" d="M48.00768,295.00574a3.92737,3.92737,0,0,1-1.12793.70312,3.25928,3.25928,0,0,1-1.16309.20508,2.26231,2.26231,0,0,1-1.57617-.501,1.65354,1.65354,0,0,1-.55078-1.28027,1.70271,1.70271,0,0,1,.208-.835,1.722,1.722,0,0,1,.54492-.60645,2.56257,2.56257,0,0,1,.75879-.3457,7.53568,7.53568,0,0,1,.9375-.1582,9.64041,9.64041,0,0,0,1.88086-.36328q.00585-.21679.00586-.27539a1.16441,1.16441,0,0,0-.29883-.90821,1.76509,1.76509,0,0,0-1.20117-.35742,1.86269,1.86269,0,0,0-1.09864.26074,1.59323,1.59323,0,0,0-.52441.92286l-1.03125-.14063a2.5553,2.5553,0,0,1,.46289-1.06934,2.029,2.029,0,0,1,.93164-.627A4.15551,4.15551,0,0,1,46.578,289.41a3.73754,3.73754,0,0,1,1.29492.1875,1.70625,1.70625,0,0,1,.73242.47168,1.659,1.659,0,0,1,.32813.71778,5.93806,5.93806,0,0,1,.05273.97265v1.40625a14.92606,14.92606,0,0,0,.06739,1.86036,2.3472,2.3472,0,0,0,.2666.74707H48.21862A2.23611,2.23611,0,0,1,48.00768,295.00574Zm-.08789-2.35547a7.73813,7.73813,0,0,1-1.72266.39844,3.985,3.985,0,0,0-.91992.21093.91713.91713,0,0,0-.416.34278.93225.93225,0,0,0,.17286,1.2041,1.374,1.374,0,0,0,.93457.28125,2.17508,2.17508,0,0,0,1.084-.2666,1.64173,1.64173,0,0,0,.69727-.72949,2.54786,2.54786,0,0,0,.16992-1.05469Z"/><path class="cls-23" d="M50.621,295.77332v-6.22266h.94336v.87305a2.21781,2.21781,0,0,1,.7793-.73535A2.18939,2.18939,0,0,1,53.451,289.41a2.047,2.047,0,0,1,1.13379.28711,1.53658,1.53658,0,0,1,.624.80274A2.23405,2.23405,0,0,1,57.13071,289.41a1.89428,1.89428,0,0,1,1.42384.5127,2.19112,2.19112,0,0,1,.498,1.5791v4.27149H58.00377v-3.91993a2.88611,2.88611,0,0,0-.10254-.91113.88251.88251,0,0,0-.37207-.44824,1.16143,1.16143,0,0,0-.63281-.16992,1.47271,1.47271,0,0,0-1.08984.43652,1.92255,1.92255,0,0,0-.4336,1.39746v3.61524H54.31823v-4.043a1.77882,1.77882,0,0,0-.25782-1.05469.97628.97628,0,0,0-.84375-.35156,1.53264,1.53264,0,0,0-.82324.23437,1.32947,1.32947,0,0,0-.54785.68555,3.859,3.859,0,0,0-.16992,1.30078v3.22852Z"/><path class="cls-23" d="M61.58971,295.77332h-.97852v-8.58985h1.05469v3.06446A2.08691,2.08691,0,0,1,63.371,289.41a2.61134,2.61134,0,0,1,1.08691.23145,2.2196,2.2196,0,0,1,.84375.65039,3.14385,3.14385,0,0,1,.51856,1.01074,4.16717,4.16717,0,0,1,.1875,1.26563,3.55456,3.55456,0,0,1-.791,2.47265,2.47405,2.47405,0,0,1-1.89843.87305,1.98146,1.98146,0,0,1-1.72852-.91992Zm-.01172-3.15821a3.22957,3.22957,0,0,0,.30469,1.61719,1.50751,1.50751,0,0,0,2.543.21387,2.72916,2.72916,0,0,0,.5039-1.79,2.77642,2.77642,0,0,0-.48339-1.79883,1.47216,1.47216,0,0,0-1.169-.58008,1.51689,1.51689,0,0,0-1.19531.60059A2.63649,2.63649,0,0,0,61.578,292.61511Z"/><path class="cls-23" d="M71.328,295.77332v-.78516a1.93543,1.93543,0,0,1-1.74023.92578,2.4402,2.4402,0,0,1-1.36817-.41016,2.69717,2.69717,0,0,1-.96679-1.1455,3.95907,3.95907,0,0,1-.34278-1.69043,4.42447,4.42447,0,0,1,.31055-1.69043,2.4493,2.4493,0,0,1,.93164-1.16309,2.49077,2.49077,0,0,1,1.38867-.4043,2.07519,2.07519,0,0,1,1.7168.85547v-3.082h1.04883v8.58985Zm-3.334-3.10547a2.70248,2.70248,0,0,0,.5039,1.78711,1.51943,1.51943,0,0,0,1.18946.59179,1.49158,1.49158,0,0,0,1.1748-.56543,2.6068,2.6068,0,0,0,.4834-1.72558,2.92623,2.92623,0,0,0-.49219-1.875,1.51385,1.51385,0,0,0-1.21289-.59766,1.4613,1.4613,0,0,0-1.1748.57422A2.83408,2.83408,0,0,0,67.994,292.66785Z"/><path class="cls-23" d="M78.02526,295.00574a3.92737,3.92737,0,0,1-1.12793.70312,3.25924,3.25924,0,0,1-1.16309.20508,2.26231,2.26231,0,0,1-1.57617-.501,1.65354,1.65354,0,0,1-.55078-1.28027,1.70261,1.70261,0,0,1,.208-.835,1.722,1.722,0,0,1,.54492-.60645,2.56257,2.56257,0,0,1,.75879-.3457,7.53568,7.53568,0,0,1,.9375-.1582,9.64041,9.64041,0,0,0,1.88086-.36328q.00585-.21679.00586-.27539a1.16441,1.16441,0,0,0-.29883-.90821,1.76509,1.76509,0,0,0-1.20117-.35742,1.86269,1.86269,0,0,0-1.09864.26074,1.59318,1.59318,0,0,0-.52441.92286l-1.03125-.14063a2.5553,2.5553,0,0,1,.46289-1.06934,2.029,2.029,0,0,1,.93164-.627,4.15551,4.15551,0,0,1,1.41211-.21973,3.73754,3.73754,0,0,1,1.29492.1875,1.70625,1.70625,0,0,1,.73242.47168,1.659,1.659,0,0,1,.32813.71778,5.93922,5.93922,0,0,1,.05273.97265v1.40625a14.924,14.924,0,0,0,.06739,1.86036,2.347,2.347,0,0,0,.2666.74707H78.23619A2.23633,2.23633,0,0,1,78.02526,295.00574Zm-.08789-2.35547a7.73842,7.73842,0,0,1-1.72266.39844,3.985,3.985,0,0,0-.91992.21093.91713.91713,0,0,0-.416.34278.93226.93226,0,0,0,.17285,1.2041,1.374,1.374,0,0,0,.93457.28125,2.17512,2.17512,0,0,0,1.084-.2666,1.64171,1.64171,0,0,0,.69726-.72949,2.548,2.548,0,0,0,.16993-1.05469Z"/><polygon class="cls-23" points="99.472 170.839 104.278 169.441 104.773 170.884 100.121 172.731 99.472 170.839"/><polygon class="cls-23" points="106.201 168.881 111.007 167.483 111.287 168.298 106.634 170.145 106.201 168.881"/><polygon class="cls-23" points="112.93 166.924 117.736 165.525 117.8 165.713 113.148 167.56 112.93 166.924"/><polygon class="cls-23" points="119.658 164.966 119.745 164.94 119.661 164.974 119.658 164.966"/><path class="cls-23" d="M120.86089,166.36271v-5.72656h1.14063l1.35547,4.05469q.1875.56689.27344.84765.09741-.312.30468-.918l1.3711-3.98438h1.01953v5.72656h-.73047v-4.793l-1.66406,4.793h-.6836l-1.65625-4.875v4.875Z"/><path class="cls-23" d="M127.51714,166.36271v-5.72656h.75782v5.05078h2.82031v.67578Z"/><path class="cls-23" d="M128.96276,112.93005l2.19922-5.72656h.8164l2.34375,5.72656h-.86328l-.668-1.73437h-2.39453l-.62891,1.73437Zm1.65234-2.35156h1.94141l-.59766-1.58594q-.2732-.72216-.40625-1.1875a7.29117,7.29117,0,0,1-.30859,1.09375Z"/><path class="cls-23" d="M134.9276,112.93005v-5.72656h2.16016a5.25145,5.25145,0,0,1,.87109.05469,1.72,1.72,0,0,1,.707.26758,1.404,1.404,0,0,1,.459.55273,1.86394,1.86394,0,0,1-.291,2.01758,2.23111,2.23111,0,0,1-1.67969.50586h-1.46875v2.32812Zm.75781-3.0039h1.48047a1.56765,1.56765,0,0,0,1.043-.27344.97481.97481,0,0,0,.30859-.76953,1.0364,1.0364,0,0,0-.18164-.61523.84809.84809,0,0,0-.47851-.3379,3.21589,3.21589,0,0,0-.707-.05078h-1.46485Z"/><path class="cls-24" d="M350.60786,238.36048c-3.95209,3.69855-8.63989,6.50091-11.18506,8.2691a50.80065,50.80065,0,0,1-30.94293,8.7276,51.65512,51.65512,0,0,1-27.569-9.14215c-4.04419-2.83349-6.47962-3.961-7.8335-5.57281-12.62872-15.03467,34.04089-73.69623,36.31958-76.52979"/><path class="cls-25" d="M273.07739,240.64225c-5.007-3.96871-9.58569-9.04124-9.10425-15.5687.6373-8.641,9.24185-20.76867,17.70757-35.67416,4.17849-7.357,5.19338-13.01662,14.628-19.89782,6.39732-4.666,10.43061-5.34582,13.08816-5.38913"/><ellipse class="cls-26" cx="286.02387" cy="190.39135" rx="12.33772" ry="8.12875" transform="translate(-27.7905 330.31655) rotate(-57.68105)"/><path class="cls-25" d="M281.31978,230.008c2.50553,6.48836.74922,15.01786-5.08858,21.608-7.75581,8.75539-19.77865,10.77232-26.85377,4.50494s-3.87806-16.10247,3.87774-24.85785c4.84738-5.47212,10.32826-9.22736,15.48458-9.74415"/><path class="cls-27" d="M270.19433,239.97746c-5.68642,5.30523-13.04651,6.658-16.43922,3.02153s-.26482-9.52555,5.4216-14.83078,11.778-8.01763,15.17075-4.38115S275.88075,234.67224,270.19433,239.97746Z"/><ellipse class="cls-28" cx="288.01687" cy="184.69388" rx="5.49948" ry="4.78005" transform="translate(-21.98548 329.48368) rotate(-57.70587)"/><path class="cls-29" d="M290.901,182.265c-2.01859-.23492-2.745,3.06713-.72305,3.30244C292.19654,185.80238,292.92294,182.50033,290.901,182.265Z"/><path class="cls-30" d="M298.06084,170.53644a23.59377,23.59377,0,0,0-6.52721-3.10533,18.33113,18.33113,0,0,0-8.82907-.39438"/><path class="cls-30" d="M297.30921,174.055a23.59409,23.59409,0,0,0-6.751-2.583,18.331,18.331,0,0,0-8.83276.30037"/><path class="cls-30" d="M300.58507,170.39763a23.59421,23.59421,0,0,0-5.60649-4.56234,18.33119,18.33119,0,0,0-8.48471-2.4734"/><path class="cls-25" d="M345.71639,240.64222c5.007-3.96864,9.58571-9.04123,9.10427-15.56867-.63732-8.641-9.24186-20.76866-17.70757-35.67418-4.1785-7.357-5.19338-13.01659-14.628-19.8978-6.39734-4.666-10.43061-5.34583-13.08816-5.38915"/><ellipse class="cls-31" cx="332.76992" cy="190.39135" rx="8.12875" ry="12.33772" transform="translate(-50.23825 207.40389) rotate(-32.31895)"/><path class="cls-25" d="M337.474,228.40694c-2.50553,6.48836-.74922,15.01786,5.08858,21.608,7.75581,8.75539,19.77865,10.77232,26.85377,4.50494s3.87806-16.10247-3.87774-24.85785c-4.84738-5.47211-10.32826-9.22735-15.48458-9.74415"/><path class="cls-32" d="M348.59947,238.37642c5.68642,5.30522,13.04651,6.658,16.43922,3.02152s.26482-9.52555-5.42161-14.83078-11.778-8.01763-15.17074-4.38114S342.91305,233.07119,348.59947,238.37642Z"/><ellipse class="cls-28" cx="330.77692" cy="184.69388" rx="4.78005" ry="5.49948" transform="translate(-47.50991 205.29188) rotate(-32.29413)"/><path class="cls-29" d="M332.4084,181.37948c2.01859-.23493,2.745,3.06713.72305,3.30244C331.11285,184.91684,330.38645,181.61479,332.4084,181.37948Z"/><path class="cls-30" d="M320.733,170.53644a23.59377,23.59377,0,0,1,6.52721-3.10533,18.33113,18.33113,0,0,1,8.82907-.39438"/><path class="cls-30" d="M321.48458,174.055a23.59409,23.59409,0,0,1,6.751-2.583,18.331,18.331,0,0,1,8.83276.30037"/><path class="cls-33" d="M308.82823,166.6628h1.1395a4.50209,4.50209,0,0,1,4.50209,4.50209v.73655a1.318,1.318,0,0,1-1.318,1.318h-7.50761a1.318,1.318,0,0,1-1.318-1.318v-.73655a4.50209,4.50209,0,0,1,4.50209-4.50209Z"/><path class="cls-30" d="M318.21169,170.39735a23.59381,23.59381,0,0,1,5.60649-4.56234,18.33109,18.33109,0,0,1,8.48471-2.47339"/><path class="cls-6" d="M309.25646,240.37443c5.41162-5.32666,14.83154-16.3183,13.34619-28.53516-.67859-5.58117-3.71374-12.07611-7.54644-20.28118-2.04688-4.382-3.95221-7.928-5.32813-10.37641a111.3186,111.3186,0,0,0-5.89569,10.37641c-3.245,6.49847-6.84943,13.71667-7.54645,20.28118C294.89324,224.9561,305.03216,236.18382,309.25646,240.37443Z"/><g class="cls-34"><path class="cls-35" d="M295.46214,238.554c2.54656,1.90429,11.29182,7.81446,21.08672,2.57275,6.207-3.32164,16.2997-12.97529,16.2206-27.01422-.06093-10.81492-6.12413-18.17212-8.1103-20.58213-.58941-.7152-13.22973-15.54274-24.73643-4.50242-6.3381,6.08123-9.98637,17.7599-9.73234,30.23019"/><path class="cls-36" d="M299.29137,226.88365c1.99909,4.3601,9.244,4.45794,12.69056,3.95727,4.6062-.66919,9.78662-3.4765,9.619-5.94482-.10943-1.61164-2.40381-1.67816-6.387-4.90552-4.69263-3.80225-4.72125-6.31342-6.92578-6.57947C304.01171,212.895,296.80541,221.46165,299.29137,226.88365Z"/><path class="cls-37" d="M327.22472,204.01158c-2.01507-7.07123-4.85327-9.36713-7.11859-10.13025-3.36621-1.134-4.67938,1.3822-11.49927,1.6427-6.043.23083-8.56158-1.60913-11.773.2738a9.43609,9.43609,0,0,0-3.83306,4.92829"/><path class="cls-37" d="M308.60686,195.524a72.835,72.835,0,0,1,.27381,19.98681c-.88483,6.95923-2.18805,8.80121-3.55927,9.85645-4.83532,3.721-13.07965-.36932-13.96338-.82135"/><path class="cls-37" d="M327.77227,225.9149a13.638,13.638,0,0,1-15.05853-2.73792c-4.4798-4.60095-3.55036-10.84772-3.43531-11.54095"/><path class="cls-38" d="M298.6137,210.80455c-.26331,8.21105.95435,14.08581-.75183,14.64025-.66681.21668-1.44342-.48864-1.98511-.99255-4.23608-3.94055-3.06341-11.53986-2.77435-13.45166,1.17352-7.76086,5.622-14.28076,6.752-13.84381C300.77062,197.511,298.90649,201.67424,298.6137,210.80455Z"/><path class="cls-38" d="M302.50689,190.38784c1.15215-2.63446,1.00244-4.29266,1.4109-4.24373.513.06145,1.62859,2.78252.67723,5.03012-.973,2.29879-3.8135,3.406-4.21243,3.07938C300.07285,194,301.36836,192.99118,302.50689,190.38784Z"/></g><path class="cls-39" d="M309.19579,239.37443a55.96,55.96,0,0,0,9.56256-13.26807,26.347,26.347,0,0,0,2.95667-15.55255,37.73987,37.73987,0,0,0-2.25806-7.72387c-.9881-2.52869-2.12713-5.01606-3.28583-7.49891-1.17584-2.4779-2.31494-4.98339-3.53155-7.42236q-1.82666-3.6687-3.84326-7.23736l1.71209.05011q-2.21549,3.44118-4.17889,7.03765c-1.3042,2.38727-2.50946,4.86444-3.73175,7.31824-2.40033,4.8996-4.67407,9.92951-5.51318,15.22a27.44114,27.44114,0,0,0,2.73913,15.65778A52.85991,52.85991,0,0,0,309.19579,239.37443Zm0,0a49.87445,49.87445,0,0,1-10.25042-12.9823,31.29832,31.29832,0,0,1-2.94574-7.85242,26.1429,26.1429,0,0,1-.46283-8.44818,36.25277,36.25277,0,0,1,2.08-8.16748c.96112-2.62512,2.093-5.16766,3.275-7.67022,1.19506-2.49341,2.4024-4.96869,3.71887-7.42511q1.97388-3.66881,4.2157-7.18659l.89483-1.40082.81739,1.45093c2.71533,4.8194,5.09527,9.84058,7.34851,14.85211,1.12353,2.5188,2.23327,5.05316,3.20282,7.66388a36.49474,36.49474,0,0,1,2.1643,8.131,23.88537,23.88537,0,0,1-.53521,8.44056,31.7426,31.7426,0,0,1-3.09821,7.77917A52.56859,52.56859,0,0,1,309.19579,239.37443Z"/><path class="cls-39" d="M307.98962,178.157a4.21232,4.21232,0,0,1,.91455-1.80414,1.67711,1.67711,0,0,1,.46307-.37585,1.105,1.105,0,0,1,.7691-.12842,1.12392,1.12392,0,0,1,.65149.46,4.1289,4.1289,0,0,1,.28711.46839c.28308.58313.54529,1.096.8628,1.62658.31652.52533.67053,1.038,1.04248,1.59784a4.5185,4.5185,0,0,1-1.65821-1.11841,6.51393,6.51393,0,0,1-1.13385-1.64514,1.69617,1.69617,0,0,0-.2857-.47448c-.01-.058-.25537.01452-.48358.17211C308.95373,177.256,308.50256,177.73014,307.98962,178.157Z"/><path class="cls-39" d="M325.42174,215.28709a8.28117,8.28117,0,0,1,.42939,2.6607,12.25463,12.25463,0,0,1-1.0575,5.16388,8.35612,8.35612,0,0,1-1.43622,2.27979l-.09387-.03455a39.23558,39.23558,0,0,0,2.05835-10.075Z"/><path class="cls-39" d="M292.492,212.02037a8.28129,8.28129,0,0,1-.30048-2.67835,12.2546,12.2546,0,0,1,1.30542-5.10681,8.3544,8.3544,0,0,1,1.54456-2.20783l.0921.039a39.2379,39.2379,0,0,0-2.54212,9.96386Z"/><polyline class="cls-18" points="308.458 190.372 308.458 150.703 235.539 150.703"/><path class="cls-23" d="M310.71343,190.25925a2.25586,2.25586,0,1,1-2.25586-2.2558A2.25614,2.25614,0,0,1,310.71343,190.25925Z"/><polyline class="cls-18" points="309.397 230.85 309.397 291.961 86.949 291.961"/><circle class="cls-23" cx="309.3969" cy="230.96244" r="2.25586"/><path d="M59.12194,34.94275H65.7611c4.55908,0,6.51855,2.11963,6.51855,6.439v1.11963c0,2.8794-.87988,4.6792-2.83935,5.479v.08008c2.35937.7998,3.27929,2.87939,3.27929,5.83886V56.2992c0,4.31884-2.27929,6.63867-6.67871,6.63867H59.12194Zm6.11914,11.398c1.63963,0,2.63963-.71973,2.63963-2.95947V41.82117c0-1.99951-.68016-2.8794-2.23973-2.8794H63.52135V46.3407Zm.7998,12.59766c1.47949,0,2.27979-.67969,2.27979-2.75928V53.73962c0-2.5996-.83985-3.39941-2.83985-3.39941H63.52135v8.59815Z"/><path d="M75.2816,34.94275h6.51905c4.55908,0,6.519,2.11963,6.519,6.439v1.71973c0,2.8794-.91992,4.71875-2.87988,5.519v.07959c2.1997.68018,2.91992,2.75977,2.91992,5.919v4.91943a8.2448,8.2448,0,0,0,.47949,3.39942h-4.479a8.60344,8.60344,0,0,1-.3999-3.43946V54.37927c0-2.59961-.75977-3.43945-2.75977-3.43945H79.681v11.998H75.2816Zm5.999,11.99756c1.63965,0,2.63965-.71973,2.63965-2.95947V41.82117c0-1.99951-.67969-2.8794-2.23975-2.8794H79.681v7.99854Z"/><path d="M94.80114,34.94275h5.959l4.55957,27.99512h-4.39941l-.79981-5.55909v.08008H95.121l-.7998,5.479H90.24205Zm4.79931,18.7168L97.641,39.82166H97.5609L95.641,53.65955Z"/><path d="M107.44078,34.94275h4.39942V62.93787h-4.39942Z"/><path d="M115.12047,34.94275h5.519l4.2793,16.75684h.08008V34.94275h3.91943V62.93787h-4.51953L119.12,42.50134h-.08007V62.93787h-3.91944Z"/><path d="M138.31969,56.45886V41.42127c0-4.31885,2.23975-6.87842,6.479-6.87842s6.47852,2.55957,6.47852,6.87842v2.95947H147.118V41.14148c0-1.83984-.87988-2.59961-2.19971-2.59961s-2.19922.75977-2.19922,2.59961V56.77869c0,1.83984.8794,2.55957,2.19922,2.55957s2.19971-.71973,2.19971-2.55957v-4.2793h4.15918v3.95947c0,4.31934-2.23926,6.87891-6.47852,6.87891S138.31969,60.7782,138.31969,56.45886Z"/><path d="M153.67955,56.2992V41.58142c0-4.479,2.35938-7.03857,6.67871-7.03857s6.6792,2.55957,6.6792,7.03857V56.2992c0,4.479-2.35986,7.03857-6.6792,7.03857S153.67955,60.7782,153.67955,56.2992Zm8.9585.27978V41.30164c0-2-.87988-2.75977-2.27979-2.75977-1.39941,0-2.27929.75977-2.27929,2.75977V56.579c0,1.99951.87988,2.75928,2.27929,2.75928C161.75817,59.33826,162.63805,58.57849,162.63805,56.579Z"/><path d="M169.67907,56.2992V41.58142c0-4.479,2.35937-7.03857,6.67871-7.03857s6.6792,2.55957,6.6792,7.03857V56.2992c0,4.479-2.35987,7.03857-6.6792,7.03857S169.67907,60.7782,169.67907,56.2992Zm8.95849.27978V41.30164c0-2-.87988-2.75977-2.27978-2.75977-1.39942,0-2.2793.75977-2.2793,2.75977V56.579c0,1.99951.87988,2.75928,2.2793,2.75928C177.75768,59.33826,178.63756,58.57849,178.63756,56.579Z"/><path d="M185.99889,34.94275h6.519c4.55908,0,6.519,2.11963,6.519,6.439v1.71973c0,2.8794-.91993,4.71875-2.87989,5.519v.07959c2.19971.68018,2.91944,2.75977,2.91944,5.919v4.91943a8.24453,8.24453,0,0,0,.48,3.39942h-4.479a8.60363,8.60363,0,0,1-.3999-3.43946V54.37927c0-2.59961-.75977-3.43945-2.75977-3.43945H190.3983v11.998h-4.39941Zm5.999,11.99756c1.63965,0,2.63965-.71973,2.63965-2.95947V41.82117c0-1.99951-.68017-2.8794-2.23974-2.8794H190.3983v7.99854Z"/><path d="M202.11852,34.94275h6.71875c4.39941,0,6.55908,2.43945,6.55908,6.91846V56.01892c0,4.47949-2.15967,6.91895-6.55908,6.91895h-6.71875Zm6.63916,23.99561c1.39941,0,2.23926-.71973,2.23926-2.71924V41.6615c0-1.99951-.83985-2.71973-2.23926-2.71973h-2.23975V58.93836Z"/><path d="M218.35826,34.94275h4.39942V62.93787h-4.39942Z"/><path d="M226.038,34.94275h5.519l4.2793,16.75684h.08008V34.94275h3.91943V62.93787h-4.51953l-5.27881-20.43653h-.08007V62.93787H226.038Z"/><path d="M246.517,34.94275h5.959l4.55957,27.99512H252.6361l-.79981-5.55909v.08008h-4.99951l-.7998,5.479h-4.07911Zm4.79931,18.7168L249.3568,39.82166h-.08008L247.3568,53.65955Z"/><path d="M260.7567,38.94177h-4.59912v-3.999h13.59766v3.999h-4.59912v23.9961H260.7567Z"/><path d="M271.39733,56.2992V41.58142c0-4.479,2.35937-7.03857,6.67871-7.03857s6.6792,2.55957,6.6792,7.03857V56.2992c0,4.479-2.35987,7.03857-6.6792,7.03857S271.39733,60.7782,271.39733,56.2992Zm8.95849.27978V41.30164c0-2-.87988-2.75977-2.27978-2.75977-1.39942,0-2.2793.75977-2.2793,2.75977V56.579c0,1.99951.87988,2.75928,2.2793,2.75928C279.47594,59.33826,280.35582,58.57849,280.35582,56.579Z"/><path d="M287.71715,34.94275h6.519c4.55909,0,6.519,2.11963,6.519,6.439v1.71973c0,2.8794-.91992,4.71875-2.87989,5.519v.07959c2.19971.68018,2.91993,2.75977,2.91993,5.919v4.91943a8.2448,8.2448,0,0,0,.47949,3.39942h-4.479a8.60363,8.60363,0,0,1-.3999-3.43946V54.37927c0-2.59961-.75976-3.43945-2.75976-3.43945h-1.51953v11.998h-4.39942Zm5.999,11.99756c1.63965,0,2.63965-.71973,2.63965-2.95947V41.82117c0-1.99951-.67968-2.8794-2.23974-2.8794h-1.99951v7.99854Z"/><rect class="cls-40" x="62.87589" y="1.21841" width="232.16674" height="22.13674"/><line class="cls-41" x1="78.45083" y1="23.35515" x2="78.45083" y2="14.90769"/><line class="cls-41" x1="118.45078" y1="23.35519" x2="118.45078" y2="14.90773"/><line class="cls-41" x1="158.45078" y1="23.35519" x2="158.45078" y2="14.90773"/><line class="cls-41" x1="198.45078" y1="23.35519" x2="198.45078" y2="14.90773"/><line class="cls-41" x1="238.45078" y1="23.35519" x2="238.45078" y2="14.90773"/><line class="cls-41" x1="278.45078" y1="23.35519" x2="278.45078" y2="14.90773"/><line class="cls-42" x1="90.45078" y1="19.13142" x2="90.45078" y2="23.43452"/><line class="cls-42" x1="104.45078" y1="19.1319" x2="104.45078" y2="23.43501"/><line class="cls-42" x1="130.45078" y1="19.13166" x2="130.45078" y2="23.43477"/><line class="cls-42" x1="144.45078" y1="19.13215" x2="144.45078" y2="23.43525"/><line class="cls-42" x1="170.45078" y1="19.13166" x2="170.45078" y2="23.43477"/><line class="cls-42" x1="184.45078" y1="19.13215" x2="184.45078" y2="23.43525"/><line class="cls-42" x1="250.45078" y1="19.13166" x2="250.45078" y2="23.43477"/><line class="cls-42" x1="264.45078" y1="19.13215" x2="264.45078" y2="23.43525"/><line class="cls-42" x1="210.45078" y1="19.13166" x2="210.45078" y2="23.43477"/><line class="cls-42" x1="224.45078" y1="19.13215" x2="224.45078" y2="23.43525"/><path class="cls-43" d="M52.57158,198.82434c2.3371-2.82471,7.1781-2.31457,9.127-2.16168,19.20239,1.50653,19.89025-5.131,43.71313-2.642,7.50238.78388,25.97363,2.72309,35.13318,10.41467,2.47772,2.08063,3.902,4.19135,8.33978,7.1186,4.20673,2.77484,7.60114,3.96142,8.93671,7.58172a8.5342,8.5342,0,0,1,.43042,4.1872c-1.20349,7.10193-16.19623,10.34381-19.45477,11.0484-10.65925,2.30481-18.10389,1.19635-67.49122-12.96985-5.942-1.70441-15.21063-4.499-18.65539-12.15015C52.48986,208.89478,49.64226,202.36481,52.57158,198.82434Z"/><path class="cls-44" d="M55.82423,196.85084a19.50432,19.50432,0,0,1,5.87431-.19009c19.20239,1.50653,19.89025-5.13105,43.71313-2.642,7.50238.78387,25.97363,2.72308,35.13318,10.41467,1.13786.9555,2.05356,1.91735,3.141,2.96171"/><path class="cls-45" d="M155.96085,230.49974a12.594,12.594,0,0,1-11.76993-1.00119"/><path class="cls-45" d="M155.49745,232.85048a12.594,12.594,0,0,1-11.812-.09747"/><path class="cls-45" d="M155.73172,228.74913A12.594,12.594,0,0,1,144.7,224.52605"/><line class="cls-23" x1="99.7965" y1="189.10915" x2="99.7965" y2="209.37287"/><line class="cls-18" x1="99.7965" y1="189.10917" x2="99.7965" y2="190.10917"/><line class="cls-46" x1="99.7965" y1="191.94004" x2="99.7965" y2="205.67155"/><line class="cls-18" x1="99.7965" y1="206.58695" x2="99.7965" y2="207.58695"/><circle class="cls-23" cx="99.7965" cy="207.49296" r="1.87988"/><polyline class="cls-20" points="111.542 110.297 99.796 110.297 99.796 150.789 99.796 187.984"/><circle class="cls-23" cx="99.7965" cy="187.92484" r="1.18433"/><path class="cls-23" d="M104.50475,203.3905v-5.72656h1.97266a4.78478,4.78478,0,0,1,1.01953.082,1.93342,1.93342,0,0,1,.83984.41016,2.32572,2.32572,0,0,1,.67773.97851,3.83732,3.83732,0,0,1,.22461,1.36133,4.00153,4.00153,0,0,1-.15234,1.15625,2.80526,2.80526,0,0,1-.39062.834,2.07008,2.07008,0,0,1-.52149.51953,2.14,2.14,0,0,1-.68359.28711,3.88638,3.88638,0,0,1-.91992.09765Zm.75781-.67578h1.22266a2.9675,2.9675,0,0,0,.88867-.10547,1.26652,1.26652,0,0,0,.51367-.29687,1.80222,1.80222,0,0,0,.41992-.72461,3.54738,3.54738,0,0,0,.15039-1.10352,2.66312,2.66312,0,0,0-.29492-1.38086,1.48663,1.48663,0,0,0-.71679-.64648,2.96208,2.96208,0,0,0-.98047-.11719h-1.20313Z"/><path class="cls-23" d="M111.91881,203.3905l-2.21875-5.72656h.82031l1.48829,4.16016q.17943.49952.30078.9375.13257-.46875.30859-.9375l1.54688-4.16016h.77343l-2.24218,5.72656Z"/><path class="cls-47" d="M139.8967,217.07317c-.65314,5.13537-9.1861,8.17127-15.90993,7.22433s-11.64507-5.87764-10.99193-11.01305,6.63337-8.5308,13.35718-7.58382S140.54983,211.93779,139.8967,217.07317Z"/><circle class="cls-28" cx="126.43667" cy="215.00592" r="6.81819"/><path class="cls-29" d="M128.7234,211.31a2.37752,2.37752,0,0,0,0,4.755A2.37752,2.37752,0,0,0,128.7234,211.31Z"/><path class="cls-39" d="M53.42113,196.7804a5.6549,5.6549,0,0,0,.20429,1.88568,1.45567,1.45567,0,0,0,.29827.51208,1.42831,1.42831,0,0,0,.40473.35718,3.9204,3.9204,0,0,0,1.30206.581,9.11534,9.11534,0,0,0,1.95032.24079l.06213.105a3.78436,3.78436,0,0,1-4.01611.07,2.23,2.23,0,0,1-.96277-1.84461,3.5178,3.5178,0,0,1,.65564-1.97485Z"/></g></g></svg>